<svg width="27" height="27" viewBox="0 0 27 27" fill="none" xmlns="http://www.w3.org/2000/svg">
<path d="M15.0833 1.17465C15.6781 1.88298 16.6714 2.11004 17.5155 1.72996C18.6866 1.20303 20.0502 1.85953 20.3686 3.10343C20.5981 3.99934 21.3941 4.63486 22.3196 4.65954C23.6042 4.69286 24.547 5.87629 24.294 7.135C24.1114 8.04201 24.5532 8.96012 25.3763 9.38339C26.519 9.97079 26.8559 11.4454 26.0809 12.4709C25.5231 13.2089 25.5231 14.2282 26.0809 14.9661C26.8559 15.9904 26.519 17.4663 25.3763 18.0537C24.5532 18.4769 24.1114 19.395 24.294 20.3021C24.547 21.5608 23.6042 22.7442 22.3196 22.7775C21.3941 22.801 20.5981 23.4365 20.3686 24.3336C20.0502 25.5788 18.6866 26.2353 17.5155 25.7071C16.6714 25.327 15.6781 25.5541 15.0833 26.2624C14.2565 27.2459 12.7435 27.2459 11.9167 26.2624C11.3219 25.5541 10.3286 25.327 9.48448 25.7071C8.31339 26.234 6.94979 25.5775 6.63141 24.3336C6.40188 23.4377 5.60593 22.8022 4.68041 22.7775C3.39579 22.7442 2.453 21.5608 2.70597 20.3021C2.88861 19.395 2.44683 18.4769 1.62373 18.0537C0.481023 17.4663 0.144135 15.9916 0.919103 14.9661C1.47688 14.2282 1.47688 13.2089 0.919103 12.4709C0.144135 11.4467 0.481023 9.97079 1.62373 9.38339C2.44683 8.96012 2.88861 8.04201 2.70597 7.135C2.453 5.87629 3.39579 4.69286 4.68041 4.65954C5.60593 4.6361 6.40188 4.00057 6.63141 3.10343C6.94979 1.8583 8.31339 1.2018 9.48448 1.72996C10.3286 2.11004 11.3219 1.88298 11.9167 1.17465C12.7435 0.191132 14.2565 0.191132 15.0833 1.17465Z" fill="#FFCE00"/>
<path d="M22.3873 13.7173C22.3873 18.6256 18.4083 22.6046 13.5 22.6046C8.59175 22.6046 4.61279 18.6256 4.61279 13.7173C4.61279 8.80903 8.59175 4.83008 13.5 4.83008C18.4083 4.83008 22.3873 8.80903 22.3873 13.7173Z" fill="#FFF0C5" stroke="#CC9300"/>
<path d="M12.4197 11.0793C12.4197 10.6219 12.3686 10.3519 12.2664 10.2691C12.1642 10.1815 11.9063 10.1377 11.4927 10.1377H10.5146L10.5219 9.45161C11.3589 9.43701 12.0572 9.34699 12.6168 9.18154C13.1764 9.01609 13.6338 8.76791 13.9891 8.43701H14.6898V16.8385C14.6898 17.3543 14.792 17.6925 14.9964 17.8531C15.2007 18.0137 15.5876 18.0939 16.1569 18.0939H16.5V18.7801H10.5V18.0939H10.8796C11.4732 18.0939 11.8771 18.0161 12.0912 17.8604C12.3102 17.6998 12.4197 17.3592 12.4197 16.8385V11.0793Z" fill="#CC9300"/>
</svg>
