<svg width="25" height="25" viewBox="0 0 25 25" fill="none" xmlns="http://www.w3.org/2000/svg">
<path d="M14.6167 2.2265C15.0546 2.87518 15.8705 3.15412 16.6144 2.90893C17.6465 2.56909 18.736 3.24216 18.8939 4.31708C19.0078 5.0913 19.6214 5.69651 20.398 5.79914C21.4761 5.94079 22.1648 7.02006 21.8406 8.05691C21.6067 8.80402 21.8973 9.61571 22.5525 10.0447C23.4621 10.6401 23.6152 11.9108 22.8723 12.7052C22.3377 13.2769 22.2475 14.1347 22.6517 14.805C23.2132 15.7355 22.7992 16.9477 21.7856 17.3409C21.0555 17.6243 20.6026 18.3578 20.676 19.1372C20.7776 20.2188 19.8795 21.1313 18.7955 21.0457C18.0146 20.9836 17.2886 21.448 17.0161 22.1827C16.6381 23.2023 15.4325 23.6342 14.4937 23.0861C13.817 22.6916 12.961 22.7948 12.3978 23.3383C11.6151 24.0928 10.3419 23.959 9.73313 23.0582C9.29524 22.4096 8.47937 22.1306 7.73545 22.3758C6.70335 22.7156 5.61392 22.0426 5.45602 20.9677C5.34211 20.1934 4.72851 19.5882 3.95185 19.4856C2.87377 19.3439 2.18506 18.2647 2.50927 17.2278C2.74319 16.4807 2.45262 15.669 1.79741 15.24C0.887754 14.6447 0.734686 13.3739 1.47754 12.5795C2.01219 12.0078 2.10234 11.1501 1.69823 10.4797C1.13667 9.54929 1.55071 8.33709 2.56427 7.94385C3.29436 7.66046 3.74733 6.92693 3.67386 6.14751C3.57231 5.06591 4.47036 4.15342 5.55434 4.239C6.33525 4.30113 7.06127 3.83672 7.33377 3.10207C7.71182 2.08242 8.91738 1.65057 9.85616 2.19861C10.5328 2.59311 11.3889 2.4899 11.9521 1.94643C12.7348 1.19191 14.008 1.32573 14.6167 2.2265Z" fill="#9A9DA2"/>
<path d="M19.5772 13.4194C19.1476 17.5076 15.4851 20.4734 11.397 20.0437C7.3088 19.614 4.34302 15.9516 4.7727 11.8634C5.20238 7.77526 8.86482 4.80947 12.953 5.23916C17.0411 5.66884 20.0069 9.33128 19.5772 13.4194Z" fill="#9A9DA2" stroke="#F3F2F0"/>
<path d="M9.29111 16.1625C9.35255 15.722 9.47373 15.3258 9.65466 14.9736C9.83558 14.6215 10.1046 14.2597 10.4618 13.8882C10.5895 13.7539 10.8772 13.485 11.3249 13.0813C11.7729 12.674 12.1124 12.3271 12.3432 12.0408C12.5182 11.8169 12.6617 11.5687 12.7736 11.2965C12.8856 11.0242 12.9567 10.7438 12.987 10.4554C13.0354 9.99465 12.9765 9.63625 12.8103 9.38018C12.6482 9.12076 12.3836 8.97176 12.0165 8.93318C11.7918 8.90956 11.5877 8.94113 11.4044 9.02791C11.2214 9.11093 11.1243 9.20676 11.1129 9.31539C11.1097 9.34536 11.1197 9.3767 11.1427 9.40943C11.1662 9.4384 11.1994 9.46462 11.2424 9.48807L11.5636 9.67521C11.6671 9.73533 11.7448 9.82492 11.7967 9.94398C11.8523 10.0634 11.8726 10.1943 11.8576 10.3367C11.832 10.5802 11.7265 10.7736 11.541 10.9169C11.3593 11.0607 11.1429 11.1194 10.8919 11.093C10.6035 11.0627 10.3794 10.9426 10.2197 10.7326C10.0637 10.5231 10.0023 10.261 10.0353 9.94633C10.0885 9.44064 10.342 9.0469 10.7958 8.76511C11.2533 8.48371 11.8173 8.37824 12.4878 8.44872C13.252 8.52903 13.8443 8.78444 14.2649 9.21494C14.6859 9.6417 14.8635 10.1679 14.7978 10.7934C14.7659 11.0968 14.6858 11.3724 14.5575 11.6203C14.4329 11.8685 14.2603 12.0871 14.0398 12.276C13.736 12.5357 13.2631 12.8192 12.621 13.1267C12.3937 13.2354 12.226 13.3181 12.1178 13.3749C11.716 13.594 11.3871 13.8226 11.131 14.0608C10.8787 14.2994 10.6912 14.5524 10.5684 14.8197L13.0238 15.0778C13.3534 15.1124 13.5777 15.0868 13.6966 15.0008C13.8154 14.9148 13.9171 14.704 14.0016 14.3682L14.5017 14.4208L13.9491 16.652L9.29111 16.1625Z" fill="#F3F2F0"/>
</svg>
