<svg width="25" height="25" viewBox="0 0 25 25" fill="none" xmlns="http://www.w3.org/2000/svg">
<path d="M13.048 1.94637C13.6112 2.48983 14.4672 2.59305 15.1439 2.19855C16.0828 1.65155 17.2884 2.0834 17.6663 3.102C17.9387 3.83562 18.6647 4.30003 19.4457 4.23894C20.5297 4.15335 21.4278 5.06584 21.3262 6.14744C21.2528 6.92686 21.7057 7.6604 22.4358 7.94379C23.4494 8.33702 23.8633 9.54818 23.3019 10.4797C22.8977 11.15 22.9879 12.0078 23.5226 12.5794C24.2653 13.3728 24.1123 14.6446 23.2027 15.24C22.5475 15.669 22.2569 16.4807 22.4908 17.2278C22.815 18.2646 22.1263 19.3439 21.0482 19.4855C20.2715 19.5871 19.6579 20.1923 19.5441 20.9676C19.3863 22.0436 18.2968 22.7166 17.2646 22.3757C16.5207 22.1306 15.7048 22.4095 15.267 23.0582C14.6582 23.959 13.385 24.0928 12.6023 23.3382C12.0391 22.7948 11.1831 22.6916 10.5064 23.0861C9.56748 23.6331 8.36192 23.2012 7.98398 22.1826C7.71158 21.449 6.98557 20.9846 6.20454 21.0457C5.12056 21.1313 4.22251 20.2188 4.32407 19.1372C4.39754 18.3577 3.94456 17.6242 3.21448 17.3408C2.20091 16.9476 1.78699 15.7364 2.34844 14.8049C2.75255 14.1346 2.66239 13.2768 2.12774 12.7052C1.385 11.9118 1.53796 10.64 2.44762 10.0446C3.10283 9.61564 3.39339 8.80396 3.15948 8.05685C2.83527 7.02 3.52397 5.94073 4.60206 5.79907C5.37883 5.69748 5.99242 5.09227 6.10623 4.31702C6.26402 3.24105 7.35345 2.56799 8.38566 2.90887C9.12958 3.15406 9.94545 2.87512 10.3833 2.22644C10.9921 1.32566 12.2653 1.19185 13.048 1.94637Z" fill="#E1731F"/>
<path d="M20.2273 11.8633C20.657 15.9514 17.6912 19.6139 13.603 20.0436C9.51487 20.4732 5.85243 17.5075 5.42275 13.4193C4.99307 9.33113 7.95885 5.66869 12.047 5.23901C16.1352 4.80932 19.7976 7.77511 20.2273 11.8633Z" fill="#E1731F" stroke="#F6D8C1"/>
<path d="M13.0702 12.1748C13.8232 12.2289 14.3991 12.4107 14.7978 12.7202C15.1966 13.0297 15.4266 13.4754 15.4877 14.0572C15.5512 14.6609 15.3627 15.1728 14.9222 15.5927C14.4817 16.0126 13.8663 16.2641 13.0759 16.3472C12.399 16.4184 11.821 16.3219 11.3419 16.0578C10.8665 15.7933 10.6047 15.4324 10.5567 14.975C10.5278 14.7006 10.592 14.4663 10.7492 14.2722C10.9096 14.0741 11.127 13.9606 11.4015 13.9317C11.6759 13.9029 11.9033 13.9548 12.0837 14.0876C12.2674 14.2162 12.372 14.4013 12.3974 14.6428C12.4281 14.9355 12.3109 15.2105 12.0457 15.4677C11.9819 15.5299 11.951 15.5702 11.9529 15.5885C11.9614 15.669 12.0372 15.7387 12.1802 15.7977C12.327 15.8562 12.4955 15.8755 12.6858 15.8555C13.0809 15.814 13.3715 15.6392 13.5573 15.3311C13.7465 15.0189 13.8142 14.6067 13.7603 14.0945C13.7003 13.5237 13.5651 13.0995 13.3547 12.8219C13.1479 12.544 12.8743 12.4229 12.5341 12.4587C12.5121 12.461 12.4631 12.4699 12.387 12.4853C12.3146 12.5003 12.251 12.5107 12.1961 12.5164C12.0936 12.5272 12.0088 12.5121 11.9416 12.471C11.8777 12.426 11.8415 12.3632 11.833 12.2827C11.8257 12.2132 11.8448 12.1483 11.8902 12.088C11.9357 12.0277 11.9895 11.9943 12.0517 11.9878C12.1322 11.9793 12.2241 11.9734 12.3273 11.9699C12.4342 11.9661 12.4968 11.9632 12.5151 11.9613C12.8078 11.9305 13.0265 11.7762 13.1712 11.4983C13.3158 11.2205 13.3647 10.8583 13.3178 10.4119C13.2639 9.89967 13.1196 9.51161 12.8847 9.24774C12.6494 8.98021 12.3506 8.86549 11.9884 8.90356C11.8347 8.91971 11.7058 8.961 11.6018 9.02742C11.4975 9.09019 11.4487 9.1545 11.4557 9.22036C11.458 9.24232 11.501 9.28219 11.5848 9.33997C11.8761 9.54242 12.0358 9.77719 12.0639 10.0443C12.0869 10.2638 12.0277 10.4569 11.8861 10.6234C11.7442 10.7863 11.5561 10.8801 11.3219 10.9047C11.0548 10.9328 10.8283 10.8715 10.6423 10.7209C10.4595 10.5662 10.3537 10.3517 10.3249 10.0772C10.2784 9.63451 10.4386 9.25881 10.8057 8.95017C11.1761 8.63748 11.6924 8.44634 12.3547 8.37673C13.0865 8.29981 13.6791 8.41141 14.1324 8.71151C14.5853 9.00796 14.843 9.45439 14.9057 10.0508C14.9569 10.5375 14.8341 10.9536 14.5375 11.2992C14.2405 11.6412 13.7514 11.9331 13.0702 12.1748Z" fill="#F6D8C1"/>
</svg>
