<svg width="20" height="20" viewBox="0 0 20 20" fill="none" xmlns="http://www.w3.org/2000/svg">
<path fill-rule="evenodd" clip-rule="evenodd" d="M16.2299 4.82677L16.5417 5.11024C16.6268 5.19528 16.7402 5.25197 16.8819 5.25197C17.1654 5.25197 17.3921 5.0252 17.3921 4.77008C17.3921 4.62835 17.3354 4.51496 17.2504 4.40158L15.9465 3.09764C15.8331 3.0126 15.7197 2.95591 15.578 2.95591C15.3228 2.95591 15.0961 3.18268 15.0961 3.46614C15.0961 3.60787 15.1244 3.72126 15.2378 3.8063L15.5213 4.11811L14.4157 5.22362L14.3024 5.13858C13.1402 4.28819 11.7795 3.74961 10.3339 3.63622H10.2205V1.99213H11.0142C11.2976 1.99213 11.5244 1.76535 11.5244 1.51024C11.5244 1.22677 11.2976 1 11.0142 1H8.4063C8.12283 1 7.89606 1.22677 7.89606 1.51024C7.89606 1.76535 8.12283 1.99213 8.4063 1.99213H9.2V3.63622H9.05827C5.06142 3.97638 2 7.32126 2 11.3181C2 15.5701 5.45827 19 9.68189 19C13.9339 19 17.3921 15.5701 17.3921 11.3181C17.3921 9.33386 16.6268 7.43465 15.2661 5.98898L15.1528 5.90394L16.2299 4.82677ZM9.71024 17.9795C6.0252 17.9795 3.02047 14.9748 3.02047 11.2898C3.02047 7.60472 6.0252 4.62835 9.71024 4.62835C13.3953 4.62835 16.4 7.60472 16.3717 11.2898C16.3717 14.9748 13.3953 17.9795 9.71024 17.9795ZM13.3386 7.66142C13.2252 7.57638 13.1118 7.51969 12.9701 7.51969C12.8283 7.51969 12.715 7.57638 12.6016 7.66142L10.0787 10.2126L9.9937 10.1843C9.90866 10.1559 9.79528 10.1276 9.71024 10.1276C9.05827 10.1276 8.54803 10.6661 8.54803 11.2898C8.54803 11.4032 8.57638 11.4882 8.60472 11.5732L8.63307 11.6583L8.0378 12.2535C7.95276 12.3386 7.89606 12.4803 7.89606 12.5937C7.89606 12.8772 8.12283 13.1039 8.4063 13.1039C8.51968 13.1039 8.66142 13.0472 8.74646 12.9622L9.34173 12.3669L9.42677 12.3953C9.51181 12.4236 9.59685 12.452 9.71024 12.452C10.3339 12.452 10.8724 11.9417 10.8724 11.2898C10.8724 11.2047 10.8441 11.0913 10.8157 11.0063L10.7874 10.9213L13.3386 8.37008C13.4236 8.28504 13.4803 8.17165 13.4803 8.02992C13.4803 7.88819 13.4236 7.7748 13.3386 7.66142Z" fill="#606E84"/>
</svg>
