<svg width="509" height="484" viewBox="0 0 509 484" fill="none" xmlns="http://www.w3.org/2000/svg">
<path fill-rule="evenodd" clip-rule="evenodd" d="M254.453 0L333.044 159.258L254.453 267.681V0Z" fill="url(#paint0_linear_3146_5622)"/>
<path fill-rule="evenodd" clip-rule="evenodd" d="M254.453 0V267.681L175.861 159.258L254.453 0Z" fill="url(#paint1_linear_3146_5622)"/>
<path fill-rule="evenodd" clip-rule="evenodd" d="M175.861 159.258L254.453 267.681L0 184.938L175.861 159.258Z" fill="url(#paint2_linear_3146_5622)"/>
<path fill-rule="evenodd" clip-rule="evenodd" d="M0 184.938L254.453 267.681L127.351 308.912L0 184.938Z" fill="url(#paint3_linear_3146_5622)"/>
<path fill-rule="evenodd" clip-rule="evenodd" d="M254.453 267.681L254.453 401.257L97.2705 483.999L254.453 267.681Z" fill="url(#paint4_linear_3146_5622)"/>
<path fill-rule="evenodd" clip-rule="evenodd" d="M254.453 267.681L97.2705 483.999L127.351 308.912L254.453 267.681Z" fill="url(#paint5_linear_3146_5622)"/>
<path fill-rule="evenodd" clip-rule="evenodd" d="M254.453 267.681L411.636 483.999L254.453 401.257L254.453 267.681Z" fill="url(#paint6_linear_3146_5622)"/>
<path fill-rule="evenodd" clip-rule="evenodd" d="M381.804 308.912L411.636 483.999L254.453 267.681L381.804 308.912Z" fill="url(#paint7_linear_3146_5622)"/>
<path fill-rule="evenodd" clip-rule="evenodd" d="M254.453 267.681L508.906 184.938L381.804 308.912L254.453 267.681Z" fill="url(#paint8_linear_3146_5622)"/>
<path fill-rule="evenodd" clip-rule="evenodd" d="M333.044 159.258L508.906 184.938L254.453 267.681L333.044 159.258Z" fill="url(#paint9_linear_3146_5622)"/>
<defs>
<linearGradient id="paint0_linear_3146_5622" x1="36.9137" y1="375.171" x2="104.671" y2="-49.4927" gradientUnits="userSpaceOnUse">
<stop stop-color="#EE9C42"/>
<stop offset="1" stop-color="#E3692A"/>
</linearGradient>
<linearGradient id="paint1_linear_3146_5622" x1="36.9137" y1="375.171" x2="104.671" y2="-49.4927" gradientUnits="userSpaceOnUse">
<stop stop-color="#EE9C42"/>
<stop offset="1" stop-color="#E3692A"/>
</linearGradient>
<linearGradient id="paint2_linear_3146_5622" x1="272.91" y1="-18.5749" x2="232.493" y2="449.433" gradientUnits="userSpaceOnUse">
<stop stop-color="#E77531"/>
<stop offset="1" stop-color="#CD5434"/>
</linearGradient>
<linearGradient id="paint3_linear_3146_5622" x1="36.9137" y1="375.171" x2="104.671" y2="-49.4927" gradientUnits="userSpaceOnUse">
<stop stop-color="#EE9C42"/>
<stop offset="1" stop-color="#E3692A"/>
</linearGradient>
<linearGradient id="paint4_linear_3146_5622" x1="524.854" y1="97.4562" x2="61.7605" y2="480.47" gradientUnits="userSpaceOnUse">
<stop stop-color="#F2B873"/>
<stop offset="1" stop-color="#EB883A"/>
</linearGradient>
<linearGradient id="paint5_linear_3146_5622" x1="272.91" y1="-18.5749" x2="232.493" y2="449.433" gradientUnits="userSpaceOnUse">
<stop stop-color="#E77531"/>
<stop offset="1" stop-color="#CD5434"/>
</linearGradient>
<linearGradient id="paint6_linear_3146_5622" x1="36.9137" y1="375.171" x2="104.671" y2="-49.4927" gradientUnits="userSpaceOnUse">
<stop stop-color="#EE9C42"/>
<stop offset="1" stop-color="#E3692A"/>
</linearGradient>
<linearGradient id="paint7_linear_3146_5622" x1="272.91" y1="-18.5749" x2="232.493" y2="449.433" gradientUnits="userSpaceOnUse">
<stop stop-color="#E77531"/>
<stop offset="1" stop-color="#CD5434"/>
</linearGradient>
<linearGradient id="paint8_linear_3146_5622" x1="36.9137" y1="375.171" x2="104.671" y2="-49.4927" gradientUnits="userSpaceOnUse">
<stop stop-color="#EE9C42"/>
<stop offset="1" stop-color="#E3692A"/>
</linearGradient>
<linearGradient id="paint9_linear_3146_5622" x1="440.941" y1="233.449" x2="259.379" y2="181.562" gradientUnits="userSpaceOnUse">
<stop stop-color="#F6D1A5"/>
<stop offset="1" stop-color="#EE9C42"/>
</linearGradient>
</defs>
</svg>
