<svg width="16" height="16" viewBox="0 0 16 16" fill="none" xmlns="http://www.w3.org/2000/svg">
<g clip-path="url(#clip0_3582_3431)">
<path d="M6 0.278054C6.09761 0.396667 6.15741 0.541826 6.17168 0.694777C6.18594 0.847728 6.154 1.00144 6.08 1.13605C5.50186 2.19753 5.19993 3.38735 5.202 4.59605C5.202 8.61705 8.48 11.8731 12.52 11.8731C13.047 11.8731 13.56 11.8181 14.053 11.7131C14.2041 11.6803 14.3615 11.6928 14.5056 11.749C14.6497 11.8052 14.774 11.9026 14.863 12.0291C14.957 12.1605 15.0049 12.3193 14.9993 12.4808C14.9937 12.6423 14.9349 12.7974 14.832 12.9221C14.0477 13.8855 13.0583 14.6618 11.9358 15.1942C10.8134 15.7267 9.58632 16.002 8.344 16.0001C3.734 16.0001 0 12.2861 0 7.71005C0 4.26605 2.114 1.31205 5.124 0.0600544C5.27394 -0.00331379 5.44039 -0.0163198 5.59835 0.02299C5.75631 0.0622999 5.89725 0.151803 6 0.278054ZM4.858 1.31105C3.7006 1.93188 2.73304 2.8547 2.05813 3.98142C1.38323 5.10814 1.0262 6.39666 1.025 7.71005C1.025 11.7301 4.304 14.9861 8.344 14.9861C9.31145 14.9877 10.2696 14.7975 11.1631 14.4264C12.0565 14.0553 12.8675 13.5107 13.549 12.8241C13.212 12.8661 12.869 12.8871 12.52 12.8871C7.91 12.8871 4.177 9.17305 4.177 4.59705C4.177 3.43005 4.419 2.31905 4.858 1.31105Z" fill="#858585" fill-opacity="0.5"/>
<path d="M10.794 3.14821C10.8083 3.10491 10.836 3.06722 10.8729 3.04051C10.9099 3.0138 10.9544 2.99942 11 2.99942C11.0456 2.99942 11.0901 3.0138 11.1271 3.04051C11.164 3.06722 11.1917 3.10491 11.206 3.14821L11.593 4.31021C11.766 4.82821 12.172 5.23421 12.69 5.40721L13.852 5.79421C13.8953 5.80855 13.933 5.83617 13.9597 5.87316C13.9864 5.91014 14.0008 5.95459 14.0008 6.00021C14.0008 6.04583 13.9864 6.09029 13.9597 6.12727C13.933 6.16425 13.8953 6.19187 13.852 6.20621L12.69 6.59321C12.4345 6.67833 12.2024 6.82178 12.012 7.01219C11.8216 7.2026 11.6781 7.43474 11.593 7.69021L11.206 8.85221C11.1917 8.89552 11.164 8.9332 11.1271 8.95991C11.0901 8.98662 11.0456 9.001 11 9.001C10.9544 9.001 10.9099 8.98662 10.8729 8.95991C10.836 8.9332 10.8083 8.89552 10.794 8.85221L10.407 7.69021C10.3219 7.43474 10.1784 7.2026 9.98802 7.01219C9.79761 6.82178 9.56547 6.67833 9.30999 6.59321L8.14799 6.20621C8.10469 6.19187 8.067 6.16425 8.04029 6.12727C8.01358 6.09029 7.99921 6.04583 7.99921 6.00021C7.99921 5.95459 8.01358 5.91014 8.04029 5.87316C8.067 5.83617 8.10469 5.80855 8.14799 5.79421L9.30999 5.40721C9.56547 5.3221 9.79761 5.17865 9.98802 4.98824C10.1784 4.79783 10.3219 4.56569 10.407 4.31021L10.794 3.14821ZM13.863 0.0992116C13.8729 0.0707379 13.8914 0.0460475 13.9159 0.0285732C13.9405 0.0110989 13.9699 0.00170898 14 0.00170898C14.0301 0.00170898 14.0595 0.0110989 14.0841 0.0285732C14.1086 0.0460475 14.1271 0.0707379 14.137 0.0992116L14.395 0.873212C14.51 1.21921 14.781 1.49021 15.127 1.60521L15.901 1.86321C15.9295 1.87308 15.9542 1.89158 15.9716 1.91613C15.9891 1.94069 15.9985 1.97008 15.9985 2.00021C15.9985 2.03035 15.9891 2.05974 15.9716 2.08429C15.9542 2.10884 15.9295 2.12734 15.901 2.13721L15.127 2.39521C14.9565 2.45193 14.8015 2.54763 14.6745 2.67469C14.5474 2.80176 14.4517 2.9567 14.395 3.12721L14.137 3.90121C14.1271 3.92969 14.1086 3.95438 14.0841 3.97185C14.0595 3.98932 14.0301 3.99871 14 3.99871C13.9699 3.99871 13.9405 3.98932 13.9159 3.97185C13.8914 3.95438 13.8729 3.92969 13.863 3.90121L13.605 3.12721C13.5483 2.9567 13.4526 2.80176 13.3255 2.67469C13.1984 2.54763 13.0435 2.45193 12.873 2.39521L12.099 2.13721C12.0705 2.12734 12.0458 2.10884 12.0284 2.08429C12.0109 2.05974 12.0015 2.03035 12.0015 2.00021C12.0015 1.97008 12.0109 1.94069 12.0284 1.91613C12.0458 1.89158 12.0705 1.87308 12.099 1.86321L12.873 1.60521C13.219 1.49021 13.49 1.21921 13.605 0.873212L13.863 0.100212V0.0992116Z" fill="#858585" fill-opacity="0.5"/>
</g>
<defs>
<clipPath id="clip0_3582_3431">
<rect width="16" height="16" fill="white"/>
</clipPath>
</defs>
</svg>
