<svg width="18" height="14" viewBox="0 0 18 14" fill="none" xmlns="http://www.w3.org/2000/svg">
<path fill-rule="evenodd" clip-rule="evenodd" d="M2.5 1.33325L8.8 6.05825C8.8577 6.10153 8.92787 6.12492 9 6.12492C9.07212 6.12492 9.1423 6.10153 9.2 6.05825L15.5 1.33325H2.5ZM16.3333 1.95825L9.8 6.85825C9.5692 7.03135 9.28849 7.12492 9 7.12492C8.7115 7.12492 8.43079 7.03135 8.2 6.85825L1.66666 1.95825V12.6666H16.3333V1.95825ZM1.5 0.333252H16.5C16.721 0.333252 16.933 0.421049 17.0893 0.57733C17.2455 0.73361 17.3333 0.945572 17.3333 1.16659V12.8333C17.3333 13.0543 17.2455 13.2662 17.0893 13.4225C16.933 13.5788 16.721 13.6666 16.5 13.6666H1.5C1.27898 13.6666 1.06702 13.5788 0.910742 13.4225C0.754461 13.2662 0.666664 13.0543 0.666664 12.8333V1.16659C0.666664 0.945572 0.754461 0.73361 0.910742 0.57733C1.06702 0.421049 1.27898 0.333252 1.5 0.333252Z" fill="white" fill-opacity="0.5"/>
</svg>
