<svg width="18" height="18" viewBox="0 0 18 18" fill="none" xmlns="http://www.w3.org/2000/svg">
<g clip-path="url(#clip0_287_3690)">
<path d="M9.864 1.04608C8.908 0.807084 8.02 1.53008 7.956 2.46608C7.884 3.51708 7.726 4.48208 7.528 5.05608C7.403 5.41608 7.049 6.06908 6.488 6.69508C5.931 7.31808 5.206 7.87308 4.357 8.10508C3.685 8.28808 3 8.87008 3 9.72008V13.7211C3 14.5661 3.682 15.1851 4.448 15.2661C5.518 15.3801 6.012 15.6811 6.516 15.9891L6.564 16.0191C6.836 16.1841 7.142 16.3671 7.534 16.5031C7.931 16.6391 8.395 16.7201 9 16.7201H12.5C13.437 16.7201 14.099 16.2431 14.434 15.6561C14.5959 15.3791 14.6834 15.0649 14.688 14.7441C14.688 14.5921 14.665 14.4321 14.611 14.2801C14.812 14.0171 14.991 13.7021 15.099 13.3791C15.209 13.0491 15.271 12.6171 15.103 12.2301C15.172 12.1001 15.223 11.9611 15.262 11.8271C15.339 11.5571 15.375 11.2591 15.375 10.9701C15.375 10.6821 15.339 10.3851 15.262 10.1141C15.227 9.9895 15.1808 9.86834 15.124 9.75208C15.2991 9.50296 15.4118 9.21539 15.4525 8.91362C15.4932 8.61185 15.4608 8.30471 15.358 8.01808C15.152 7.42608 14.676 6.91808 14.158 6.74608C13.311 6.46408 12.355 6.47008 11.642 6.53508C11.494 6.5484 11.3463 6.56507 11.199 6.58508C11.5459 5.09947 11.5246 3.5516 11.137 2.07608C11.0696 1.83967 10.9402 1.62557 10.7623 1.45591C10.5844 1.28626 10.3643 1.16721 10.125 1.11108L9.864 1.04608ZM12.5 15.7211H9C8.49 15.7211 8.137 15.6521 7.86 15.5571C7.579 15.4601 7.354 15.3291 7.084 15.1641L7.044 15.1401C6.489 14.8011 5.846 14.4091 4.554 14.2721C4.221 14.2361 4 13.9821 4 13.7221V9.72008C4 9.46608 4.226 9.17708 4.62 9.07008C5.715 8.77008 6.597 8.07408 7.234 7.36208C7.869 6.65208 8.298 5.88708 8.472 5.38408C8.715 4.68408 8.879 3.61608 8.954 2.53408C8.979 2.17208 9.314 1.94008 9.621 2.01608L9.883 2.08208C10.043 2.12208 10.141 2.22508 10.171 2.33708C10.5794 3.89311 10.529 5.53403 10.026 7.06208C9.99753 7.14707 9.99242 7.23815 10.0112 7.32579C10.03 7.41342 10.072 7.49439 10.1329 7.56023C10.1937 7.62606 10.2711 7.67433 10.357 7.69999C10.4428 7.72565 10.534 7.72776 10.621 7.70608L10.624 7.70508L10.638 7.70208L10.696 7.68808C11.038 7.61547 11.3839 7.56304 11.732 7.53108C12.395 7.47108 13.189 7.47708 13.842 7.69508C14.017 7.75308 14.292 7.99508 14.412 8.34508C14.519 8.65308 14.499 9.01508 14.146 9.36708L13.793 9.72008L14.146 10.0741C14.189 10.1171 14.251 10.2151 14.3 10.3891C14.348 10.5561 14.375 10.7591 14.375 10.9701C14.375 11.1821 14.348 11.3841 14.3 11.5521C14.25 11.7261 14.189 11.8241 14.146 11.8671L13.793 12.2201L14.146 12.5741C14.193 12.6211 14.255 12.7511 14.151 13.0621C14.0426 13.3637 13.8704 13.6383 13.646 13.8671L13.293 14.2201L13.646 14.5741C13.652 14.5791 13.687 14.6241 13.687 14.7441C13.6826 14.8908 13.6409 15.0339 13.566 15.1601C13.401 15.4481 13.063 15.7201 12.5 15.7201V15.7211Z" fill="#858585" fill-opacity="0.5"/>
</g>
<defs>
<clipPath id="clip0_287_3690">
<rect width="16" height="16" fill="white" transform="translate(1 1)"/>
</clipPath>
</defs>
</svg>
