<svg width="18" height="18" viewBox="0 0 18 18" fill="none" xmlns="http://www.w3.org/2000/svg">
<g clip-path="url(#clip0_287_3686)">
<path d="M9 16C7.14348 16 5.36301 15.2625 4.05025 13.9497C2.7375 12.637 2 10.8565 2 9C2 7.14348 2.7375 5.36301 4.05025 4.05025C5.36301 2.7375 7.14348 2 9 2C10.8565 2 12.637 2.7375 13.9497 4.05025C15.2625 5.36301 16 7.14348 16 9C16 10.8565 15.2625 12.637 13.9497 13.9497C12.637 15.2625 10.8565 16 9 16ZM9 17C11.1217 17 13.1566 16.1571 14.6569 14.6569C16.1571 13.1566 17 11.1217 17 9C17 6.87827 16.1571 4.84344 14.6569 3.34315C13.1566 1.84285 11.1217 1 9 1C6.87827 1 4.84344 1.84285 3.34315 3.34315C1.84285 4.84344 1 6.87827 1 9C1 11.1217 1.84285 13.1566 3.34315 14.6569C4.84344 16.1571 6.87827 17 9 17Z" fill="#858585" fill-opacity="0.5"/>
<path d="M6.25497 6.786C6.2536 6.81829 6.25886 6.85053 6.2704 6.88072C6.28195 6.91091 6.29956 6.93841 6.32213 6.96155C6.3447 6.98468 6.37177 7.00296 6.40167 7.01524C6.43156 7.02753 6.46366 7.03357 6.49597 7.033H7.32097C7.45897 7.033 7.56897 6.92 7.58697 6.783C7.67697 6.127 8.12697 5.649 8.92897 5.649C9.61497 5.649 10.243 5.992 10.243 6.817C10.243 7.452 9.86897 7.744 9.27797 8.188C8.60497 8.677 8.07197 9.248 8.10997 10.175L8.11297 10.392C8.11402 10.4576 8.14082 10.5202 8.1876 10.5662C8.23437 10.6122 8.29736 10.638 8.36297 10.638H9.17397C9.24028 10.638 9.30387 10.6117 9.35075 10.5648C9.39763 10.5179 9.42397 10.4543 9.42397 10.388V10.283C9.42397 9.565 9.69697 9.356 10.434 8.797C11.043 8.334 11.678 7.82 11.678 6.741C11.678 5.23 10.402 4.5 9.00497 4.5C7.73797 4.5 6.34997 5.09 6.25497 6.786ZM7.81197 12.549C7.81197 13.082 8.23697 13.476 8.82197 13.476C9.43097 13.476 9.84997 13.082 9.84997 12.549C9.84997 11.997 9.42997 11.609 8.82097 11.609C8.23697 11.609 7.81197 11.997 7.81197 12.549Z" fill="#858585" fill-opacity="0.5"/>
</g>
<defs>
<clipPath id="clip0_287_3686">
<rect width="16" height="16" fill="white" transform="translate(1 1)"/>
</clipPath>
</defs>
</svg>
