<svg width="20" height="20" viewBox="0 0 20 20" fill="none" xmlns="http://www.w3.org/2000/svg">
<g clip-path="url(#clip0_263_1267)">
<path d="M10 10.9241C7.00175 10.9241 4.5625 8.48482 4.5625 5.48657C4.5625 2.48832 7.00175 0.0490723 10 0.0490723C12.9983 0.0490723 15.4375 2.48832 15.4375 5.48657C15.4375 8.48482 12.9983 10.9241 10 10.9241ZM10 1.29907C7.691 1.29907 5.8125 3.17757 5.8125 5.48657C5.8125 7.79557 7.691 9.67407 10 9.67407C12.309 9.67407 14.1875 7.79557 14.1875 5.48657C14.1875 3.17757 12.309 1.29907 10 1.29907Z" fill="#606E84"/>
<path d="M18.5846 19.9512H1.41538C1.04113 19.9512 0.688375 19.8092 0.421875 19.5515C0.149625 19.2883 -0.000124922 18.9367 7.81922e-08 18.5614C0.000375078 17.9921 0.000875078 17.8507 0.00187508 17.8038C0.0293751 16.3918 0.4975 14.3742 2.57175 12.7819C3.8715 11.7835 5.67388 11.544 7.27563 12.1575C7.70125 12.3232 8.15588 12.469 8.63025 12.5925C9.52337 12.826 10.4668 12.8272 11.3589 12.596C11.83 12.4733 12.29 12.3257 12.7251 12.1579C14.3267 11.5424 16.1287 11.7818 17.4289 12.7822C19.5025 14.374 19.9706 16.3915 19.9982 17.8037C19.9992 17.8505 19.9998 17.9919 20.0001 18.5614C20.0004 18.9366 19.8506 19.2881 19.5783 19.5514C19.3118 19.8092 18.9589 19.9512 18.5846 19.9512ZM1.25138 17.8352C1.25063 17.8919 1.25025 18.2259 1.25 18.5622C1.25 18.6045 1.27213 18.6349 1.29075 18.6529C1.30938 18.671 1.35025 18.7012 1.41538 18.7012H18.5846C18.6497 18.7012 18.6906 18.671 18.7092 18.6529C18.7279 18.6349 18.7501 18.6045 18.75 18.5623C18.7498 18.2259 18.7494 17.8919 18.7486 17.8352C18.7486 17.8328 18.7485 17.8305 18.7485 17.8282C18.7264 16.6902 18.3472 15.0632 16.6672 13.7734C15.7094 13.0365 14.371 12.8647 13.1742 13.3245C12.6961 13.509 12.1909 13.6709 11.6734 13.806C10.5743 14.0905 9.41325 14.0893 8.31487 13.8023C7.79412 13.6667 7.29288 13.5057 6.82538 13.3237C5.63 12.866 4.2905 13.0378 3.33313 13.7734C1.653 15.0633 1.27388 16.6904 1.25175 17.8283C1.2515 17.8305 1.2515 17.8329 1.25138 17.8352Z" fill="#606E84"/>
</g>
<defs>
<clipPath id="clip0_263_1267">
<rect width="20" height="20" fill="white"/>
</clipPath>
</defs>
</svg>
