<svg width="18" height="19" viewBox="0 0 18 19" fill="none" xmlns="http://www.w3.org/2000/svg">
<g clip-path="url(#clip0_2206_1757)">
<path d="M6 10.1665C5.40666 10.1665 4.82664 9.99056 4.33329 9.66091C3.83994 9.33127 3.45542 8.86273 3.22836 8.31456C3.0013 7.76638 2.94189 7.16318 3.05764 6.58123C3.1734 5.99929 3.45912 5.46474 3.87868 5.04518C4.29824 4.62563 4.83279 4.33991 5.41473 4.22415C5.99667 4.10839 6.59987 4.1678 7.14805 4.39487C7.69623 4.62193 8.16476 5.00645 8.49441 5.49979C8.82405 5.99314 9 6.57316 9 7.16651C8.99912 7.96188 8.68276 8.72443 8.12035 9.28685C7.55793 9.84927 6.79538 10.1656 6 10.1665ZM6 5.49984C5.67036 5.49984 5.34813 5.59759 5.07405 5.78072C4.79997 5.96386 4.58635 6.22416 4.4602 6.5287C4.33405 6.83324 4.30105 7.16835 4.36536 7.49166C4.42967 7.81496 4.5884 8.11193 4.82149 8.34502C5.05458 8.5781 5.35155 8.73684 5.67485 8.80115C5.99815 8.86546 6.33326 8.83245 6.63781 8.7063C6.94235 8.58016 7.20265 8.36654 7.38578 8.09246C7.56892 7.81837 7.66667 7.49614 7.66667 7.16651C7.66667 6.72448 7.49107 6.30055 7.17851 5.98799C6.86595 5.67543 6.44203 5.49984 6 5.49984ZM11 14.8332C10.9989 13.9494 10.6474 13.1022 10.0225 12.4773C9.39763 11.8524 8.5504 11.5009 7.66667 11.4998H4.33333C3.4496 11.5009 2.60237 11.8524 1.97748 12.4773C1.35259 13.1022 1.00106 13.9494 1 14.8332L1 17.4998H2.33333V14.8332C2.33333 14.3027 2.54405 13.794 2.91912 13.419C3.29419 13.0439 3.8029 12.8332 4.33333 12.8332H7.66667C8.1971 12.8332 8.70581 13.0439 9.08088 13.419C9.45595 13.794 9.66667 14.3027 9.66667 14.8332V17.4998H11V14.8332Z" fill="#858585" fill-opacity="0.5"/>
<path d="M11 9.5H17" stroke="#C2C2C2" stroke-width="1.25"/>
<path d="M14 6.5L14 12.5" stroke="#C2C2C2" stroke-width="1.25"/>
</g>
<defs>
<clipPath id="clip0_2206_1757">
<rect width="16" height="16" fill="white" transform="translate(1 1.5)"/>
</clipPath>
</defs>
</svg>
