<svg width="509" height="484" viewBox="0 0 509 484" fill="none" xmlns="http://www.w3.org/2000/svg">
<path fill-rule="evenodd" clip-rule="evenodd" d="M254.453 0L333.044 159.258L254.453 267.681V0Z" fill="url(#paint0_linear_3146_5610)"/>
<path fill-rule="evenodd" clip-rule="evenodd" d="M254.453 0V267.681L175.861 159.258L254.453 0Z" fill="url(#paint1_linear_3146_5610)"/>
<path fill-rule="evenodd" clip-rule="evenodd" d="M175.861 159.258L254.453 267.681L0 184.938L175.861 159.258Z" fill="url(#paint2_linear_3146_5610)"/>
<path fill-rule="evenodd" clip-rule="evenodd" d="M0 184.938L254.453 267.681L127.351 308.912L0 184.938Z" fill="url(#paint3_linear_3146_5610)"/>
<path fill-rule="evenodd" clip-rule="evenodd" d="M254.453 267.681L254.453 401.257L97.2705 483.999L254.453 267.681Z" fill="url(#paint4_linear_3146_5610)"/>
<path fill-rule="evenodd" clip-rule="evenodd" d="M254.453 267.681L97.2705 483.999L127.351 308.912L254.453 267.681Z" fill="url(#paint5_linear_3146_5610)"/>
<path fill-rule="evenodd" clip-rule="evenodd" d="M254.453 267.681L411.636 483.999L254.453 401.257L254.453 267.681Z" fill="url(#paint6_linear_3146_5610)"/>
<path fill-rule="evenodd" clip-rule="evenodd" d="M381.804 308.912L411.636 483.999L254.453 267.681L381.804 308.912Z" fill="url(#paint7_linear_3146_5610)"/>
<path fill-rule="evenodd" clip-rule="evenodd" d="M254.453 267.681L508.906 184.938L381.804 308.912L254.453 267.681Z" fill="url(#paint8_linear_3146_5610)"/>
<path fill-rule="evenodd" clip-rule="evenodd" d="M333.044 159.258L508.906 184.938L254.453 267.681L333.044 159.258Z" fill="url(#paint9_linear_3146_5610)"/>
<defs>
<linearGradient id="paint0_linear_3146_5610" x1="414.726" y1="96.7346" x2="390.582" y2="359.106" gradientUnits="userSpaceOnUse">
<stop stop-color="#FCEE9A"/>
<stop offset="1" stop-color="#FCD82A"/>
</linearGradient>
<linearGradient id="paint1_linear_3146_5610" x1="91.5529" y1="150.978" x2="103.997" y2="413.452" gradientUnits="userSpaceOnUse">
<stop stop-color="#FCEE9A"/>
<stop offset="1" stop-color="#FCD82A"/>
</linearGradient>
<linearGradient id="paint2_linear_3146_5610" x1="468.144" y1="528.387" x2="44.0772" y2="-188.256" gradientUnits="userSpaceOnUse">
<stop stop-color="#F6AD16"/>
<stop offset="1" stop-color="#D17B24"/>
</linearGradient>
<linearGradient id="paint3_linear_3146_5610" x1="128.097" y1="437.775" x2="566.112" y2="185.597" gradientUnits="userSpaceOnUse">
<stop stop-color="#F9C321"/>
<stop offset="1" stop-color="#F09E10"/>
</linearGradient>
<linearGradient id="paint4_linear_3146_5610" x1="522.417" y1="192.552" x2="417.895" y2="354.42" gradientUnits="userSpaceOnUse">
<stop stop-color="#FCE461"/>
<stop offset="1" stop-color="#F9C321"/>
</linearGradient>
<linearGradient id="paint5_linear_3146_5610" x1="468.144" y1="528.387" x2="44.0772" y2="-188.256" gradientUnits="userSpaceOnUse">
<stop stop-color="#F6AD16"/>
<stop offset="1" stop-color="#D17B24"/>
</linearGradient>
<linearGradient id="paint6_linear_3146_5610" x1="128.097" y1="437.775" x2="566.112" y2="185.597" gradientUnits="userSpaceOnUse">
<stop stop-color="#F9C321"/>
<stop offset="1" stop-color="#F09E10"/>
</linearGradient>
<linearGradient id="paint7_linear_3146_5610" x1="468.144" y1="528.387" x2="44.0772" y2="-188.256" gradientUnits="userSpaceOnUse">
<stop stop-color="#F6AD16"/>
<stop offset="1" stop-color="#D17B24"/>
</linearGradient>
<linearGradient id="paint8_linear_3146_5610" x1="128.097" y1="437.775" x2="566.112" y2="185.597" gradientUnits="userSpaceOnUse">
<stop stop-color="#F9C321"/>
<stop offset="1" stop-color="#F09E10"/>
</linearGradient>
<linearGradient id="paint9_linear_3146_5610" x1="522.417" y1="192.552" x2="417.895" y2="354.42" gradientUnits="userSpaceOnUse">
<stop stop-color="#FCE461"/>
<stop offset="1" stop-color="#F9C321"/>
</linearGradient>
</defs>
</svg>
