<svg width="18" height="19" viewBox="0 0 18 19" fill="none" xmlns="http://www.w3.org/2000/svg">
<path d="M7.8689 8.67842C7.93313 8.51202 7.75446 8.35361 7.59713 8.43767C7.34174 8.57415 7.10057 8.74743 6.88133 8.95774C5.58049 10.2056 5.54769 12.2783 6.8164 13.5667C8.05118 14.8206 10.0857 14.8513 11.3585 13.636C11.5794 13.4251 11.7638 13.1904 11.9117 12.9399C12.0032 12.785 11.8543 12.598 11.6839 12.6557C10.6009 13.0226 9.35527 12.7604 8.51133 11.8807C7.66733 11.0008 7.45717 9.74532 7.8689 8.67842Z" fill="#858585" fill-opacity="0.5"/>
<path d="M14.824 3.6758H13.256V4.96566C13.256 5.223 13.0771 5.45177 12.824 5.49843C12.4991 5.55827 12.2 5.30524 12.2 4.98822V2.81769C12.2 2.53168 11.9681 2.2998 11.6821 2.2998C11.3861 2.2998 11.144 2.54195 11.144 2.83792V3.6758H7.55997V4.96566C7.55997 5.223 7.38109 5.45177 7.128 5.49843C6.80314 5.55827 6.50397 5.30524 6.50397 4.98822V2.80755C6.50397 2.52713 6.27664 2.2998 5.99623 2.2998C5.71111 2.2998 5.47997 2.53094 5.47997 2.81606V3.6758H3.11197C2.40506 3.6758 1.83197 4.24889 1.83197 4.9558V15.3878C1.83197 16.0947 2.40506 16.6678 3.11197 16.6678H14.824C15.5309 16.6678 16.104 16.0947 16.104 15.3878V4.9558C16.104 4.24889 15.5309 3.6758 14.824 3.6758ZM15.464 15.3878C15.464 15.7413 15.1774 16.0278 14.824 16.0278H3.11197C2.7585 16.0278 2.47197 15.7413 2.47197 15.3878V7.1318H15.464V15.3878Z" fill="#858585" fill-opacity="0.5"/>
</svg>
