<svg width="18" height="18" viewBox="0 0 18 18" fill="none" xmlns="http://www.w3.org/2000/svg">
<path d="M8.33333 6.83325H9.66667V5.83325H8.33333V6.83325ZM10.5 7.66659V14.3333H11.5V7.66659H10.5ZM9.66667 15.1666H8.33333V16.1666H9.66667V15.1666ZM7.5 14.3333V7.66659H6.5V14.3333H7.5ZM8.33333 15.1666C7.87307 15.1666 7.5 14.7935 7.5 14.3333H6.5C6.5 15.3458 7.32081 16.1666 8.33333 16.1666V15.1666ZM10.5 14.3333C10.5 14.7935 10.1269 15.1666 9.66667 15.1666V16.1666C10.6792 16.1666 11.5 15.3458 11.5 14.3333H10.5ZM9.66667 6.83325C10.1269 6.83325 10.5 7.20635 10.5 7.66659H11.5C11.5 6.65407 10.6792 5.83325 9.66667 5.83325V6.83325ZM8.33333 5.83325C7.32081 5.83325 6.5 6.65407 6.5 7.66659H7.5C7.5 7.20635 7.87307 6.83325 8.33333 6.83325V5.83325ZM12.3333 10.8333H13.6667V9.83325H12.3333V10.8333ZM14.5 11.6666V14.3333H15.5V11.6666H14.5ZM13.6667 15.1666H12.3333V16.1666H13.6667V15.1666ZM11.5 14.3333V11.6666H10.5V14.3333H11.5ZM12.3333 15.1666C11.8731 15.1666 11.5 14.7935 11.5 14.3333H10.5C10.5 15.3458 11.3208 16.1666 12.3333 16.1666V15.1666ZM14.5 14.3333C14.5 14.7935 14.1269 15.1666 13.6667 15.1666V16.1666C14.6792 16.1666 15.5 15.3458 15.5 14.3333H14.5ZM13.6667 10.8333C14.1269 10.8333 14.5 11.2063 14.5 11.6666H15.5C15.5 10.6541 14.6792 9.83325 13.6667 9.83325V10.8333ZM12.3333 9.83325C11.3208 9.83325 10.5 10.6541 10.5 11.6666H11.5C11.5 11.2063 11.8731 10.8333 12.3333 10.8333V9.83325ZM4.33333 9.49992H5.66667V8.49992H4.33333V9.49992ZM6.5 10.3333V14.3333H7.5V10.3333H6.5ZM5.66667 15.1666H4.33333V16.1666H5.66667V15.1666ZM3.5 14.3333V10.3333H2.5V14.3333H3.5ZM4.33333 15.1666C3.87309 15.1666 3.5 14.7935 3.5 14.3333H2.5C2.5 15.3458 3.32081 16.1666 4.33333 16.1666V15.1666ZM6.5 14.3333C6.5 14.7935 6.12691 15.1666 5.66667 15.1666V16.1666C6.67919 16.1666 7.5 15.3458 7.5 14.3333H6.5ZM5.66667 9.49992C6.12691 9.49992 6.5 9.87299 6.5 10.3333H7.5C7.5 9.32072 6.67919 8.49992 5.66667 8.49992V9.49992ZM4.33333 8.49992C3.32081 8.49992 2.5 9.32072 2.5 10.3333H3.5C3.5 9.87299 3.87309 9.49992 4.33333 9.49992V8.49992Z" fill="#858585" fill-opacity="0.5"/>
<path d="M8.68298 2.30894C8.78272 2.00184 9.21725 2.00184 9.31698 2.30894L9.42158 2.63079C9.46618 2.76814 9.59418 2.86112 9.73858 2.86112H10.077C10.3999 2.86112 10.5342 3.27432 10.2729 3.46412L9.99918 3.66304C9.88232 3.74792 9.83345 3.89838 9.87805 4.03572L9.98265 4.35757C10.0824 4.66468 9.73092 4.92005 9.46972 4.73025L9.19592 4.53134C9.07905 4.44646 8.92092 4.44646 8.80405 4.53134L8.53025 4.73025C8.26905 4.92005 7.91752 4.66468 8.01732 4.35757L8.12192 4.03572C8.16652 3.89838 8.11765 3.74792 8.00078 3.66304L7.72705 3.46412C7.46579 3.27432 7.60004 2.86112 7.92298 2.86112H8.26138C8.40578 2.86112 8.53378 2.76814 8.57838 2.63079L8.68298 2.30894Z" fill="#858585" fill-opacity="0.5"/>
</svg>
