<svg width="18" height="19" viewBox="0 0 18 19" fill="none" xmlns="http://www.w3.org/2000/svg">
<g clip-path="url(#clip0_2206_1771)">
<path d="M16 13.2149V13.1749C16.5978 12.0404 16.9101 10.7773 16.9101 9.49493C16.9101 8.21255 16.5978 6.94948 16 5.81493V5.77493C15.3209 4.50857 14.3109 3.45025 13.0776 2.71279C11.8443 1.97533 10.434 1.58638 8.99703 1.5874C7.56007 1.58843 6.15032 1.9794 4.91809 2.71862C3.68585 3.45784 2.67732 4.5176 2.00002 5.78493V5.82493C1.40228 6.95948 1.0899 8.22255 1.0899 9.50493C1.0899 10.7873 1.40228 12.0504 2.00002 13.1849V13.2249C2.6748 14.5018 3.68505 15.5704 4.92202 16.3158C6.15899 17.0612 7.57583 17.455 9.02002 17.455C10.4642 17.455 11.881 17.0612 13.118 16.3158C14.355 15.5704 15.3652 14.5018 16.04 13.2249L16 13.2149ZM6.76002 2.92993C6.22293 3.71234 5.82539 4.58186 5.58502 5.49993H3.33002C4.17505 4.30427 5.37514 3.40508 6.76002 2.92993ZM2.74002 6.49993H5.34502C5.18684 7.32448 5.09654 8.16062 5.07502 8.99993H2.07502C2.13673 8.13206 2.36238 7.28376 2.74002 6.49993ZM2.74002 12.4999C2.36238 11.7161 2.13673 10.8678 2.07502 9.99993H5.07502C5.09654 10.8392 5.18684 11.6754 5.34502 12.4999H2.74002ZM3.32502 13.4999H5.58502C5.82539 14.418 6.22293 15.2875 6.76002 16.0699C5.37514 15.5948 4.17505 14.6956 3.33002 13.4999H3.32502ZM8.50002 16.3249C7.79002 15.9999 7.09002 14.9999 6.62502 13.4999H8.50002V16.3249ZM8.50002 12.4999H6.37002C6.19727 11.6771 6.09854 10.8404 6.07502 9.99993H8.50002V12.4999ZM8.50002 8.99993H6.07502C6.09851 8.15946 6.19724 7.32278 6.37002 6.49993H8.50002V8.99993ZM8.50002 5.49993H6.62502C7.09002 3.99993 7.79002 2.99993 8.50002 2.67493V5.49993ZM15.26 12.4999H12.655C12.8132 11.6754 12.9035 10.8392 12.925 9.99993H15.925C15.8633 10.8678 15.6377 11.7161 15.26 12.4999ZM15.26 6.49993C15.6377 7.28376 15.8633 8.13206 15.925 8.99993H12.925C12.9035 8.16062 12.8132 7.32448 12.655 6.49993H15.26ZM14.67 5.49993H12.415C12.1746 4.58186 11.7771 3.71234 11.24 2.92993C12.6249 3.40508 13.825 4.30427 14.67 5.49993ZM9.50002 2.67493C10.21 2.99993 10.91 3.99993 11.375 5.49993H9.50002V2.67493ZM9.50002 6.49993H11.63C11.8028 7.32278 11.9015 8.15946 11.925 8.99993H9.50002V6.49993ZM9.50002 9.99993H11.925C11.9015 10.8404 11.8028 11.6771 11.63 12.4999H9.50002V9.99993ZM9.50002 16.3249V13.4999H11.375C10.91 14.9999 10.21 15.9999 9.50002 16.3249ZM11.24 16.0699C11.7771 15.2875 12.1746 14.418 12.415 13.4999H14.67C13.825 14.6956 12.6249 15.5948 11.24 16.0699Z" fill="#858585" fill-opacity="0.5"/>
</g>
<defs>
<clipPath id="clip0_2206_1771">
<rect width="16" height="16" fill="white" transform="translate(1 1.5)"/>
</clipPath>
</defs>
</svg>
