<svg width="16" height="16" viewBox="0 0 16 16" fill="none" xmlns="http://www.w3.org/2000/svg">
<path d="M10.7176 11.0782C10.5084 11.3251 10.539 11.6948 10.7858 11.904C11.033 12.1135 11.4028 12.0823 11.6116 11.8358L14.5416 8.3788C14.7284 8.15839 14.7229 7.83509 14.5416 7.6212L11.6116 4.16417C11.4024 3.91721 11.0327 3.88676 10.7858 4.09596C10.539 4.30516 10.5084 4.67492 10.7176 4.92177L12.8299 7.41406H4.06884C3.7452 7.41406 3.48279 7.67636 3.48279 8C3.48279 8.32364 3.7452 8.58594 4.06884 8.58594H12.8299L10.7176 11.0782ZM1.90625 0.5H6.99864C7.32228 0.5 7.58458 0.762299 7.58458 1.08594C7.58458 1.40958 7.32228 1.67188 6.99864 1.67188H2.4923V14.3281H6.99864C7.32228 14.3281 7.58458 14.5904 7.58458 14.9141C7.58458 15.2377 7.32228 15.5 6.99864 15.5H1.90625C1.58273 15.5 1.32031 15.2377 1.32031 14.9141V1.08594C1.32031 0.762299 1.58273 0.5 1.90625 0.5Z" fill="#858585" fill-opacity="0.5"/>
</svg>
