<svg width="16" height="16" viewBox="0 0 16 16" fill="none" xmlns="http://www.w3.org/2000/svg">
<g clip-path="url(#clip0_293_981)">
<path d="M15.0997 7.07325C15.083 6.93658 15.063 6.80325 15.0397 6.66992C15.033 6.63659 15.0297 6.59992 15.023 6.56659C15.003 6.46992 14.9763 6.37992 14.953 6.28659C14.9363 6.22325 14.923 6.15992 14.9063 6.09659C14.8663 5.94659 14.8163 5.79992 14.7663 5.65325C14.753 5.61325 14.7397 5.56992 14.723 5.52992C14.6663 5.37325 14.5997 5.21658 14.5297 5.06325C14.5163 5.03325 14.503 5.00325 14.4897 4.97658C14.4163 4.81992 14.3397 4.66992 14.2563 4.52325C14.2397 4.49658 14.2263 4.46658 14.2097 4.43992C14.1297 4.29992 14.043 4.15992 13.9497 4.02659C13.9263 3.98992 13.8997 3.95325 13.8763 3.91659C13.793 3.79659 13.7063 3.68325 13.6163 3.56992C13.5763 3.51992 13.5363 3.46659 13.493 3.41659C13.413 3.31659 13.333 3.22659 13.253 3.13992C13.1897 3.07325 13.1263 3.00659 13.063 2.93992C12.9963 2.87325 12.9297 2.80992 12.863 2.74659C12.773 2.66659 12.683 2.58659 12.593 2.50659C12.543 2.46325 12.4897 2.42325 12.4397 2.38325C12.3263 2.29325 12.213 2.20659 12.093 2.12325C12.0563 2.09659 12.0163 2.07325 11.9797 2.04659C11.8463 1.95659 11.7097 1.86992 11.5697 1.78992C11.5397 1.77325 11.5097 1.75659 11.4797 1.73992C11.333 1.65659 11.183 1.57992 11.0297 1.50659C10.9997 1.49325 10.9663 1.47992 10.9363 1.46659C10.7863 1.39992 10.633 1.33325 10.4763 1.27659C10.433 1.25992 10.3897 1.24659 10.343 1.22992C10.1997 1.17992 10.0563 1.13325 9.90634 1.09325C9.83967 1.07325 9.77301 1.05992 9.70634 1.04325C9.61634 1.01992 9.52634 0.993252 9.43301 0.973252C9.39967 0.969919 9.36634 0.966585 9.33301 0.963252C9.19301 0.936585 9.05301 0.916585 8.90967 0.899919C8.83301 0.889919 8.75967 0.876585 8.68301 0.869919C8.45634 0.846585 8.22967 0.833252 7.99967 0.833252C7.76967 0.833252 7.54301 0.846585 7.31967 0.866585C7.24301 0.873252 7.16967 0.886585 7.09301 0.896585C6.94968 0.916585 6.80634 0.936585 6.66634 0.963252C6.63301 0.969919 6.59967 0.973252 6.56634 0.979919C6.47301 0.999919 6.38301 1.02659 6.29301 1.04992C6.22634 1.06659 6.15967 1.08325 6.09301 1.09992C5.94634 1.13992 5.80301 1.18659 5.65967 1.23659C5.61634 1.25325 5.56967 1.26659 5.52634 1.28325C5.36967 1.33992 5.21634 1.40325 5.06634 1.47325C5.03634 1.48659 5.00301 1.49992 4.97301 1.51659C4.81967 1.58992 4.66967 1.66659 4.52301 1.74659C4.49301 1.76325 4.46301 1.77992 4.43301 1.79659C4.29301 1.87659 4.15634 1.96325 4.02301 2.05325C3.98634 2.07992 3.94634 2.10325 3.90967 2.12992C3.79301 2.21325 3.67634 2.29992 3.56301 2.38992C3.50967 2.42992 3.45967 2.47325 3.40634 2.51659C3.31634 2.58659 3.22634 2.66659 3.13967 2.74659C3.06967 2.80992 3.00301 2.87325 2.93634 2.93992C2.86967 3.00659 2.80967 3.07325 2.74634 3.13992C2.66634 3.22659 2.58634 3.31659 2.50634 3.40992C2.46301 3.45992 2.42301 3.51325 2.38301 3.56325C2.29301 3.67658 2.20634 3.78992 2.12301 3.90992C2.09634 3.94658 2.07301 3.98325 2.04634 4.02325C1.95634 4.15658 1.86967 4.29325 1.78967 4.43325C1.77301 4.46325 1.75634 4.49325 1.73967 4.51992C1.65634 4.66659 1.57967 4.81659 1.50634 4.97325C1.49301 5.00325 1.47967 5.03325 1.46634 5.06659C1.39967 5.21659 1.33301 5.36992 1.27634 5.52659C1.25967 5.56992 1.24634 5.61325 1.22967 5.65658C1.17967 5.79992 1.13301 5.94659 1.09301 6.09325C1.07634 6.15992 1.05967 6.22658 1.04301 6.29325C1.01967 6.38658 0.993008 6.47658 0.973008 6.56992V6.57325C0.969675 6.60325 0.966341 6.63325 0.963008 6.66658C0.936341 6.80325 0.919675 6.93992 0.899674 7.07992C0.889674 7.15992 0.876341 7.23992 0.866341 7.32325C0.846341 7.54658 0.833008 7.77325 0.833008 7.99992C0.833008 8.22658 0.846341 8.45325 0.866341 8.67659C0.873008 8.75659 0.886341 8.83659 0.899674 8.91658C0.916341 9.05658 0.936341 9.19658 0.963008 9.33325C0.969675 9.36658 0.969675 9.39659 0.976341 9.42992V9.43325C0.996341 9.52658 1.02301 9.61658 1.04634 9.70992C1.06301 9.77658 1.07634 9.84325 1.09634 9.90992C1.13634 10.0566 1.18301 10.2033 1.23301 10.3466C1.24967 10.3899 1.26301 10.4333 1.27967 10.4766C1.33634 10.6333 1.40301 10.7866 1.46967 10.9366C1.48301 10.9666 1.49634 10.9966 1.50967 11.0299C1.58301 11.1833 1.65967 11.3333 1.74301 11.4799C1.75967 11.5099 1.77634 11.5399 1.79301 11.5666C1.87301 11.7066 1.95967 11.8433 2.04967 11.9766C2.07634 12.0133 2.09967 12.0533 2.12634 12.0899C2.20967 12.2099 2.29634 12.3233 2.38634 12.4366C2.42634 12.4899 2.46634 12.5399 2.50967 12.5899C2.58634 12.6833 2.66634 12.7699 2.74967 12.8599C2.81301 12.9266 2.87634 12.9933 2.93967 13.0599C3.00634 13.1266 3.07301 13.1899 3.14301 13.2533C3.22967 13.3333 3.31967 13.4133 3.40967 13.4899C3.45967 13.5333 3.51301 13.5733 3.56634 13.6166C3.67967 13.7066 3.79301 13.7933 3.91301 13.8766C3.94967 13.9033 3.98967 13.9266 4.02634 13.9533C4.15967 14.0433 4.29634 14.1299 4.43634 14.2099C4.46634 14.2266 4.49634 14.2433 4.52634 14.2599C4.67301 14.3433 4.82301 14.4199 4.97634 14.4899C5.00634 14.5033 5.03967 14.5166 5.06967 14.5333C5.21967 14.5999 5.37301 14.6666 5.52967 14.7233C5.57301 14.7399 5.61634 14.7533 5.66301 14.7699C5.80634 14.8199 5.94967 14.8666 6.09967 14.9066C6.16634 14.9266 6.23301 14.9399 6.29967 14.9566C6.39301 14.9799 6.47967 15.0066 6.57301 15.0266C6.60634 15.0333 6.63967 15.0366 6.67301 15.0399C6.80967 15.0666 6.95301 15.0866 7.09301 15.1033C7.17301 15.1133 7.24967 15.1266 7.32967 15.1333C7.55301 15.1533 7.77968 15.1666 8.00634 15.1666C8.23301 15.1666 8.45967 15.1533 8.68301 15.1333C8.76301 15.1266 8.84301 15.1133 8.91967 15.0999C9.05968 15.0833 9.19967 15.0633 9.33634 15.0366C9.36967 15.0299 9.40301 15.0266 9.43634 15.0199C9.52967 14.9999 9.61967 14.9733 9.71301 14.9499C9.77967 14.9333 9.84634 14.9199 9.91301 14.8999C10.0597 14.8599 10.2063 14.8133 10.3497 14.7633C10.393 14.7466 10.4363 14.7333 10.4797 14.7166C10.6363 14.6599 10.7897 14.5933 10.9397 14.5266C10.9697 14.5133 11.003 14.4999 11.033 14.4866C11.1863 14.4133 11.3363 14.3366 11.483 14.2533C11.513 14.2366 11.543 14.2199 11.573 14.2033C11.713 14.1233 11.8497 14.0366 11.983 13.9466C12.0197 13.9199 12.0597 13.8966 12.0963 13.8699C12.2163 13.7866 12.3297 13.6999 12.443 13.6099C12.4963 13.5699 12.5463 13.5266 12.5963 13.4866C12.6897 13.4099 12.7763 13.3299 12.8663 13.2466C12.933 13.1833 13.003 13.1199 13.0663 13.0533C13.133 12.9866 13.193 12.9199 13.2563 12.8533C13.3397 12.7666 13.4197 12.6766 13.4963 12.5833C13.5397 12.5333 13.5797 12.4799 13.6197 12.4299C13.7097 12.3166 13.7963 12.1999 13.8797 12.0833C13.9063 12.0466 13.9297 12.0099 13.953 11.9733C14.043 11.8399 14.1297 11.6999 14.213 11.5599C14.2297 11.5333 14.243 11.5033 14.2597 11.4733C14.343 11.3233 14.4197 11.1733 14.493 11.0199C14.5063 10.9899 14.5197 10.9599 14.533 10.9333C14.603 10.7799 14.6663 10.6266 14.7263 10.4666C14.743 10.4266 14.7563 10.3833 14.7697 10.3433C14.8197 10.1966 14.8697 10.0499 14.9097 9.89992C14.9263 9.83659 14.943 9.77325 14.9563 9.70992C14.9797 9.61658 15.0063 9.52325 15.0263 9.42992C15.033 9.39659 15.0363 9.36325 15.043 9.32658C15.0697 9.19325 15.0863 9.05659 15.103 8.91992C15.113 8.83659 15.1297 8.75659 15.1363 8.67325C15.1563 8.44992 15.1697 8.22658 15.1697 7.99658C15.1697 7.76992 15.1563 7.54325 15.1363 7.31992C15.123 7.23992 15.1097 7.15658 15.0997 7.07325ZM14.1363 8.58325C14.1297 8.65658 14.1163 8.72658 14.1063 8.79658C14.0897 8.91325 14.0763 9.02992 14.053 9.14658C14.033 9.25659 14.0063 9.36658 13.9797 9.47658C13.9663 9.53325 13.953 9.58992 13.9363 9.64325C13.8997 9.77325 13.8597 9.89992 13.8163 10.0233C13.803 10.0599 13.793 10.0933 13.7797 10.1299C13.7297 10.2666 13.673 10.3999 13.613 10.5299C13.603 10.5533 13.5897 10.5799 13.5797 10.6033C13.5163 10.7366 13.4497 10.8666 13.3763 10.9966C13.363 11.0199 13.3497 11.0466 13.3363 11.0699C13.2663 11.1899 13.193 11.3099 13.113 11.4266C13.093 11.4599 13.0697 11.4899 13.0497 11.5233C12.9797 11.6266 12.903 11.7233 12.8263 11.8233C12.7897 11.8666 12.7563 11.9133 12.7197 11.9566C12.653 12.0366 12.5863 12.1099 12.5163 12.1866C12.463 12.2466 12.4063 12.3033 12.3497 12.3599C12.293 12.4166 12.2363 12.4699 12.1797 12.5199C12.103 12.5899 12.023 12.6633 11.943 12.7299C11.8997 12.7633 11.8597 12.7999 11.8163 12.8333C11.7163 12.9133 11.6163 12.9899 11.513 13.0599C11.483 13.0799 11.453 13.0999 11.423 13.1199C11.3063 13.1999 11.183 13.2766 11.0597 13.3466C11.0397 13.3599 11.0163 13.3699 10.993 13.3833C10.863 13.4566 10.7297 13.5266 10.593 13.5899C10.5697 13.5999 10.5497 13.6099 10.5263 13.6199C10.393 13.6799 10.2563 13.7366 10.1163 13.7899C10.083 13.8033 10.0497 13.8133 10.0197 13.8233C9.88967 13.8699 9.76301 13.9099 9.62967 13.9466C9.57634 13.9599 9.52634 13.9733 9.47301 13.9866C9.36301 14.0133 9.24967 14.0399 9.13634 14.0633C9.01634 14.0866 8.89301 14.1033 8.77301 14.1166C8.70967 14.1233 8.64634 14.1366 8.57967 14.1433C8.18967 14.1799 7.79634 14.1799 7.40634 14.1433C7.33967 14.1366 7.27634 14.1266 7.20967 14.1166C7.08967 14.0999 6.96967 14.0833 6.84967 14.0633C6.73634 14.0433 6.62301 14.0166 6.51301 13.9866C6.45967 13.9733 6.40634 13.9599 6.35634 13.9466C6.22634 13.9099 6.09634 13.8699 5.96634 13.8233C5.93301 13.8133 5.89967 13.7999 5.86634 13.7899C5.72634 13.7399 5.59301 13.6833 5.45967 13.6233C5.43634 13.6133 5.41301 13.6033 5.39301 13.5933C5.25634 13.5299 5.12634 13.4599 4.99634 13.3899C4.97301 13.3766 4.95301 13.3666 4.92967 13.3533C4.80634 13.2833 4.68634 13.2066 4.56967 13.1266C4.53967 13.1066 4.50967 13.0866 4.47967 13.0666C4.37634 12.9933 4.27634 12.9166 4.17634 12.8399C4.13301 12.8066 4.08967 12.7733 4.04967 12.7366C3.96967 12.6699 3.89301 12.5999 3.81301 12.5266C3.75634 12.4733 3.69967 12.4199 3.64301 12.3633C3.58634 12.3066 3.53301 12.2466 3.47634 12.1899C3.40634 12.1133 3.33634 12.0399 3.27301 11.9599C3.23634 11.9166 3.19967 11.8699 3.16634 11.8266C3.08967 11.7299 3.01301 11.6299 2.94301 11.5299C2.91967 11.4966 2.89967 11.4666 2.87967 11.4333C2.80301 11.3166 2.72634 11.1999 2.65967 11.0799C2.64634 11.0566 2.63301 11.0299 2.61967 11.0066C2.54967 10.8799 2.47967 10.7499 2.41967 10.6166C2.40634 10.5899 2.39634 10.5633 2.38301 10.5366C2.32301 10.4066 2.26967 10.2733 2.21967 10.1399C2.20634 10.1033 2.19301 10.0633 2.17967 10.0266C2.13634 9.90325 2.09634 9.77992 2.06301 9.65325C2.04634 9.59658 2.03301 9.53658 2.01967 9.47658C1.99301 9.36992 1.96967 9.26325 1.94634 9.15325C1.92301 9.03658 1.90967 8.91992 1.89301 8.80325C1.88301 8.73325 1.87301 8.66325 1.86301 8.58992C1.84301 8.38992 1.83301 8.19325 1.83301 7.99992C1.83301 7.80658 1.84301 7.60992 1.86301 7.41658C1.86967 7.34325 1.88301 7.27325 1.89301 7.20325C1.90967 7.08659 1.92301 6.96992 1.94634 6.85659C1.96634 6.74658 1.99301 6.63992 2.01967 6.53325C2.03301 6.47325 2.04634 6.41658 2.06301 6.35659C2.09967 6.22992 2.13967 6.10659 2.17967 5.98325C2.19301 5.94659 2.20634 5.90659 2.21967 5.86992C2.26967 5.73659 2.32301 5.60325 2.38301 5.47325C2.39634 5.44659 2.40634 5.41992 2.41967 5.39325C2.48301 5.25992 2.54967 5.12992 2.61967 5.00325C2.63301 4.97992 2.64634 4.95325 2.65967 4.92992C2.72967 4.80992 2.80301 4.68992 2.87967 4.57658C2.89967 4.54325 2.92301 4.51325 2.94301 4.47992C3.01301 4.37659 3.08967 4.27992 3.16634 4.18325C3.20301 4.13992 3.23634 4.09325 3.27301 4.04992C3.33967 3.96992 3.40967 3.89659 3.47634 3.81992C3.52967 3.75992 3.58634 3.70325 3.64301 3.64658C3.69967 3.58992 3.75634 3.53659 3.81301 3.48325C3.88967 3.41325 3.96634 3.34325 4.04967 3.27325C4.09301 3.23659 4.13634 3.20325 4.17634 3.16992C4.27634 3.08992 4.37634 3.01325 4.47967 2.94325C4.50967 2.92325 4.53967 2.90325 4.56967 2.88325C4.68634 2.80325 4.80634 2.72659 4.92967 2.65659C4.95301 2.64325 4.97301 2.63325 4.99634 2.61992C5.12634 2.54659 5.25967 2.47992 5.39301 2.41659C5.41634 2.40659 5.43967 2.39659 5.45967 2.38659C5.59301 2.32659 5.72967 2.26992 5.86634 2.21992C5.89967 2.20659 5.93301 2.19659 5.96634 2.18659C6.09301 2.14325 6.22301 2.09992 6.35634 2.06325C6.40967 2.04992 6.46301 2.03659 6.51301 2.02325C6.62301 1.99659 6.73634 1.96992 6.84967 1.94659C6.96967 1.92325 7.08634 1.90659 7.20634 1.89325C7.27301 1.88325 7.33967 1.87325 7.40634 1.86659C7.79634 1.82992 8.18967 1.82992 8.57967 1.86659C8.64634 1.87325 8.70967 1.88325 8.77634 1.89325C8.89634 1.90992 9.01634 1.92659 9.13634 1.94659C9.24967 1.96659 9.36301 1.99325 9.47301 2.02325C9.52634 2.03659 9.57967 2.04659 9.62967 2.06325C9.76301 2.09992 9.88967 2.13992 10.0197 2.18659C10.053 2.19659 10.0863 2.20992 10.1163 2.21992C10.2563 2.26992 10.393 2.32659 10.5263 2.38992C10.5497 2.39992 10.5697 2.40992 10.593 2.41992C10.7297 2.48325 10.863 2.55325 10.993 2.62659C11.0163 2.63992 11.0363 2.64992 11.0597 2.66325C11.183 2.73325 11.303 2.80992 11.423 2.88992C11.453 2.90992 11.483 2.92992 11.513 2.94992C11.6163 3.02325 11.7197 3.09992 11.8163 3.17658C11.8597 3.20992 11.903 3.24325 11.943 3.27992C12.023 3.34659 12.103 3.41659 12.1797 3.48992C12.2363 3.54325 12.293 3.59659 12.3497 3.64992C12.4063 3.70659 12.463 3.76659 12.5163 3.82325C12.5863 3.89992 12.6563 3.97325 12.7197 4.05325C12.7563 4.09659 12.7897 4.14325 12.8263 4.18659C12.903 4.28325 12.9797 4.38325 13.0497 4.48659C13.073 4.51659 13.093 4.54992 13.113 4.58325C13.1897 4.69992 13.2663 4.81659 13.3363 4.93992C13.3497 4.96325 13.363 4.98659 13.3763 5.01325C13.4463 5.13992 13.5163 5.27325 13.5797 5.40658C13.5897 5.42992 13.603 5.45659 13.613 5.47992C13.673 5.60992 13.7297 5.74658 13.7797 5.87992C13.793 5.91658 13.803 5.94992 13.8163 5.98658C13.8597 6.11325 13.8997 6.23992 13.9363 6.36659C13.953 6.42325 13.963 6.47658 13.9797 6.53325C14.0063 6.64325 14.033 6.74992 14.053 6.86325C14.0763 6.97992 14.0897 7.09658 14.1063 7.21325C14.1163 7.28325 14.1263 7.35659 14.1363 7.42659C14.153 7.61992 14.1663 7.81325 14.1663 8.00992C14.1663 8.19325 14.1563 8.38992 14.1363 8.58325Z" fill="#858585" fill-opacity="0.5"/>
<path d="M12.1897 5.64315C12.1897 5.15315 11.9997 4.69315 11.653 4.34648C11.3064 3.99981 10.8464 3.80981 10.3564 3.80981C9.86636 3.80981 9.40636 3.99981 9.05969 4.34648L7.99969 5.40648L6.93969 4.34648C6.59303 3.99981 6.13303 3.80981 5.64303 3.80981C5.15303 3.80981 4.69303 3.99981 4.34636 4.34648C3.99969 4.69315 3.80969 5.15315 3.80969 5.64315C3.80969 6.13315 3.99969 6.59315 4.34636 6.93981L5.40636 7.99981L4.34636 9.05981C3.63303 9.77315 3.63303 10.9365 4.34636 11.6531C4.69303 11.9998 5.15303 12.1898 5.64303 12.1898C6.13303 12.1898 6.59303 11.9998 6.93969 11.6531L7.99969 10.5931L9.05969 11.6531C9.40636 11.9998 9.86636 12.1898 10.3564 12.1898C10.8464 12.1898 11.3064 11.9998 11.653 11.6531C11.9997 11.3065 12.1897 10.8465 12.1897 10.3565C12.1897 9.86648 11.9997 9.40648 11.653 9.05981L10.593 7.99981L11.653 6.93981C11.9997 6.59315 12.1897 6.13315 12.1897 5.64315ZM10.9464 6.23315L9.53303 7.64648C9.33636 7.84315 9.33636 8.15981 9.53303 8.35315L10.9464 9.76648C11.2697 10.0898 11.2697 10.6198 10.9464 10.9465C10.633 11.2631 10.083 11.2631 9.76636 10.9465L8.35303 9.53315C8.25969 9.43981 8.13303 9.38648 7.99969 9.38648C7.86636 9.38648 7.73969 9.43981 7.64636 9.53315L6.23303 10.9465C5.91969 11.2631 5.36969 11.2631 5.05636 10.9465C4.73303 10.6231 4.73303 10.0931 5.05636 9.76648L6.46969 8.35315C6.56303 8.25981 6.61636 8.13315 6.61636 7.99981C6.61636 7.86648 6.56303 7.73981 6.46969 7.64648L5.05636 6.23315C4.89969 6.07648 4.81303 5.86648 4.81303 5.64315C4.81303 5.41981 4.89969 5.20981 5.05636 5.05315C5.36969 4.73648 5.91969 4.73648 6.23636 5.05315L7.64969 6.46648C7.84636 6.66315 8.16303 6.66315 8.35636 6.46648L9.76969 5.05315C10.083 4.73648 10.633 4.73648 10.9497 5.05315C11.1064 5.20981 11.193 5.41981 11.193 5.64315C11.193 5.86648 11.103 6.07315 10.9464 6.23315Z" fill="#858585" fill-opacity="0.5"/>
</g>
<defs>
<clipPath id="clip0_293_981">
<rect width="16" height="16" fill="white"/>
</clipPath>
</defs>
</svg>
