<svg width="20" height="20" viewBox="0 0 20 20" fill="none" xmlns="http://www.w3.org/2000/svg">
<g clip-path="url(#clip0_969_1978)">
<path d="M11.8124 2.51573C11.829 2.45354 11.8576 2.39521 11.8968 2.34411C11.9359 2.293 11.9847 2.25011 12.0405 2.21789C12.0962 2.18566 12.1577 2.16474 12.2215 2.15632C12.2854 2.14789 12.3502 2.15213 12.4124 2.16878C13.5954 2.47738 14.6748 3.09581 15.5393 3.96035C16.4038 4.82489 17.0222 5.90428 17.3308 7.08734C17.3475 7.14952 17.3517 7.21437 17.3433 7.27819C17.3349 7.34201 17.3139 7.40354 17.2817 7.45927C17.2495 7.515 17.2066 7.56382 17.1555 7.60296C17.1044 7.6421 17.0461 7.67078 16.9839 7.68737C16.9426 7.69836 16.9001 7.70385 16.8573 7.70369C16.7494 7.70376 16.6445 7.66818 16.5589 7.60249C16.4733 7.5368 16.4117 7.44467 16.3839 7.34041C16.1189 6.3242 15.5878 5.39702 14.8452 4.65443C14.1027 3.91184 13.1755 3.3807 12.1593 3.11576C12.0971 3.09918 12.0388 3.07049 11.9877 3.03136C11.9366 2.99222 11.8937 2.94339 11.8615 2.88766C11.8293 2.83194 11.8083 2.7704 11.7999 2.70659C11.7915 2.64277 11.7957 2.57791 11.8124 2.51573ZM11.5063 5.72811C12.694 6.04485 13.4548 6.8057 13.7716 7.9935C13.7995 8.09775 13.861 8.18988 13.9466 8.25558C14.0322 8.32127 14.1371 8.35684 14.2451 8.35678C14.2878 8.35693 14.3303 8.35144 14.3716 8.34045C14.4338 8.32387 14.4921 8.29519 14.5432 8.25605C14.5943 8.21691 14.6372 8.16808 14.6694 8.11236C14.7017 8.05663 14.7226 7.9951 14.731 7.93128C14.7394 7.86746 14.7352 7.80261 14.7185 7.74043C14.3104 6.21302 13.2867 5.18931 11.7593 4.78113C11.6971 4.76451 11.6323 4.76031 11.5685 4.76875C11.5047 4.77719 11.4432 4.79812 11.3875 4.83034C11.2749 4.8954 11.1929 5.0025 11.1593 5.12808C11.1257 5.25366 11.1434 5.38742 11.2085 5.49995C11.2736 5.61248 11.3807 5.69455 11.5063 5.72811ZM17.9912 13.6468C17.8514 14.714 17.3277 15.6937 16.518 16.4028C15.7084 17.1119 14.6683 17.502 13.592 17.5C7.20007 17.5 2.00001 12.2998 2.00001 5.9077C1.99795 4.83178 2.38762 3.7919 3.09624 2.9823C3.80487 2.1727 4.78397 1.64876 5.85067 1.50835C6.09622 1.47851 6.34483 1.52914 6.55915 1.65264C6.77347 1.77615 6.94194 1.96585 7.03926 2.19327L8.76173 6.03832C8.83778 6.21239 8.86925 6.40267 8.85328 6.59196C8.83732 6.78125 8.77443 6.96357 8.6703 7.12245C8.65979 7.13862 8.64835 7.15415 8.63601 7.16898L6.91599 9.21477C6.90555 9.23598 6.90011 9.2593 6.90011 9.28294C6.90011 9.30658 6.90555 9.3299 6.91599 9.3511C7.5413 10.6312 8.88336 11.9635 10.1813 12.588C10.203 12.5978 10.2267 12.6025 10.2505 12.6017C10.2743 12.6008 10.2976 12.5945 10.3185 12.5831L12.334 10.8687C12.3484 10.8562 12.3637 10.8447 12.3797 10.8344C12.5379 10.729 12.7199 10.6646 12.9092 10.6473C13.0985 10.6299 13.2891 10.66 13.4638 10.7348L17.3202 12.4631C17.5446 12.5625 17.731 12.7316 17.8519 12.9452C17.9727 13.1588 18.0216 13.4057 17.9912 13.6492V13.6468ZM17.0206 13.526C17.0233 13.4918 17.0153 13.4577 16.9976 13.4284C16.9798 13.3991 16.9533 13.3761 16.9218 13.3627L13.0646 11.6345C13.0436 11.6263 13.021 11.6228 12.9984 11.6243C12.9759 11.6257 12.9539 11.6319 12.934 11.6426L10.9193 13.357C10.9046 13.3692 10.8891 13.3806 10.8736 13.3913C10.7093 13.5009 10.5193 13.566 10.3223 13.5803C10.1253 13.5946 9.92794 13.5576 9.74949 13.4729C8.2507 12.7488 6.7568 11.2687 6.03271 9.78377C5.94755 9.60636 5.90964 9.40996 5.92265 9.21359C5.93567 9.01722 5.99916 8.82754 6.107 8.66291C6.11751 8.64654 6.12924 8.63099 6.1421 8.61638L7.86131 6.57059C7.87113 6.5492 7.87622 6.52595 7.87622 6.50242C7.87622 6.47889 7.87113 6.45564 7.86131 6.43425L6.1421 2.58594C6.13076 2.55506 6.11034 2.52832 6.08354 2.50924C6.05674 2.49015 6.02479 2.47961 5.9919 2.479H5.97312C5.14286 2.58944 4.38118 2.99832 3.83031 3.62927C3.27945 4.26022 2.97706 5.07011 2.97961 5.9077C2.97961 11.7594 7.74049 16.5204 13.592 16.5204C14.4297 16.5229 15.2397 16.2204 15.8706 15.6693C16.5016 15.1183 16.9103 14.3564 17.0206 13.526Z" fill="white" fill-opacity="0.5"/>
</g>
<defs>
<clipPath id="clip0_969_1978">
<rect width="20" height="20" fill="white"/>
</clipPath>
</defs>
</svg>
