<svg width="14" height="14" viewBox="0 0 14 14" fill="none" xmlns="http://www.w3.org/2000/svg">
<g clip-path="url(#clip0_199_2221)">
<path fill-rule="evenodd" clip-rule="evenodd" d="M2.1875 3.7208C1.60781 3.7208 1.05001 3.95138 0.640949 4.36162C0.229699 4.77209 0 5.3286 0 5.90907V8.09733C0 8.6778 0.229699 9.23431 0.640949 9.64478C1.05001 10.055 1.60781 10.2856 2.1875 10.2856H3.10843L6.48156 13.4496C6.60844 13.5689 6.79439 13.6012 6.95626 13.5318C7.11595 13.4625 7.21875 13.3047 7.21875 13.1303V0.876057C7.21875 0.701687 7.11595 0.543901 6.95626 0.474568C6.79439 0.405234 6.60844 0.437482 6.48156 0.5568L3.10843 3.7208H2.1875ZM2.1875 4.59611H3.28125C3.39281 4.59611 3.5 4.55373 3.58094 4.47771L6.34375 1.88634V12.1201L3.58094 9.52869C3.5 9.45268 3.39281 9.41029 3.28125 9.41029C3.28125 9.41029 2.77375 9.41029 2.1875 9.41029C1.83969 9.41029 1.505 9.27186 1.26 9.02585C1.01281 8.77961 0.875 8.44561 0.875 8.09733C0.875 7.40216 0.875 6.60425 0.875 5.90907C0.875 5.56079 1.01281 5.22679 1.26 4.98055C1.505 4.73455 1.83969 4.59611 2.1875 4.59611Z" fill="#858585" fill-opacity="0.5"/>
<path fill-rule="evenodd" clip-rule="evenodd" d="M13.4344 4.50321C13.6052 4.67406 13.6052 4.95107 13.4344 5.12193L9.05936 9.49692C8.88851 9.66778 8.6115 9.66778 8.44064 9.49692C8.26979 9.32607 8.26979 9.04906 8.44064 8.87821L12.8156 4.50321C12.9865 4.33235 13.2635 4.33235 13.4344 4.50321Z" fill="#858585" fill-opacity="0.5"/>
<path fill-rule="evenodd" clip-rule="evenodd" d="M8.44064 4.50314C8.6115 4.33229 8.8885 4.33229 9.05936 4.50314L13.4344 8.87814C13.6052 9.04899 13.6052 9.326 13.4344 9.49686C13.2635 9.66771 12.9865 9.66771 12.8156 9.49686L8.44064 5.12186C8.26979 4.951 8.26979 4.674 8.44064 4.50314Z" fill="#858585" fill-opacity="0.5"/>
</g>
<defs>
<clipPath id="clip0_199_2221">
<rect width="14" height="14" fill="white"/>
</clipPath>
</defs>
</svg>
