<svg width="52" height="56" viewBox="0 0 52 56" fill="none" xmlns="http://www.w3.org/2000/svg">
<path fill-rule="evenodd" clip-rule="evenodd" d="M30.1392 40.7274H17.5114C17.1611 40.7274 16.8685 40.4675 16.8345 40.1253C16.7382 39.1556 16.6282 38.1236 16.4774 36.7829C16.4071 36.1564 16.3357 35.531 16.2631 34.9045C15.762 30.5256 15.2427 25.9968 15.1906 21.5347C15.1702 19.8796 15.2359 17.9734 15.8663 16.3849C16.601 14.5343 18.0068 13.3591 20.0431 12.8925C20.8378 12.7092 21.6995 12.9381 22.6042 13.5712C25.6053 15.6718 28.773 22.2034 28.9964 24.3961C29.0338 24.7627 28.7617 25.0893 28.3876 25.126C28.0146 25.1637 27.6801 24.8949 27.6427 24.5283C27.4647 22.7821 24.5384 16.5627 21.814 14.6554C21.2415 14.2555 20.7505 14.0989 20.3537 14.19C17.1236 14.9309 16.5035 17.5435 16.5511 21.5191C16.6021 25.9146 17.118 30.4101 17.6157 34.7567C17.6871 35.3832 17.7597 36.0098 17.83 36.6374C17.9502 37.7115 18.0454 38.588 18.1282 39.3955H30.1392C30.5145 39.3955 30.8195 39.6932 30.8195 40.062C30.8195 40.4297 30.5145 40.7274 30.1392 40.7274Z" fill="#F9AD32"/>
<path fill-rule="evenodd" clip-rule="evenodd" d="M37.2941 47.289H10.6428C10.5872 47.289 10.5328 47.2823 10.4795 47.2701C8.90698 46.8902 8.71651 45.1373 8.83555 44.2642C9.11559 42.3325 11.2267 42.0137 12.3287 42.1148H12.3525C13.7708 42.1148 16.2277 40.2764 17.0633 39.5599C17.3467 39.3178 17.7764 39.3455 18.0236 39.6221C18.2707 39.8987 18.2424 40.3197 17.9601 40.563C17.6086 40.864 14.4624 43.5133 12.2686 43.4467C12.2527 43.4456 12.2357 43.4445 12.2198 43.4433C12.1461 43.4367 10.3514 43.2834 10.1836 44.4453C10.1825 44.4509 10.0294 45.7094 10.7391 45.956H37.2941C40.0469 45.956 42.7169 42.9279 43.0933 40.4208C43.2407 39.4422 43.0876 38.1792 41.5276 37.7193C41.5162 37.716 41.5049 37.7126 41.4947 37.7082C41.107 37.5727 31.9824 34.3735 29.6922 32.9361C28.9394 32.4629 28.953 31.2188 29.0483 29.6425C29.063 29.3993 29.0755 29.1893 29.0755 29.0549C29.0755 28.6861 29.3805 28.3884 29.7557 28.3884C30.131 28.3884 30.436 28.6861 30.436 29.0549C30.436 29.2282 30.4224 29.457 30.4054 29.7214C30.3759 30.2146 30.2977 31.5054 30.4734 31.8442C32.6729 33.1894 41.5072 36.2975 41.9369 36.4485C43.811 37.0084 44.7463 38.5635 44.4391 40.6141C44.2123 42.1248 43.3178 43.791 42.0446 45.0729C40.6262 46.5025 38.9392 47.289 37.2941 47.289Z" fill="#F9AD32"/>
<path fill-rule="evenodd" clip-rule="evenodd" d="M18.0447 47.2902C17.9427 47.2902 17.8395 47.2669 17.742 47.2202C17.4053 47.0558 17.2681 46.6559 17.4359 46.326L20.7646 39.7644C20.9324 39.4356 21.3405 39.3012 21.6773 39.4645C22.0129 39.6289 22.15 40.0288 21.9834 40.3576L18.6535 46.9203C18.5356 47.1536 18.2941 47.2902 18.0447 47.2902Z" fill="#F9AD32"/>
<path fill-rule="evenodd" clip-rule="evenodd" d="M25.8961 30.5946C24.9381 30.5946 24.0957 30.3936 23.3543 29.9959C21.1548 28.8129 19.9836 25.9692 19.7761 21.3004C19.7591 20.9327 20.0505 20.6217 20.4257 20.605C20.8022 20.5906 21.1185 20.8739 21.1355 21.2415C21.318 25.3482 22.2851 27.9009 24.0084 28.8273C25.8259 29.8037 28.7487 29.1239 32.9436 26.749L37.5433 24.1463L35.4277 21.6903C33.6397 22.7545 28.1444 25.8859 25.8689 25.5671C25.4971 25.5149 25.2386 25.1772 25.2919 24.8128C25.3451 24.4485 25.6898 24.1952 26.0617 24.2474C27.6365 24.4685 32.5082 21.9169 35.2089 20.2562C35.4957 20.0807 35.871 20.1374 36.0898 20.3918L39.1067 23.8964C39.2371 24.0463 39.2915 24.2463 39.2575 24.4407C39.2224 24.6351 39.1022 24.8039 38.9276 24.9028L33.6239 27.902C30.4357 29.7071 27.9086 30.5946 25.8961 30.5946Z" fill="#F9AD32"/>
<path fill-rule="evenodd" clip-rule="evenodd" d="M37.998 24.3062C37.7871 24.3062 37.5785 24.2107 37.4458 24.0296C37.2259 23.7319 37.2939 23.3153 37.5989 23.0998C39.0705 22.0579 40.5693 19.3175 40.6793 17.2581C40.0886 17.628 39.4378 17.9479 38.9968 18.1511C38.8369 18.2245 38.6861 18.2922 38.5433 18.3567C37.0909 19.0087 36.7009 19.1842 36.2293 20.986C36.1363 21.3425 35.7667 21.558 35.4016 21.4669C35.0377 21.3747 34.8189 21.0126 34.9119 20.656C35.5184 18.3355 36.2894 17.9023 37.9764 17.1447C38.1159 17.0825 38.2633 17.0159 38.4197 16.9448C39.2678 16.5538 40.321 15.9795 40.7292 15.5374C40.8958 15.3574 41.1498 15.2797 41.3913 15.3363C41.6328 15.393 41.8244 15.5741 41.8902 15.8084C42.6192 18.4133 40.5432 22.66 38.3959 24.1796C38.2746 24.2651 38.1351 24.3062 37.998 24.3062Z" fill="#F9AD32"/>
<path fill-rule="evenodd" clip-rule="evenodd" d="M28.7034 6.91933C28.5549 6.91933 28.4052 6.87157 28.2794 6.77271C21.97 1.83401 17.9961 6.47167 17.8306 6.67162C17.5937 6.95599 17.1662 7.00042 16.8748 6.77048C16.5835 6.53943 16.537 6.12177 16.7717 5.83518C16.8216 5.77408 18.0324 4.31891 20.1741 3.58466C22.1457 2.90928 25.2987 2.73266 29.1286 5.73187C29.4222 5.96181 29.4698 6.38059 29.2363 6.66829C29.1013 6.8338 28.9029 6.91933 28.7034 6.91933Z" fill="#F9AD32"/>
<path fill-rule="evenodd" clip-rule="evenodd" d="M45.0253 56.0001H3.62255C3.4196 56.0001 3.228 55.9113 3.09875 55.758C2.9695 55.6047 2.91621 55.4036 2.95476 55.2081L6.01592 39.4645C6.07601 39.1523 6.35378 38.9246 6.67917 38.9224L17.4465 38.8446H17.4522C17.8252 38.8446 18.129 39.1401 18.1324 39.5056C18.1347 39.8744 17.832 40.1743 17.4567 40.1776L7.24718 40.2509L4.44452 54.6671H44.4652L47.4118 40.0288H43.7838C43.4074 40.0288 43.1035 39.73 43.1035 39.3623C43.1035 38.9946 43.4074 38.6958 43.7838 38.6958H48.2384C48.4424 38.6958 48.6352 38.7858 48.7644 38.9391C48.8937 39.0935 48.9458 39.2956 48.9061 39.4911L45.6919 55.4625C45.6296 55.7746 45.3495 56.0001 45.0253 56.0001Z" fill="#F9AD32"/>
<path fill-rule="evenodd" clip-rule="evenodd" d="M6.33433 42.0526H0.680257C0.304982 42.0526 0 41.7549 0 41.3861C0 41.0184 0.304982 40.7207 0.680257 40.7207H6.33433C6.7096 40.7207 7.01459 41.0184 7.01459 41.3861C7.01459 41.7549 6.7096 42.0526 6.33433 42.0526Z" fill="#F9AD32"/>
<path fill-rule="evenodd" clip-rule="evenodd" d="M9.59616 46.0271H9.55195C9.17667 46.0271 8.87169 45.7283 8.87169 45.3606C8.87169 44.9929 9.17667 44.6941 9.55195 44.6941H9.59616C9.97257 44.6941 10.2764 44.9929 10.2764 45.3606C10.2764 45.7283 9.97257 46.0271 9.59616 46.0271ZM5.5611 46.0271H0.680257C0.304982 46.0271 0 45.7283 0 45.3606C0 44.9929 0.304982 44.6941 0.680257 44.6941H5.5611C5.93638 44.6941 6.24136 44.9929 6.24136 45.3606C6.24136 45.7283 5.93638 46.0271 5.5611 46.0271Z" fill="#F9AD32"/>
<path fill-rule="evenodd" clip-rule="evenodd" d="M4.78901 50.0006H0.680257C0.304982 50.0006 0 49.7029 0 49.3352C0 48.9664 0.304982 48.6687 0.680257 48.6687H4.78901C5.16429 48.6687 5.46927 48.9664 5.46927 49.3352C5.46927 49.7029 5.16429 50.0006 4.78901 50.0006Z" fill="#F9AD32"/>
<path fill-rule="evenodd" clip-rule="evenodd" d="M4.01579 53.9751H0.680257C0.304982 53.9751 0 53.6774 0 53.3086C0 52.9409 0.304982 52.6421 0.680257 52.6421H4.01579C4.39219 52.6421 4.69718 52.9409 4.69718 53.3086C4.69718 53.6774 4.39219 53.9751 4.01579 53.9751Z" fill="#F9AD32"/>
<path fill-rule="evenodd" clip-rule="evenodd" d="M51.0753 42.0526H47.8305C47.4552 42.0526 47.1514 41.7549 47.1514 41.3861C47.1514 41.0184 47.4552 40.7207 47.8305 40.7207H51.0753C51.4506 40.7207 51.7556 41.0184 51.7556 41.3861C51.7556 41.7549 51.4506 42.0526 51.0753 42.0526Z" fill="#F9AD32"/>
<path fill-rule="evenodd" clip-rule="evenodd" d="M51.0758 46.0271H47.0316C46.6564 46.0271 46.3514 45.7283 46.3514 45.3606C46.3514 44.9929 46.6564 44.6941 47.0316 44.6941H51.0758C51.451 44.6941 51.756 44.9929 51.756 45.3606C51.756 45.7283 51.451 46.0271 51.0758 46.0271Z" fill="#F9AD32"/>
<path fill-rule="evenodd" clip-rule="evenodd" d="M51.0758 50.0006H46.2313C45.856 50.0006 45.551 49.7029 45.551 49.3352C45.551 48.9664 45.856 48.6687 46.2313 48.6687H51.0758C51.4511 48.6687 51.7561 48.9664 51.7561 49.3352C51.7561 49.7029 51.4511 50.0006 51.0758 50.0006Z" fill="#F9AD32"/>
<path fill-rule="evenodd" clip-rule="evenodd" d="M51.0758 53.9751H45.432C45.0556 53.9751 44.7517 53.6774 44.7517 53.3086C44.7517 52.9409 45.0556 52.6421 45.432 52.6421H51.0747C51.4511 52.6421 51.755 52.9409 51.755 53.3086C51.755 53.6774 51.4511 53.9751 51.0758 53.9751Z" fill="#F9AD32"/>
<path d="M24.0372 12.4224C27.0663 11.9368 29.3848 9.35481 29.3848 6.25279C29.3848 2.80481 26.5221 0 23.0029 0C19.4848 0 16.6221 2.80481 16.6221 6.25279C16.6221 7.73304 17.1498 9.09488 18.0308 10.167V8.33139H18.452C18.1502 7.69963 17.9815 6.99514 17.9815 6.25279C17.9815 3.54018 20.2342 1.33298 23.0029 1.33298C25.7715 1.33298 28.0243 3.54018 28.0243 6.25279C28.0243 8.61813 26.3114 10.5992 24.0372 11.0676V12.4224Z" fill="#F9AD32"/>
<path d="M18.9724 9.12795L18.3159 8.06156L17.5372 6.5105V14.1633H18.9884V11.5665H18.9724V9.12795Z" fill="#F9AD32"/>
<path d="M23.7807 11.1496L23.1911 11.2607L22.9578 15.4069L24.3991 15.5728L24.5856 10.9405L24.1124 11.0719L23.7807 11.1496Z" fill="#F9AD32"/>
<path d="M43.2923 47.651C45.6016 47.651 47.8163 46.7522 49.4492 45.1523C51.0822 43.5524 51.9995 41.3825 51.9995 39.1199C51.9995 36.8574 51.0822 34.6875 49.4492 33.0876C47.8163 31.4877 45.6016 30.5889 43.2923 30.5889C40.9829 30.5889 38.7682 31.4877 37.1353 33.0876C35.5023 34.6875 34.585 36.8574 34.585 39.1199C34.585 41.3825 35.5023 43.5524 37.1353 45.1523C38.7682 46.7522 40.9829 47.651 43.2923 47.651Z" fill="#F9AD32"/>
<path d="M39.8098 39.2217L42.0242 41.2529L46.8132 36.5608" stroke="black" stroke-width="2" stroke-linecap="round"/>
</svg>
