<svg width="16" height="16" viewBox="0 0 16 16" fill="none" xmlns="http://www.w3.org/2000/svg">
<g clip-path="url(#clip0_293_993)">
<path fill-rule="evenodd" clip-rule="evenodd" d="M7.5 2.02666V0.5C7.5 0.224 7.724 0 8 0C8.276 0 8.5 0.224 8.5 0.5V2.02652C10.8394 2.27647 12.6673 4.262 12.6673 6.66667V8.52533C12.6673 9.84467 13.2453 11.09 14.2527 11.942C14.5187 12.1687 14.6673 12.492 14.6673 12.8333C14.6673 13.4767 14.144 14 13.5007 14H10.4498C10.2176 15.1398 9.20748 16 8 16C6.79252 16 5.78243 15.1398 5.55021 14H2.50065C1.85732 14 1.33398 13.4767 1.33398 12.8333C1.33398 12.492 1.48265 12.1687 1.74198 11.9467C2.75598 11.09 3.33398 9.84467 3.33398 8.52533V6.66667C3.33398 4.26244 5.16123 2.2772 7.5 2.02666ZM14.834 7.16666C14.558 7.16666 14.334 6.94266 14.334 6.66666C14.334 4.75199 13.5887 2.95266 12.2354 1.59866C12.04 1.40333 12.04 1.08666 12.2354 0.891327C12.4307 0.695994 12.7474 0.695994 12.9427 0.891327C14.4847 2.43399 15.334 4.48533 15.334 6.66666C15.334 6.94266 15.11 7.16666 14.834 7.16666ZM1.16699 7.16667C0.890992 7.16667 0.666992 6.94267 0.666992 6.66667C0.666992 4.48533 1.51633 2.434 3.05899 0.891999C3.25433 0.696665 3.57099 0.696665 3.76633 0.891999C3.96166 1.08733 3.96166 1.404 3.76633 1.59933C2.41233 2.95267 1.66699 4.752 1.66699 6.66667C1.66699 6.94267 1.44299 7.16667 1.16699 7.16667ZM8 15C8.65209 15 9.20809 14.5821 9.41438 14H6.58562C6.79191 14.5821 7.34791 15 8 15ZM13.5007 13H10H6H2.50065C2.40998 13 2.33398 12.924 2.33398 12.8333C2.33398 12.7667 2.37065 12.7253 2.39398 12.7053C3.62665 11.6633 4.33398 10.1393 4.33398 8.52533V6.66667C4.33398 4.64467 5.97865 3 8.00065 3C10.0227 3 11.6673 4.64467 11.6673 6.66667V8.52533C11.6673 10.1393 12.3747 11.6633 13.6087 12.7067C13.6307 12.7253 13.6673 12.7667 13.6673 12.8333C13.6673 12.924 13.5913 13 13.5007 13Z" fill="#858585" fill-opacity="0.5"/>
</g>
<defs>
<clipPath id="clip0_293_993">
<rect width="16" height="16" fill="white"/>
</clipPath>
</defs>
</svg>
