<svg width="509" height="484" viewBox="0 0 509 484" fill="none" xmlns="http://www.w3.org/2000/svg">
<path fill-rule="evenodd" clip-rule="evenodd" d="M254.453 0L333.044 159.258L254.453 267.681V0Z" fill="url(#paint0_linear_3146_5646)"/>
<path fill-rule="evenodd" clip-rule="evenodd" d="M254.453 0V267.681L175.861 159.258L254.453 0Z" fill="url(#paint1_linear_3146_5646)"/>
<path fill-rule="evenodd" clip-rule="evenodd" d="M175.861 159.258L254.453 267.681L0 184.938L175.861 159.258Z" fill="url(#paint2_linear_3146_5646)"/>
<path fill-rule="evenodd" clip-rule="evenodd" d="M0 184.938L254.453 267.681L127.351 308.912L0 184.938Z" fill="url(#paint3_linear_3146_5646)"/>
<path fill-rule="evenodd" clip-rule="evenodd" d="M254.453 267.681L254.453 401.257L97.2705 483.999L254.453 267.681Z" fill="url(#paint4_linear_3146_5646)"/>
<path fill-rule="evenodd" clip-rule="evenodd" d="M254.453 267.681L97.2705 483.999L127.351 308.912L254.453 267.681Z" fill="url(#paint5_linear_3146_5646)"/>
<path fill-rule="evenodd" clip-rule="evenodd" d="M254.453 267.681L411.636 483.999L254.453 401.257L254.453 267.681Z" fill="url(#paint6_linear_3146_5646)"/>
<path fill-rule="evenodd" clip-rule="evenodd" d="M381.804 308.912L411.636 483.999L254.453 267.681L381.804 308.912Z" fill="url(#paint7_linear_3146_5646)"/>
<path fill-rule="evenodd" clip-rule="evenodd" d="M254.453 267.681L508.906 184.938L381.804 308.912L254.453 267.681Z" fill="url(#paint8_linear_3146_5646)"/>
<path fill-rule="evenodd" clip-rule="evenodd" d="M333.044 159.258L508.906 184.938L254.453 267.681L333.044 159.258Z" fill="url(#paint9_linear_3146_5646)"/>
<defs>
<linearGradient id="paint0_linear_3146_5646" x1="258.45" y1="-11.6656" x2="257.582" y2="406.581" gradientUnits="userSpaceOnUse">
<stop stop-color="#BEBEBE"/>
<stop offset="1" stop-color="#777777"/>
</linearGradient>
<linearGradient id="paint1_linear_3146_5646" x1="258.45" y1="-11.6656" x2="257.582" y2="406.581" gradientUnits="userSpaceOnUse">
<stop stop-color="#BEBEBE"/>
<stop offset="1" stop-color="#878887"/>
</linearGradient>
<linearGradient id="paint2_linear_3146_5646" x1="387.344" y1="253.897" x2="-44.9481" y2="277.929" gradientUnits="userSpaceOnUse">
<stop stop-color="#7C7C7C"/>
<stop offset="1" stop-color="#717070"/>
</linearGradient>
<linearGradient id="paint3_linear_3146_5646" x1="457.953" y1="260.182" x2="338.953" y2="129.948" gradientUnits="userSpaceOnUse">
<stop stop-color="#878887"/>
<stop offset="1" stop-color="#777777"/>
</linearGradient>
<linearGradient id="paint4_linear_3146_5646" x1="457.953" y1="260.182" x2="338.953" y2="129.948" gradientUnits="userSpaceOnUse">
<stop stop-color="#878887"/>
<stop offset="1" stop-color="#777777"/>
</linearGradient>
<linearGradient id="paint5_linear_3146_5646" x1="387.344" y1="253.897" x2="-44.9481" y2="277.929" gradientUnits="userSpaceOnUse">
<stop stop-color="#7C7C7C"/>
<stop offset="1" stop-color="#717070"/>
</linearGradient>
<linearGradient id="paint6_linear_3146_5646" x1="407" y1="450.527" x2="-14.6801" y2="243.767" gradientUnits="userSpaceOnUse">
<stop stop-color="#878887"/>
<stop offset="1" stop-color="#636363"/>
</linearGradient>
<linearGradient id="paint7_linear_3146_5646" x1="387.344" y1="253.897" x2="-44.9481" y2="277.929" gradientUnits="userSpaceOnUse">
<stop stop-color="#7C7C7C"/>
<stop offset="1" stop-color="#717070"/>
</linearGradient>
<linearGradient id="paint8_linear_3146_5646" x1="387.344" y1="253.897" x2="-44.9481" y2="277.929" gradientUnits="userSpaceOnUse">
<stop stop-color="#7C7C7C"/>
<stop offset="1" stop-color="#717070"/>
</linearGradient>
<linearGradient id="paint9_linear_3146_5646" x1="457.953" y1="260.182" x2="338.953" y2="129.948" gradientUnits="userSpaceOnUse">
<stop stop-color="#878887"/>
<stop offset="1" stop-color="#777777"/>
</linearGradient>
</defs>
</svg>
