<?xml version="1.0" encoding="UTF-8"?>
<!DOCTYPE svg PUBLIC "-//W3C//DTD SVG 1.1//EN" "http://www.w3.org/Graphics/SVG/1.1/DTD/svg11.dtd">
<!-- Creator: CorelDRAW -->
<svg xmlns="http://www.w3.org/2000/svg" xml:space="preserve" width="163px" height="155px" version="1.1" style="shape-rendering:geometricPrecision; text-rendering:geometricPrecision; image-rendering:optimizeQuality; fill-rule:evenodd; clip-rule:evenodd"
viewBox="0 0 81.29 77.31"
 xmlns:xlink="http://www.w3.org/1999/xlink"
 xmlns:xodm="http://www.corel.com/coreldraw/odm/2003">
 <defs>
  <style type="text/css">
   <![CDATA[
    .fil8 {fill:url(#id0)}
    .fil5 {fill:url(#id1)}
    .fil2 {fill:url(#id2)}
    .fil19 {fill:url(#id3)}
    .fil6 {fill:url(#id4)}
    .fil13 {fill:url(#id5)}
    .fil16 {fill:url(#id6)}
    .fil17 {fill:url(#id7)}
    .fil10 {fill:url(#id8)}
    .fil0 {fill:url(#id9)}
    .fil15 {fill:url(#id10)}
    .fil1 {fill:url(#id11)}
    .fil11 {fill:url(#id12)}
    .fil18 {fill:url(#id13)}
    .fil9 {fill:url(#id14)}
    .fil4 {fill:url(#id15)}
    .fil12 {fill:url(#id16)}
    .fil3 {fill:url(#id17)}
    .fil7 {fill:url(#id18)}
    .fil14 {fill:url(#id19)}
   ]]>
  </style>
  <linearGradient id="id0" gradientUnits="userSpaceOnUse" x1="50.91" y1="47.45" x2="71.48" y2="24.3">
   <stop offset="0" style="stop-opacity:1; stop-color:#818282"/>
   <stop offset="1" style="stop-opacity:1; stop-color:#777777"/>
  </linearGradient>
  <linearGradient id="id1" gradientUnits="userSpaceOnUse" x1="30.94" y1="34.52" x2="-3.17" y2="38.76">
   <stop offset="0" style="stop-opacity:1; stop-color:#7C7C7C"/>
   <stop offset="1" style="stop-opacity:1; stop-color:#717070"/>
  </linearGradient>
  <linearGradient id="id2" gradientUnits="userSpaceOnUse" xlink:href="#id0" x1="55.02" y1="72.58" x2="50.88" y2="43.95">
  </linearGradient>
  <linearGradient id="id3" gradientUnits="userSpaceOnUse" x1="46.47" y1="2.79" x2="46.22" y2="36.49">
   <stop offset="0" style="stop-opacity:1; stop-color:#BEBEBE"/>
   <stop offset="1" style="stop-opacity:1; stop-color:#878887"/>
  </linearGradient>
  <linearGradient id="id4" gradientUnits="userSpaceOnUse" xlink:href="#id1" x1="30.66" y1="43.4" x2="25.7" y2="75.43">
  </linearGradient>
  <linearGradient id="id5" gradientUnits="userSpaceOnUse" x1="78.66" y1="24.97" x2="39.55" y2="36.93">
   <stop offset="0" style="stop-opacity:1; stop-color:#A3A3A2"/>
   <stop offset="1" style="stop-opacity:1; stop-color:#818282"/>
  </linearGradient>
  <linearGradient id="id6" gradientUnits="userSpaceOnUse" xlink:href="#id0" x1="11.25" y1="72.73" x2="36.21" y2="40.44">
  </linearGradient>
  <linearGradient id="id7" gradientUnits="userSpaceOnUse" xlink:href="#id1" x1="61.75" y1="77.16" x2="30.62" y2="40.76">
  </linearGradient>
  <linearGradient id="id8" gradientUnits="userSpaceOnUse" xlink:href="#id1" x1="-1.8" y1="33.82" x2="39.37" y2="48.61">
  </linearGradient>
  <linearGradient id="id9" gradientUnits="userSpaceOnUse" x1="32.51" y1="47.97" x2="10.7" y2="27.1">
   <stop offset="0" style="stop-opacity:1; stop-color:#878887"/>
   <stop offset="1" style="stop-opacity:1; stop-color:#777777"/>
  </linearGradient>
  <linearGradient id="id10" gradientUnits="userSpaceOnUse" xlink:href="#id9" x1="8.25" y1="29.71" x2="46.33" y2="37.04">
  </linearGradient>
  <linearGradient id="id11" gradientUnits="userSpaceOnUse" xlink:href="#id5" x1="42" y1="53.37" x2="13.48" y2="67.01">
  </linearGradient>
  <linearGradient id="id12" gradientUnits="userSpaceOnUse" xlink:href="#id1" x1="12.7" y1="73.25" x2="40.23" y2="52.8">
  </linearGradient>
  <linearGradient id="id13" gradientUnits="userSpaceOnUse" xlink:href="#id0" x1="85.62" y1="32.44" x2="46.26" y2="47.11">
  </linearGradient>
  <linearGradient id="id14" gradientUnits="userSpaceOnUse" xlink:href="#id9" x1="50.58" y1="36.84" x2="32.59" y2="8.83">
  </linearGradient>
  <linearGradient id="id15" gradientUnits="userSpaceOnUse" xlink:href="#id9" x1="32.65" y1="36.38" x2="49.5" y2="4.76">
  </linearGradient>
  <linearGradient id="id16" gradientUnits="userSpaceOnUse" xlink:href="#id5" x1="64.57" y1="76.55" x2="48.1" y2="41.93">
  </linearGradient>
  <linearGradient id="id17" gradientUnits="userSpaceOnUse" xlink:href="#id3" x1="72.48" y1="38.28" x2="41.47" y2="32.49">
  </linearGradient>
  <linearGradient id="id18" gradientUnits="userSpaceOnUse" xlink:href="#id5" x1="76.06" y1="69.63" x2="49.5" y2="58.46">
  </linearGradient>
  <linearGradient id="id19" gradientUnits="userSpaceOnUse" xlink:href="#id0" x1="34.13" y1="-0.37" x2="36.19" y2="40.92">
  </linearGradient>
 </defs>
 <g id="Layer_x0020_1">
  <metadata id="CorelCorpID_0Corel-Layer"/>
  <g id="_1763911153552">
   <polygon class="fil0" points="0,29.53 40.65,42.74 20.33,49.34 "/>
   <polygon class="fil1" points="40.65,42.74 40.65,64.1 15.53,77.31 "/>
   <polygon class="fil2" points="60.96,49.34 65.76,77.31 40.65,42.74 "/>
   <polygon class="fil3" points="81.29,29.53 40.65,42.74 53.21,25.45 "/>
   <polygon class="fil4" points="40.65,0 40.65,42.74 28.09,25.45 "/>
   <polygon class="fil5" points="40.65,42.74 0,29.53 28.09,25.45 "/>
   <polygon class="fil6" points="40.65,42.74 15.53,77.31 20.33,49.34 "/>
   <polygon class="fil7" points="40.65,42.74 40.65,64.1 65.76,77.31 "/>
   <polygon class="fil8" points="81.29,29.53 60.96,49.34 40.65,42.74 "/>
   <polygon class="fil9" points="40.65,0 53.21,25.45 40.65,42.74 "/>
   <polygon class="fil10" points="40.65,42.73 40.65,42.74 22.11,48.76 3.56,30.68 "/>
   <polygon class="fil11" points="40.65,42.74 40.65,62.23 17.72,74.28 "/>
   <polygon class="fil12" points="59.19,48.76 63.57,74.28 40.65,42.74 "/>
   <polygon class="fil13" points="77.73,30.68 40.65,42.73 52.11,26.96 "/>
   <polygon class="fil14" points="40.65,3.73 40.65,42.73 29.18,26.96 "/>
   <polygon class="fil15" points="40.65,42.73 3.56,30.68 29.18,26.96 "/>
   <polygon class="fil16" points="40.65,42.74 17.72,74.28 22.11,48.76 "/>
   <polygon class="fil17" points="40.65,42.74 63.57,74.28 40.65,62.23 "/>
   <polygon class="fil18" points="40.65,42.73 40.65,42.74 59.19,48.76 77.73,30.68 "/>
   <polygon class="fil19" points="40.65,3.73 40.65,42.73 52.11,26.96 "/>
  </g>
 </g>
</svg>
