<svg width="18" height="18" viewBox="0 0 18 18" fill="none" xmlns="http://www.w3.org/2000/svg">
<g clip-path="url(#clip0_289_945)">
<path d="M6 9.66667C5.40666 9.66667 4.82664 9.49072 4.33329 9.16108C3.83994 8.83143 3.45542 8.3629 3.22836 7.81472C3.0013 7.26654 2.94189 6.66334 3.05764 6.0814C3.1734 5.49945 3.45912 4.96491 3.87868 4.54535C4.29824 4.12579 4.83279 3.84007 5.41473 3.72431C5.99667 3.60856 6.59987 3.66797 7.14805 3.89503C7.69623 4.12209 8.16476 4.50661 8.49441 4.99996C8.82405 5.4933 9 6.07332 9 6.66667C8.99912 7.46205 8.68276 8.2246 8.12035 8.78701C7.55793 9.34943 6.79538 9.66579 6 9.66667ZM6 5C5.67036 5 5.34813 5.09775 5.07405 5.28089C4.79997 5.46402 4.58635 5.72432 4.4602 6.02886C4.33405 6.33341 4.30105 6.66852 4.36536 6.99182C4.42967 7.31512 4.5884 7.61209 4.82149 7.84518C5.05458 8.07827 5.35155 8.237 5.67485 8.30131C5.99815 8.36562 6.33326 8.33261 6.63781 8.20647C6.94235 8.08032 7.20265 7.8667 7.38578 7.59262C7.56892 7.31854 7.66667 6.9963 7.66667 6.66667C7.66667 6.22464 7.49107 5.80072 7.17851 5.48816C6.86595 5.1756 6.44203 5 6 5ZM11 14.3333C10.9989 13.4496 10.6474 12.6024 10.0225 11.9775C9.39763 11.3526 8.5504 11.0011 7.66667 11H4.33333C3.4496 11.0011 2.60237 11.3526 1.97748 11.9775C1.35259 12.6024 1.00106 13.4496 1 14.3333L1 17H2.33333V14.3333C2.33333 13.8029 2.54405 13.2942 2.91912 12.9191C3.29419 12.544 3.8029 12.3333 4.33333 12.3333H7.66667C8.1971 12.3333 8.70581 12.544 9.08088 12.9191C9.45595 13.2942 9.66667 13.8029 9.66667 14.3333V17H11V14.3333ZM12.6667 7C12.0733 7 11.4933 6.82405 11 6.49441C10.5066 6.16477 10.1221 5.69623 9.89503 5.14805C9.66796 4.59987 9.60855 3.99667 9.72431 3.41473C9.84007 2.83279 10.1258 2.29824 10.5453 1.87868C10.9649 1.45912 11.4995 1.1734 12.0814 1.05765C12.6633 0.94189 13.2665 1.0013 13.8147 1.22836C14.3629 1.45543 14.8314 1.83994 15.1611 2.33329C15.4907 2.82664 15.6667 3.40666 15.6667 4C15.6658 4.79538 15.3494 5.55793 14.787 6.12035C14.2246 6.68277 13.462 6.99912 12.6667 7ZM12.6667 2.33333C12.337 2.33333 12.0148 2.43108 11.7407 2.61422C11.4666 2.79735 11.253 3.05765 11.1269 3.3622C11.0007 3.66674 10.9677 4.00185 11.032 4.32515C11.0963 4.64845 11.2551 4.94543 11.4882 5.17851C11.7212 5.4116 12.0182 5.57033 12.3415 5.63464C12.6648 5.69895 12.9999 5.66595 13.3045 5.5398C13.609 5.41365 13.8693 5.20003 14.0525 4.92595C14.2356 4.65187 14.3333 4.32964 14.3333 4C14.3333 3.55797 14.1577 3.13405 13.8452 2.82149C13.5326 2.50893 13.1087 2.33333 12.6667 2.33333ZM17 11.6667C16.9989 10.7829 16.6474 9.93571 16.0225 9.31081C15.3976 8.68592 14.5504 8.33439 13.6667 8.33333H11V9.66667H13.6667C14.1971 9.66667 14.7058 9.87738 15.0809 10.2525C15.456 10.6275 15.6667 11.1362 15.6667 11.6667V14.3333H17V11.6667Z" fill="#858585" fill-opacity="0.5"/>
</g>
<defs>
<clipPath id="clip0_289_945">
<rect width="16" height="16" fill="white" transform="translate(1 1)"/>
</clipPath>
</defs>
</svg>
