<svg width="18" height="19" viewBox="0 0 18 19" fill="none" xmlns="http://www.w3.org/2000/svg">
<g clip-path="url(#clip0_2206_1712)">
<path d="M13.0625 8.6875C13.4077 8.6875 13.6875 8.40768 13.6875 8.0625C13.6875 7.71732 13.4077 7.4375 13.0625 7.4375C12.7173 7.4375 12.4375 7.71732 12.4375 8.0625C12.4375 8.40768 12.7173 8.6875 13.0625 8.6875Z" fill="#858585" fill-opacity="0.5"/>
<path d="M14.5 2.75H13.6875V2.125C13.6875 1.77981 13.4077 1.5 13.0625 1.5C12.7173 1.5 12.4375 1.77981 12.4375 2.125V2.75H9.59375V2.125C9.59375 1.77981 9.31394 1.5 8.96875 1.5C8.62356 1.5 8.34375 1.77981 8.34375 2.125V2.75H5.53125V2.125C5.53125 1.77981 5.25144 1.5 4.90625 1.5C4.56106 1.5 4.28125 1.77981 4.28125 2.125V2.75H3.5C2.1215 2.75 1 3.8715 1 5.25V15C1 16.3785 2.1215 17.5 3.5 17.5H8.28125C8.62644 17.5 8.90625 17.2202 8.90625 16.875C8.90625 16.5298 8.62644 16.25 8.28125 16.25H3.5C2.81075 16.25 2.25 15.6892 2.25 15V5.25C2.25 4.56075 2.81075 4 3.5 4H4.28125V4.625C4.28125 4.97019 4.56106 5.25 4.90625 5.25C5.25144 5.25 5.53125 4.97019 5.53125 4.625V4H8.34375V4.625C8.34375 4.97019 8.62356 5.25 8.96875 5.25C9.31394 5.25 9.59375 4.97019 9.59375 4.625V4H12.4375V4.625C12.4375 4.97019 12.7173 5.25 13.0625 5.25C13.4077 5.25 13.6875 4.97019 13.6875 4.625V4H14.5C15.1892 4 15.75 4.56075 15.75 5.25V8.8125C15.75 9.15769 16.0298 9.4375 16.375 9.4375C16.7202 9.4375 17 9.15769 17 8.8125V5.25C17 3.8715 15.8785 2.75 14.5 2.75Z" fill="#858585" fill-opacity="0.5"/>
<path d="M13.2188 9.9375C11.1337 9.9375 9.4375 11.6337 9.4375 13.7188C9.4375 15.8038 11.1337 17.5 13.2188 17.5C15.3038 17.5 17 15.8038 17 13.7188C17 11.6337 15.3038 9.9375 13.2188 9.9375ZM13.2188 16.25C11.823 16.25 10.6875 15.1145 10.6875 13.7188C10.6875 12.323 11.823 11.1875 13.2188 11.1875C14.6145 11.1875 15.75 12.323 15.75 13.7188C15.75 15.1145 14.6145 16.25 13.2188 16.25Z" fill="#858585" fill-opacity="0.5"/>
<path d="M14.125 13.0938H13.8438V12.4375C13.8438 12.0923 13.5639 11.8125 13.2188 11.8125C12.8736 11.8125 12.5938 12.0923 12.5938 12.4375V13.7188C12.5938 14.0639 12.8736 14.3438 13.2188 14.3438H14.125C14.4702 14.3438 14.75 14.0639 14.75 13.7188C14.75 13.3736 14.4702 13.0938 14.125 13.0938Z" fill="#858585" fill-opacity="0.5"/>
<path d="M10.3438 8.6875C10.6889 8.6875 10.9688 8.40768 10.9688 8.0625C10.9688 7.71732 10.6889 7.4375 10.3438 7.4375C9.99857 7.4375 9.71875 7.71732 9.71875 8.0625C9.71875 8.40768 9.99857 8.6875 10.3438 8.6875Z" fill="#858585" fill-opacity="0.5"/>
<path d="M7.625 11.4062C7.97018 11.4062 8.25 11.1264 8.25 10.7812C8.25 10.4361 7.97018 10.1562 7.625 10.1562C7.27982 10.1562 7 10.4361 7 10.7812C7 11.1264 7.27982 11.4062 7.625 11.4062Z" fill="#858585" fill-opacity="0.5"/>
<path d="M4.90625 8.6875C5.25143 8.6875 5.53125 8.40768 5.53125 8.0625C5.53125 7.71732 5.25143 7.4375 4.90625 7.4375C4.56107 7.4375 4.28125 7.71732 4.28125 8.0625C4.28125 8.40768 4.56107 8.6875 4.90625 8.6875Z" fill="#858585" fill-opacity="0.5"/>
<path d="M4.90625 11.4062C5.25143 11.4062 5.53125 11.1264 5.53125 10.7812C5.53125 10.4361 5.25143 10.1562 4.90625 10.1562C4.56107 10.1562 4.28125 10.4361 4.28125 10.7812C4.28125 11.1264 4.56107 11.4062 4.90625 11.4062Z" fill="#858585" fill-opacity="0.5"/>
<path d="M4.90625 14.125C5.25143 14.125 5.53125 13.8452 5.53125 13.5C5.53125 13.1548 5.25143 12.875 4.90625 12.875C4.56107 12.875 4.28125 13.1548 4.28125 13.5C4.28125 13.8452 4.56107 14.125 4.90625 14.125Z" fill="#858585" fill-opacity="0.5"/>
<path d="M7.625 14.125C7.97018 14.125 8.25 13.8452 8.25 13.5C8.25 13.1548 7.97018 12.875 7.625 12.875C7.27982 12.875 7 13.1548 7 13.5C7 13.8452 7.27982 14.125 7.625 14.125Z" fill="#858585" fill-opacity="0.5"/>
<path d="M7.625 8.6875C7.97018 8.6875 8.25 8.40768 8.25 8.0625C8.25 7.71732 7.97018 7.4375 7.625 7.4375C7.27982 7.4375 7 7.71732 7 8.0625C7 8.40768 7.27982 8.6875 7.625 8.6875Z" fill="#858585" fill-opacity="0.5"/>
</g>
<defs>
<clipPath id="clip0_2206_1712">
<rect width="16" height="16" fill="white" transform="translate(1 1.5)"/>
</clipPath>
</defs>
</svg>
