<svg width="16" height="16" viewBox="0 0 16 16" fill="none" xmlns="http://www.w3.org/2000/svg">
<g clip-path="url(#clip0_2206_1785)">
<path d="M8.36921 16C8.14426 15.9998 7.92309 15.9421 7.72669 15.8325L5.17914 14.4171C3.91284 13.7131 2.8577 12.6834 2.12294 11.4347C1.38818 10.186 1.00049 8.76359 1 7.31473V3.38768C0.999849 3.06075 1.12098 2.74538 1.33996 2.50261C1.55893 2.25985 1.86018 2.10694 2.18539 2.07349C3.19882 1.96606 4.19623 1.74065 5.15736 1.40184C6.03832 1.09057 6.88336 0.685742 7.67801 0.194303C7.88605 0.0672327 8.12547 0 8.36924 0C8.61302 0 8.85207 0.0672327 9.0601 0.194303C9.8549 0.685671 10.7 1.09049 11.5811 1.40184C12.5422 1.74066 13.5396 1.96608 14.553 2.07351C14.8782 2.10696 15.1795 2.25987 15.3985 2.50263C15.6174 2.74539 15.7386 3.06075 15.7384 3.38768V7.31475C15.7379 8.76361 15.3502 10.186 14.6155 11.4347C13.8807 12.6835 12.8256 13.7131 11.5593 14.4172L9.01173 15.8325C8.81533 15.9421 8.59416 15.9998 8.36921 16ZM8.27436 1.15898C7.41046 1.69262 6.49196 2.13231 5.53453 2.47057C4.4902 2.8392 3.40628 3.0842 2.30492 3.20055C2.25811 3.20456 2.21451 3.22603 2.18279 3.26069C2.15108 3.29536 2.13356 3.34069 2.13372 3.38768V7.31475C2.13417 8.56141 2.46778 9.78529 3.10002 10.8597C3.73227 11.9342 4.64017 12.8201 5.72976 13.4259L8.27732 14.8412C8.30531 14.8571 8.33698 14.8655 8.36921 14.8655C8.40144 14.8655 8.43311 14.8571 8.4611 14.8412L11.0087 13.4259C12.0983 12.8201 13.0062 11.9342 13.6384 10.8597C14.2706 9.78529 14.6043 8.56141 14.6047 7.31475V3.38768C14.6049 3.34069 14.5873 3.29536 14.5556 3.2607C14.5239 3.22603 14.4803 3.20457 14.4335 3.20057C13.3321 3.08422 12.2482 2.83922 11.2039 2.47059C10.2464 2.13233 9.32792 1.69262 8.46402 1.15898C8.43544 1.1416 8.40262 1.1324 8.36917 1.1324C8.33571 1.1324 8.30295 1.1416 8.27436 1.15898Z" fill="#C2C2C2"/>
<path d="M10.2587 11.9509H6.47958C6.02871 11.9504 5.59644 11.771 5.27763 11.4522C4.95881 11.1334 4.77948 10.7011 4.77899 10.2503V7.98281C4.77948 7.53194 4.95881 7.09968 5.27763 6.78086C5.59644 6.46205 6.02871 6.28272 6.47958 6.28223H10.2587C10.7095 6.28272 11.1418 6.46205 11.4606 6.78086C11.7794 7.09968 11.9588 7.53194 11.9592 7.98281V10.2503C11.9588 10.7011 11.7794 11.1334 11.4606 11.4522C11.1418 11.771 10.7095 11.9504 10.2587 11.9509ZM6.47958 7.41595C6.32929 7.41612 6.1852 7.47589 6.07893 7.58216C5.97266 7.68844 5.91288 7.83252 5.91272 7.98281V10.2503C5.91288 10.4006 5.97266 10.5446 6.07893 10.6509C6.1852 10.7572 6.32929 10.817 6.47958 10.8171H10.2587C10.409 10.817 10.553 10.7572 10.6593 10.6509C10.7656 10.5446 10.8254 10.4006 10.8255 10.2503V7.98281C10.8254 7.83252 10.7656 7.68844 10.6593 7.58216C10.553 7.47589 10.409 7.41612 10.2587 7.41595H6.47958Z" fill="#C2C2C2"/>
<path d="M9.88096 7.41578H6.85769C6.70737 7.41574 6.56321 7.356 6.45691 7.24971C6.35061 7.14341 6.29087 6.99925 6.29083 6.84892V5.33728C6.29083 4.78603 6.50982 4.25736 6.89961 3.86757C7.2894 3.47777 7.81808 3.25879 8.36933 3.25879C8.92058 3.25879 9.44925 3.47777 9.83905 3.86757C10.2288 4.25736 10.4478 4.78603 10.4478 5.33728V6.84892C10.4478 6.99925 10.388 7.14341 10.2817 7.24971C10.1755 7.356 10.0313 7.41574 9.88096 7.41578ZM7.42456 6.28206H9.3141V5.33728C9.3141 5.08672 9.21456 4.84641 9.03738 4.66923C8.8602 4.49205 8.6199 4.39251 8.36933 4.39251C8.11876 4.39251 7.87845 4.49205 7.70127 4.66923C7.5241 4.84641 7.42456 5.08672 7.42456 5.33728V6.28206Z" fill="#C2C2C2"/>
</g>
<defs>
<clipPath id="clip0_2206_1785">
<rect width="16" height="16" fill="white"/>
</clipPath>
</defs>
</svg>
