<svg width="47" height="46" viewBox="0 0 47 46" fill="none" xmlns="http://www.w3.org/2000/svg">
<path d="M25.0819 1.82422L30.3397 13.8164C30.5376 14.2677 30.8529 14.6575 31.2528 14.9454C31.6526 15.2333 32.1224 15.4086 32.6131 15.4531L45.4217 16.6016C46.871 16.8125 47.4491 18.5898 46.3983 19.6133L36.7499 27.7187C35.9686 28.375 35.6131 29.4062 35.828 30.4023L38.6327 43.5312C38.8788 44.9727 37.367 46.0742 36.0702 45.3906L24.8905 38.8437C24.4689 38.5961 23.9888 38.4656 23.4999 38.4656C23.0109 38.4656 22.5308 38.5961 22.1092 38.8437L10.9295 45.3867C9.63658 46.0664 8.12095 44.9687 8.36705 43.5273L11.1717 30.3984C11.3827 29.4023 11.0311 28.3711 10.2499 27.7148L0.597513 19.6172C-0.449362 18.5977 0.128763 16.8164 1.57408 16.6055L14.3827 15.457C14.8734 15.4125 15.3432 15.2372 15.743 14.9493C16.1429 14.6615 16.4582 14.2716 16.6561 13.8203L21.9139 1.82813C22.5663 0.515626 24.4335 0.515626 25.0819 1.82422Z" fill="#F9AD32"/>
</svg>
