<svg width="18" height="18" viewBox="0 0 18 18" fill="none" xmlns="http://www.w3.org/2000/svg">
<g clip-path="url(#clip0_231_1873)">
<path d="M2.3718 14.9962L3.03464 15.6591C3.52243 16.1469 4.28073 16.2003 4.82871 15.8208C6.10727 16.6067 7.56906 17 9.0311 17C10.493 17 11.9548 16.6067 13.2334 15.8208C13.7815 16.2004 14.5399 16.1466 15.0274 15.6591L15.6903 14.9962C16.1831 14.5034 16.2296 13.7448 15.8521 13.2019C17.4238 10.6449 17.4238 7.35474 15.8521 4.79773C16.2296 4.25488 16.1831 3.49622 15.6903 3.00342L15.0274 2.3407C14.5401 1.85327 13.7811 1.79956 13.2334 2.17883C10.6762 0.607056 7.38583 0.607056 4.82871 2.17883C4.28098 1.79956 3.52194 1.85327 3.03464 2.3407L2.3718 3.00342C1.879 3.49622 1.83249 4.25488 2.20993 4.79773C0.638275 7.35474 0.638275 10.645 2.20993 13.2019C1.83249 13.7448 1.87912 14.5034 2.3718 14.9962ZM3.69748 14.9962L3.03464 14.3334C2.85141 14.1503 2.85141 13.8539 3.03464 13.6707L5.68588 11.0194C5.86862 10.8367 6.16586 10.8367 6.3486 11.0194L7.01144 11.6823C7.19418 11.865 7.19418 12.1624 7.01144 12.3451C6.13168 13.2247 5.10507 14.2513 4.3602 14.9962C4.17758 15.179 3.88022 15.179 3.69748 14.9962ZM7.67429 6.98022C7.98972 6.66467 8.12326 6.23535 8.07565 5.82324C8.68991 5.64771 9.37228 5.64771 9.98654 5.82324C9.93894 6.23535 10.0725 6.66479 10.3879 6.98022L11.0508 7.64307C11.353 7.94531 11.7755 8.09436 12.2077 8.04443C12.3831 8.65869 12.3831 9.34106 12.2077 9.95532C11.7955 9.90771 11.3662 10.0413 11.0508 10.3567L10.3879 11.0195C10.0725 11.335 9.93894 11.7643 9.98654 12.1765C9.37228 12.3519 8.68991 12.3519 8.07565 12.1765C8.12326 11.7643 7.98972 11.335 7.67429 11.0195L7.01144 10.3567C6.69601 10.0413 6.26669 9.90771 5.85446 9.95532C5.67893 9.34106 5.67893 8.65869 5.85446 8.04443C6.28598 8.09436 6.70859 7.94592 7.01144 7.64307L7.67429 6.98022ZM5.53342 15.1487L7.65451 13.0276C8.09604 13.1744 8.56345 13.2482 9.0311 13.2482C9.49863 13.2482 9.96603 13.1744 10.4076 13.0276L12.5287 15.1487C10.375 16.3689 7.68723 16.3689 5.53342 15.1487ZM15.0274 14.3335L14.3647 14.9962C14.1819 15.179 13.8846 15.179 13.7019 14.9962C13.2995 14.5939 11.2713 12.5657 11.0506 12.3451C10.8679 12.1624 10.8679 11.865 11.0506 11.6823L11.7135 11.0194C11.8962 10.8367 12.1935 10.8367 12.3763 11.0194C12.5975 11.2407 14.6258 13.269 15.0274 13.6707C15.2107 13.8539 15.2107 14.1503 15.0274 14.3335ZM15.1799 12.4976L13.0588 10.3765C13.3526 9.49329 13.3526 8.50647 13.0588 7.62329L15.1799 5.5022C16.4001 7.65601 16.4001 10.3436 15.1799 12.4976ZM14.3647 3.00342L15.0274 3.66626C15.2107 3.84937 15.2107 4.14575 15.0274 4.32898C11.9469 7.40979 15.1997 4.15674 12.3763 6.98022C12.1935 7.16296 11.8962 7.16296 11.7135 6.98022L11.0506 6.31738C10.8679 6.13464 10.8679 5.83728 11.0506 5.65454L13.7019 3.00342C13.8846 2.82068 14.1819 2.82068 14.3647 3.00342ZM12.5288 2.85095L10.4077 4.97205C9.52451 4.67822 8.53769 4.67822 7.65451 4.97205L5.53342 2.85095C7.68723 1.63074 10.375 1.63074 12.5288 2.85095ZM3.03464 3.66626L3.69748 3.00342C3.88022 2.82068 4.17746 2.82068 4.3602 3.00342C5.12595 3.76917 6.20029 4.84338 7.01144 5.65466C7.19418 5.8374 7.19418 6.13477 7.01144 6.3175L6.3486 6.98022C6.16599 7.16296 5.86862 7.16309 5.68588 6.98022C5.46457 6.75903 3.43625 4.73059 3.03464 4.3291C2.85153 4.14587 2.85153 3.84949 3.03464 3.66626ZM2.88217 5.5022L5.00327 7.62329C4.70956 8.50647 4.70956 9.49329 5.00327 10.3763L2.88217 12.4974C1.66196 10.3436 1.66196 7.65601 2.88217 5.5022Z" fill="#858585" fill-opacity="0.5"/>
</g>
<defs>
<clipPath id="clip0_231_1873">
<rect width="16" height="16" fill="white" transform="translate(1 1)"/>
</clipPath>
</defs>
</svg>
