<svg width="18" height="18" viewBox="0 0 18 18" fill="none" xmlns="http://www.w3.org/2000/svg">
<g clip-path="url(#clip0_289_956)">
<path d="M9.00003 5.75391C8.57376 5.75391 8.15166 5.83787 7.75784 6.00099C7.36402 6.16412 7.00618 6.40322 6.70476 6.70464C6.40334 7.00606 6.16424 7.36389 6.00112 7.75772C5.83799 8.15154 5.75403 8.57364 5.75403 8.99991C5.75403 9.42618 5.83799 9.84827 6.00112 10.2421C6.16424 10.6359 6.40334 10.9938 6.70476 11.2952C7.00618 11.5966 7.36402 11.8357 7.75784 11.9988C8.15166 12.1619 8.57376 12.2459 9.00003 12.2459C9.86092 12.2459 10.6866 11.9039 11.2953 11.2952C11.904 10.6864 12.246 9.8608 12.246 8.99991C12.246 8.13901 11.904 7.31338 11.2953 6.70464C10.6866 6.09589 9.86092 5.75391 9.00003 5.75391ZM6.75403 8.99991C6.75403 8.40423 6.99066 7.83295 7.41187 7.41174C7.83307 6.99054 8.40435 6.75391 9.00003 6.75391C9.5957 6.75391 10.167 6.99054 10.5882 7.41174C11.0094 7.83295 11.246 8.40423 11.246 8.99991C11.246 9.59558 11.0094 10.1669 10.5882 10.5881C10.167 11.0093 9.5957 11.2459 9.00003 11.2459C8.40435 11.2459 7.83307 11.0093 7.41187 10.5881C6.99066 10.1669 6.75403 9.59558 6.75403 8.99991Z" fill="#858585" fill-opacity="0.5"/>
<path d="M10.796 2.34299C10.269 0.552988 7.73099 0.552988 7.20399 2.34299L7.10999 2.66199C7.07318 2.78694 7.00889 2.90207 6.9218 2.99895C6.83472 3.09582 6.72707 3.17198 6.60673 3.22184C6.48639 3.2717 6.35642 3.294 6.22634 3.28711C6.09627 3.28021 5.96938 3.24429 5.85499 3.18199L5.56299 3.02199C3.92299 2.12999 2.12999 3.92399 3.02299 5.56299L3.18199 5.85499C3.24429 5.96938 3.28021 6.09627 3.28711 6.22634C3.294 6.35642 3.2717 6.48639 3.22184 6.60673C3.17198 6.72707 3.09582 6.83472 2.99895 6.9218C2.90207 7.00889 2.78694 7.07318 2.66199 7.10999L2.34299 7.20399C0.552988 7.73099 0.552988 10.269 2.34299 10.796L2.66199 10.89C2.78694 10.9268 2.90207 10.9911 2.99895 11.0782C3.09582 11.1653 3.17198 11.2729 3.22184 11.3932C3.2717 11.5136 3.294 11.6436 3.28711 11.7736C3.28021 11.9037 3.24429 12.0306 3.18199 12.145L3.02199 12.437C2.12999 14.077 3.92299 15.871 5.56299 14.977L5.85499 14.818C5.96938 14.7557 6.09627 14.7198 6.22634 14.7129C6.35642 14.706 6.48639 14.7283 6.60673 14.7781C6.72707 14.828 6.83472 14.9042 6.9218 15.001C7.00889 15.0979 7.07318 15.213 7.10999 15.338L7.20399 15.657C7.73099 17.447 10.269 17.447 10.796 15.657L10.89 15.338C10.9268 15.213 10.9911 15.0979 11.0782 15.001C11.1653 14.9042 11.2729 14.828 11.3932 14.7781C11.5136 14.7283 11.6436 14.706 11.7736 14.7129C11.9037 14.7198 12.0306 14.7557 12.145 14.818L12.437 14.978C14.077 15.871 15.871 14.076 14.977 12.437L14.818 12.145C14.7557 12.0306 14.7198 11.9037 14.7129 11.7736C14.706 11.6436 14.7283 11.5136 14.7781 11.3932C14.828 11.2729 14.9042 11.1653 15.001 11.0782C15.0979 10.9911 15.213 10.9268 15.338 10.89L15.657 10.796C17.447 10.269 17.447 7.73099 15.657 7.20399L15.338 7.10999C15.213 7.07318 15.0979 7.00889 15.001 6.9218C14.9042 6.83472 14.828 6.72707 14.7781 6.60673C14.7283 6.48639 14.706 6.35642 14.7129 6.22634C14.7198 6.09627 14.7557 5.96938 14.818 5.85499L14.978 5.56299C15.871 3.92299 14.076 2.12999 12.437 3.02299L12.145 3.18199C12.0306 3.24429 11.9037 3.28021 11.7736 3.28711C11.6436 3.294 11.5136 3.2717 11.3932 3.22184C11.2729 3.17198 11.1653 3.09582 11.0782 2.99895C10.9911 2.90207 10.9268 2.78694 10.89 2.66199L10.796 2.34299ZM8.16299 2.62599C8.40899 1.79099 9.59099 1.79099 9.83699 2.62599L9.93099 2.94499C10.01 3.21307 10.148 3.46008 10.3349 3.66789C10.5218 3.8757 10.7528 4.03905 11.0111 4.14597C11.2693 4.25288 11.5482 4.30066 11.8273 4.28578C12.1064 4.2709 12.3786 4.19375 12.624 4.05999L12.915 3.89999C13.679 3.48499 14.515 4.31999 14.099 5.08499L13.94 5.37699C13.8064 5.62241 13.7295 5.89462 13.7147 6.17364C13.7 6.45267 13.7479 6.73146 13.8549 6.98957C13.9619 7.24769 14.1253 7.47859 14.3332 7.66536C14.541 7.85214 14.788 7.99005 15.056 8.06899L15.374 8.16299C16.209 8.40899 16.209 9.59099 15.374 9.83699L15.055 9.93099C14.7869 10.01 14.5399 10.148 14.3321 10.3349C14.1243 10.5218 13.9609 10.7528 13.854 11.0111C13.7471 11.2693 13.6993 11.5482 13.7142 11.8273C13.7291 12.1064 13.8062 12.3786 13.94 12.624L14.1 12.915C14.515 13.679 13.68 14.515 12.915 14.099L12.624 13.94C12.3785 13.8062 12.1062 13.7291 11.8271 13.7143C11.5479 13.6995 11.269 13.7474 11.0108 13.8544C10.7525 13.9614 10.5215 14.1249 10.3347 14.3328C10.1478 14.5407 10.0099 14.7878 9.93099 15.056L9.83699 15.374C9.59099 16.209 8.40899 16.209 8.16299 15.374L8.06899 15.055C7.98993 14.787 7.85194 14.5402 7.66512 14.3325C7.4783 14.1248 7.24738 13.9615 6.98928 13.8546C6.73118 13.7477 6.45243 13.6999 6.17346 13.7146C5.89448 13.7294 5.62235 13.8064 5.37699 13.94L5.08499 14.1C4.32099 14.515 3.48499 13.68 3.90099 12.915L4.05999 12.624C4.19394 12.3785 4.27124 12.1062 4.28621 11.827C4.30119 11.5478 4.25346 11.2688 4.14653 11.0104C4.0396 10.7521 3.87618 10.5209 3.66827 10.334C3.46035 10.147 3.21321 10.009 2.94499 9.92999L2.62599 9.83599C1.79099 9.58999 1.79099 8.40799 2.62599 8.16199L2.94499 8.06799C3.21279 7.9889 3.45953 7.85093 3.66713 7.66418C3.87473 7.47742 4.03795 7.24662 4.14484 6.98864C4.25173 6.73067 4.29959 6.45206 4.2849 6.17321C4.27022 5.89435 4.19338 5.62231 4.05999 5.37699L3.89999 5.08499C3.48499 4.32099 4.31999 3.48499 5.08499 3.90099L5.37699 4.05999C5.62235 4.19356 5.89448 4.27056 6.17346 4.28534C6.45243 4.30012 6.73118 4.25231 6.98928 4.1454C7.24738 4.0385 7.4783 3.87522 7.66512 3.66751C7.85194 3.4598 7.98993 3.21293 8.06899 2.94499L8.16299 2.62599Z" fill="#858585" fill-opacity="0.5"/>
</g>
<defs>
<clipPath id="clip0_289_956">
<rect width="16" height="16" fill="white" transform="translate(1 1)"/>
</clipPath>
</defs>
</svg>
