<svg width="509" height="484" viewBox="0 0 509 484" fill="none" xmlns="http://www.w3.org/2000/svg">
<path fill-rule="evenodd" clip-rule="evenodd" d="M254.453 0L333.044 159.258L254.453 267.681V0Z" fill="url(#paint0_linear_3146_5634)"/>
<path fill-rule="evenodd" clip-rule="evenodd" d="M254.453 0V267.681L175.861 159.258L254.453 0Z" fill="url(#paint1_linear_3146_5634)"/>
<path fill-rule="evenodd" clip-rule="evenodd" d="M175.861 159.258L254.453 267.681L0 184.938L175.861 159.258Z" fill="url(#paint2_linear_3146_5634)"/>
<path fill-rule="evenodd" clip-rule="evenodd" d="M0 184.938L254.453 267.681L127.351 308.912L0 184.938Z" fill="url(#paint3_linear_3146_5634)"/>
<path fill-rule="evenodd" clip-rule="evenodd" d="M254.453 267.681L254.453 401.257L97.2705 483.999L254.453 267.681Z" fill="url(#paint4_linear_3146_5634)"/>
<path fill-rule="evenodd" clip-rule="evenodd" d="M254.453 267.681L97.2705 483.999L127.351 308.912L254.453 267.681Z" fill="url(#paint5_linear_3146_5634)"/>
<path fill-rule="evenodd" clip-rule="evenodd" d="M254.453 267.681L411.636 483.999L254.453 401.257L254.453 267.681Z" fill="url(#paint6_linear_3146_5634)"/>
<path fill-rule="evenodd" clip-rule="evenodd" d="M381.804 308.912L411.636 483.999L254.453 267.681L381.804 308.912Z" fill="url(#paint7_linear_3146_5634)"/>
<path fill-rule="evenodd" clip-rule="evenodd" d="M254.453 267.681L508.906 184.938L381.804 308.912L254.453 267.681Z" fill="url(#paint8_linear_3146_5634)"/>
<path fill-rule="evenodd" clip-rule="evenodd" d="M333.044 159.258L508.906 184.938L254.453 267.681L333.044 159.258Z" fill="url(#paint9_linear_3146_5634)"/>
<defs>
<linearGradient id="paint0_linear_3146_5634" x1="258.607" y1="-11.8969" x2="257.715" y2="406.547" gradientUnits="userSpaceOnUse">
<stop stop-color="#E0E0E2"/>
<stop offset="1" stop-color="#A6A6A6"/>
</linearGradient>
<linearGradient id="paint1_linear_3146_5634" x1="258.607" y1="-11.8969" x2="257.715" y2="406.547" gradientUnits="userSpaceOnUse">
<stop stop-color="#E0E0E2"/>
<stop offset="1" stop-color="#BEBEBE"/>
</linearGradient>
<linearGradient id="paint2_linear_3146_5634" x1="306.764" y1="9.16293" x2="257.979" y2="463.409" gradientUnits="userSpaceOnUse">
<stop stop-color="#A0A0A0"/>
<stop offset="1" stop-color="#AFB0B0"/>
</linearGradient>
<linearGradient id="paint3_linear_3146_5634" x1="522.635" y1="192.613" x2="417.722" y2="354.633" gradientUnits="userSpaceOnUse">
<stop stop-color="#D1D0D2"/>
<stop offset="1" stop-color="#BDBCBD"/>
</linearGradient>
<linearGradient id="paint4_linear_3146_5634" x1="522.635" y1="192.613" x2="417.722" y2="354.633" gradientUnits="userSpaceOnUse">
<stop stop-color="#D1D0D2"/>
<stop offset="1" stop-color="#BDBCBD"/>
</linearGradient>
<linearGradient id="paint5_linear_3146_5634" x1="306.764" y1="9.16293" x2="257.979" y2="463.409" gradientUnits="userSpaceOnUse">
<stop stop-color="#A0A0A0"/>
<stop offset="1" stop-color="#AFB0B0"/>
</linearGradient>
<linearGradient id="paint6_linear_3146_5634" x1="522.635" y1="192.613" x2="417.722" y2="354.633" gradientUnits="userSpaceOnUse">
<stop stop-color="#D1D0D2"/>
<stop offset="1" stop-color="#BDBCBD"/>
</linearGradient>
<linearGradient id="paint7_linear_3146_5634" x1="306.764" y1="9.16293" x2="257.979" y2="463.409" gradientUnits="userSpaceOnUse">
<stop stop-color="#A0A0A0"/>
<stop offset="1" stop-color="#AFB0B0"/>
</linearGradient>
<linearGradient id="paint8_linear_3146_5634" x1="128.47" y1="437.768" x2="566.263" y2="185.24" gradientUnits="userSpaceOnUse">
<stop stop-color="#BDBCBD"/>
<stop offset="1" stop-color="#B4B4B2"/>
</linearGradient>
<linearGradient id="paint9_linear_3146_5634" x1="522.635" y1="192.613" x2="417.722" y2="354.633" gradientUnits="userSpaceOnUse">
<stop stop-color="#D1D0D2"/>
<stop offset="1" stop-color="#BDBCBD"/>
</linearGradient>
</defs>
</svg>
