<?xml version="1.0" encoding="UTF-8"?>
<!DOCTYPE svg PUBLIC "-//W3C//DTD SVG 1.1//EN" "http://www.w3.org/Graphics/SVG/1.1/DTD/svg11.dtd">
<!-- Creator: CorelDRAW -->
<svg xmlns="http://www.w3.org/2000/svg" xml:space="preserve" width="163px" height="155px" version="1.1" style="shape-rendering:geometricPrecision; text-rendering:geometricPrecision; image-rendering:optimizeQuality; fill-rule:evenodd; clip-rule:evenodd"
viewBox="0 0 34.78 33.07"
 xmlns:xlink="http://www.w3.org/1999/xlink"
 xmlns:xodm="http://www.corel.com/coreldraw/odm/2003">
 <defs>
  <style type="text/css">
   <![CDATA[
    .fil8 {fill:url(#id0)}
    .fil19 {fill:url(#id1)}
    .fil1 {fill:url(#id2)}
    .fil14 {fill:url(#id3)}
    .fil2 {fill:url(#id4)}
    .fil6 {fill:url(#id5)}
    .fil13 {fill:url(#id6)}
    .fil5 {fill:url(#id7)}
    .fil15 {fill:url(#id8)}
    .fil12 {fill:url(#id9)}
    .fil9 {fill:url(#id10)}
    .fil16 {fill:url(#id11)}
    .fil10 {fill:url(#id12)}
    .fil3 {fill:url(#id13)}
    .fil0 {fill:url(#id14)}
    .fil7 {fill:url(#id15)}
    .fil17 {fill:url(#id16)}
    .fil18 {fill:url(#id17)}
    .fil11 {fill:url(#id18)}
    .fil4 {fill:url(#id19)}
   ]]>
  </style>
  <linearGradient id="id0" gradientUnits="userSpaceOnUse" x1="21.78" y1="20.3" x2="30.58" y2="10.4">
   <stop offset="0" style="stop-opacity:1; stop-color:#BDBCBD"/>
   <stop offset="1" style="stop-opacity:1; stop-color:#B4B4B2"/>
  </linearGradient>
  <linearGradient id="id1" gradientUnits="userSpaceOnUse" x1="19.88" y1="1.19" x2="19.77" y2="15.61">
   <stop offset="0" style="stop-opacity:1; stop-color:#E0E0E2"/>
   <stop offset="1" style="stop-opacity:1; stop-color:#BEBEBE"/>
  </linearGradient>
  <linearGradient id="id2" gradientUnits="userSpaceOnUse" x1="17.97" y1="22.83" x2="5.76" y2="28.67">
   <stop offset="0" style="stop-opacity:1; stop-color:#D1D0D2"/>
   <stop offset="1" style="stop-opacity:1; stop-color:#BDBCBD"/>
  </linearGradient>
  <linearGradient id="id3" gradientUnits="userSpaceOnUse" xlink:href="#id0" x1="14.6" y1="-0.16" x2="15.48" y2="17.51">
  </linearGradient>
  <linearGradient id="id4" gradientUnits="userSpaceOnUse" xlink:href="#id0" x1="23.54" y1="31.05" x2="21.77" y2="18.8">
  </linearGradient>
  <linearGradient id="id5" gradientUnits="userSpaceOnUse" x1="13.12" y1="18.56" x2="10.99" y2="32.27">
   <stop offset="0" style="stop-opacity:1; stop-color:#B7B8B8"/>
   <stop offset="1" style="stop-opacity:1; stop-color:#AFB0B0"/>
  </linearGradient>
  <linearGradient id="id6" gradientUnits="userSpaceOnUse" xlink:href="#id2" x1="33.65" y1="10.68" x2="16.92" y2="15.8">
  </linearGradient>
  <linearGradient id="id7" gradientUnits="userSpaceOnUse" xlink:href="#id5" x1="13.24" y1="14.77" x2="-1.36" y2="16.58">
  </linearGradient>
  <linearGradient id="id8" gradientUnits="userSpaceOnUse" x1="3.53" y1="12.71" x2="19.82" y2="15.85">
   <stop offset="0" style="stop-opacity:1; stop-color:#BEBEBE"/>
   <stop offset="1" style="stop-opacity:1; stop-color:#B4B4B2"/>
  </linearGradient>
  <linearGradient id="id9" gradientUnits="userSpaceOnUse" xlink:href="#id2" x1="27.62" y1="32.75" x2="20.58" y2="17.94">
  </linearGradient>
  <linearGradient id="id10" gradientUnits="userSpaceOnUse" xlink:href="#id8" x1="21.64" y1="15.76" x2="13.94" y2="3.78">
  </linearGradient>
  <linearGradient id="id11" gradientUnits="userSpaceOnUse" xlink:href="#id0" x1="4.81" y1="31.11" x2="15.49" y2="17.3">
  </linearGradient>
  <linearGradient id="id12" gradientUnits="userSpaceOnUse" xlink:href="#id5" x1="-0.77" y1="14.47" x2="16.84" y2="20.8">
  </linearGradient>
  <linearGradient id="id13" gradientUnits="userSpaceOnUse" xlink:href="#id1" x1="31.01" y1="16.38" x2="17.74" y2="13.9">
  </linearGradient>
  <linearGradient id="id14" gradientUnits="userSpaceOnUse" xlink:href="#id8" x1="13.91" y1="20.52" x2="4.58" y2="11.59">
  </linearGradient>
  <linearGradient id="id15" gradientUnits="userSpaceOnUse" xlink:href="#id2" x1="32.54" y1="29.79" x2="21.17" y2="25.01">
  </linearGradient>
  <linearGradient id="id16" gradientUnits="userSpaceOnUse" xlink:href="#id5" x1="26.42" y1="33.01" x2="13.1" y2="17.44">
  </linearGradient>
  <linearGradient id="id17" gradientUnits="userSpaceOnUse" xlink:href="#id0" x1="36.63" y1="13.88" x2="19.79" y2="20.15">
  </linearGradient>
  <linearGradient id="id18" gradientUnits="userSpaceOnUse" xlink:href="#id5" x1="5.43" y1="31.34" x2="17.21" y2="22.59">
  </linearGradient>
  <linearGradient id="id19" gradientUnits="userSpaceOnUse" xlink:href="#id8" x1="13.97" y1="15.56" x2="21.17" y2="2.04">
  </linearGradient>
 </defs>
 <g id="Layer_x0020_1">
  <metadata id="CorelCorpID_0Corel-Layer"/>
  <g id="_1764275831392">
   <polygon class="fil0" points="0,12.63 17.39,18.28 8.7,21.11 "/>
   <polygon class="fil1" points="17.39,18.28 17.39,27.42 6.64,33.07 "/>
   <polygon class="fil2" points="26.08,21.11 28.13,33.07 17.39,18.28 "/>
   <polygon class="fil3" points="34.78,12.63 17.39,18.28 22.76,10.89 "/>
   <polygon class="fil4" points="17.39,0 17.39,18.28 12.02,10.89 "/>
   <polygon class="fil5" points="17.39,18.28 0,12.63 12.02,10.89 "/>
   <polygon class="fil6" points="17.39,18.28 6.64,33.07 8.7,21.11 "/>
   <polygon class="fil7" points="17.39,18.28 17.39,27.42 28.13,33.07 "/>
   <polygon class="fil8" points="34.78,12.63 26.08,21.11 17.39,18.28 "/>
   <polygon class="fil9" points="17.39,0 22.76,10.89 17.39,18.28 "/>
   <polygon class="fil10" points="17.39,18.28 17.39,18.28 9.46,20.86 1.52,13.13 "/>
   <polygon class="fil11" points="17.39,18.28 17.39,26.62 7.58,31.78 "/>
   <polygon class="fil12" points="25.32,20.86 27.2,31.78 17.39,18.28 "/>
   <polygon class="fil13" points="33.25,13.13 17.39,18.28 22.29,11.53 "/>
   <polygon class="fil14" points="17.39,1.6 17.39,18.28 12.49,11.53 "/>
   <polygon class="fil15" points="17.39,18.28 1.52,13.13 12.49,11.53 "/>
   <polygon class="fil16" points="17.39,18.28 7.58,31.78 9.46,20.86 "/>
   <polygon class="fil17" points="17.39,18.28 27.2,31.78 17.39,26.62 "/>
   <polygon class="fil18" points="17.39,18.28 17.39,18.28 25.32,20.86 33.25,13.13 "/>
   <polygon class="fil19" points="17.39,1.6 17.39,18.28 22.29,11.53 "/>
  </g>
 </g>
</svg>
