<svg width="14" height="14" viewBox="0 0 14 14" fill="none" xmlns="http://www.w3.org/2000/svg">
<g clip-path="url(#clip0_582_930)">
<path fill-rule="evenodd" clip-rule="evenodd" d="M2.1875 3.7208C1.60781 3.7208 1.05001 3.95138 0.640949 4.36162C0.229699 4.77209 0 5.3286 0 5.90907V8.09733C0 8.6778 0.229699 9.23431 0.640949 9.64478C1.05001 10.055 1.60781 10.2856 2.1875 10.2856H3.10843L6.48156 13.4496C6.60844 13.5689 6.79439 13.6012 6.95626 13.5318C7.11595 13.4625 7.21875 13.3047 7.21875 13.1303V0.876057C7.21875 0.701687 7.11595 0.543901 6.95626 0.474568C6.79439 0.405234 6.60844 0.437482 6.48156 0.5568L3.10843 3.7208H2.1875ZM2.1875 4.59611H3.28125C3.39281 4.59611 3.5 4.55373 3.58094 4.47771L6.34375 1.88634V12.1201L3.58094 9.52869C3.5 9.45268 3.39281 9.41029 3.28125 9.41029C3.28125 9.41029 2.77375 9.41029 2.1875 9.41029C1.83969 9.41029 1.505 9.27186 1.26 9.02585C1.01281 8.77961 0.875 8.44561 0.875 8.09733C0.875 7.40216 0.875 6.60425 0.875 5.90907C0.875 5.56079 1.01281 5.22679 1.26 4.98055C1.505 4.73455 1.83969 4.59611 2.1875 4.59611Z" fill="#F9AD32"/>
<path fill-rule="evenodd" clip-rule="evenodd" d="M11.0064 1.89552C13.8217 4.7128 13.8217 9.2873 11.0064 12.1046C10.8336 12.2752 10.8336 12.5524 11.0064 12.7232C11.1771 12.8938 11.4526 12.8938 11.6233 12.7232C14.782 9.56446 14.782 4.43564 11.6233 1.27689C11.4526 1.10627 11.1771 1.10627 11.0064 1.27689C10.8336 1.44774 10.8336 1.72489 11.0064 1.89552ZM9.61297 3.28764C11.6627 5.33668 11.6627 8.66343 9.61297 10.7125C9.44234 10.8831 9.44234 11.1602 9.61297 11.3311C9.78359 11.5019 10.0614 11.5019 10.232 11.3311C12.623 8.9408 12.623 5.0593 10.232 2.66902C10.0614 2.49818 9.78359 2.49818 9.61297 2.66902C9.44234 2.83986 9.44234 3.11702 9.61297 3.28764ZM8.22172 4.67977C9.50141 5.96033 9.50141 8.03977 8.22172 9.32033C8.05109 9.49096 8.05109 9.76833 8.22172 9.93896C8.39234 10.1098 8.66796 10.1098 8.83858 9.93896C10.4617 8.31693 10.4617 5.68318 8.83858 4.06114C8.66796 3.8903 8.39234 3.8903 8.22172 4.06114C8.05109 4.23177 8.05109 4.50914 8.22172 4.67977Z" fill="#F9AD32"/>
</g>
<defs>
<clipPath id="clip0_582_930">
<rect width="14" height="14" fill="white"/>
</clipPath>
</defs>
</svg>
