<svg width="18" height="18" viewBox="0 0 18 18" fill="none" xmlns="http://www.w3.org/2000/svg">
<g clip-path="url(#clip0_2600_2071)">
<path d="M9 17C4.58867 17 1 13.4113 1 9C1 4.58867 4.58867 1 9 1C13.4113 1 17 4.58867 17 9C17 13.4113 13.4113 17 9 17ZM9 2.33333C5.324 2.33333 2.33333 5.324 2.33333 9C2.33333 12.676 5.324 15.6667 9 15.6667C12.676 15.6667 15.6667 12.676 15.6667 9C15.6667 5.324 12.676 2.33333 9 2.33333ZM12.3333 8.33333H9.66667V4.33333H8.33333V9.66667H12.3333V8.33333Z" fill="#858585" fill-opacity="0.5"/>
</g>
<defs>
<clipPath id="clip0_2600_2071">
<rect width="16" height="16" fill="white" transform="translate(1 1)"/>
</clipPath>
</defs>
</svg>
