<svg width="274" height="310" viewBox="0 0 274 310" fill="none" xmlns="http://www.w3.org/2000/svg">
<path d="M15.6118 288.732V191.188C15.6118 110.438 62.9804 37.1977 136.626 4.07812L136.943 4.22027C210.82 37.2401 258.388 110.601 258.388 191.523V288.732H15.6118Z" fill="#E4EBFF"/>
<path d="M133.558 113.562C153.716 113.562 170.056 97.2209 170.056 77.0635C170.056 56.9061 153.716 40.5653 133.558 40.5653C113.401 40.5653 97.06 56.9061 97.06 77.0635C97.06 97.2209 113.401 113.562 133.558 113.562Z" stroke="white" stroke-miterlimit="10"/>
<path d="M136.408 106.877C154.503 106.877 169.172 92.2081 169.172 74.1128C169.172 56.0174 154.503 41.3481 136.408 41.3481C118.312 41.3481 103.643 56.0174 103.643 74.1128C103.643 92.2081 118.312 106.877 136.408 106.877Z" fill="white"/>
<path d="M139.719 113.562C161.506 113.562 179.168 95.8998 179.168 74.1128C179.168 52.3257 161.506 34.6638 139.719 34.6638C117.932 34.6638 100.27 52.3257 100.27 74.1128C100.27 95.8998 117.932 113.562 139.719 113.562Z" stroke="white" stroke-miterlimit="10"/>
<mask id="mask0_969_1812" style="mask-type:luminance" maskUnits="userSpaceOnUse" x="15" y="4" width="244" height="285">
<path d="M15.6118 288.732V191.188C15.6118 110.438 62.9804 37.1977 136.626 4.07812L136.943 4.22027C210.82 37.2401 258.388 110.601 258.388 191.523V288.732H15.6118Z" fill="white"/>
</mask>
<g mask="url(#mask0_969_1812)">
<path d="M109.956 149.046C109.949 148.992 109.944 148.938 109.937 148.884C109.89 148.51 109.834 148.138 109.774 147.768C109.762 147.695 109.751 147.621 109.739 147.548C109.676 147.18 109.606 146.814 109.53 146.451C109.516 146.383 109.503 146.315 109.489 146.247C109.408 145.869 109.32 145.493 109.225 145.118C109.215 145.077 109.205 145.037 109.195 144.996C106.099 132.92 96.0918 123.449 83.2902 121.426C73.3634 119.857 64.7754 113.696 60.087 104.826H60.9428C62.5019 104.826 63.7662 103.562 63.7662 102.003V101.723C63.7662 100.164 62.5019 98.8995 60.9428 98.8995H59.7521H58.5323L58.1677 92.8946C59.2512 92.5002 60.0297 91.471 60.0297 90.2513C60.0297 88.911 59.0935 87.7939 57.8402 87.5059L57.2039 77.0366L56.5677 87.5074C55.3174 87.7977 54.3834 88.9125 54.3834 90.2513C54.3834 91.4695 55.1589 92.4972 56.2402 92.8932L55.8756 98.8995H53.4703C51.9112 98.8995 50.6469 100.163 50.6469 101.723V102.003C50.6469 103.562 51.9112 104.826 53.4703 104.826H54.3209C49.6325 113.696 41.0438 119.856 31.1177 121.426C19.1868 123.311 9.68421 131.666 5.93943 142.569L5.93868 142.567C5.93199 142.587 5.92603 142.608 5.91859 142.628C5.80994 142.948 5.70649 143.268 5.60752 143.592C5.56733 143.724 5.52714 143.856 5.48844 143.988C5.40956 144.257 5.3344 144.528 5.26296 144.8C5.21384 144.986 5.16695 145.173 5.12156 145.36C5.06351 145.596 5.0077 145.834 4.95486 146.072C4.90574 146.296 4.86034 146.52 4.81644 146.744C4.77402 146.96 4.7316 147.174 4.69364 147.39C4.64974 147.641 4.61104 147.894 4.57309 148.147C4.54332 148.345 4.51206 148.542 4.48527 148.741C4.44881 149.017 4.41978 149.295 4.39076 149.573C4.37141 149.755 4.34983 149.936 4.33346 150.117C4.30592 150.432 4.28731 150.748 4.26871 151.065C4.25978 151.214 4.24713 151.362 4.24043 151.511C4.2196 151.98 4.20844 152.45 4.20844 152.924V154.361V253.769H110.198V154.363V154.361V152.921C110.197 151.611 110.111 150.319 109.956 149.046Z" fill="#CFDCFF"/>
<path d="M269.551 149.046C269.544 148.992 269.539 148.938 269.532 148.884C269.484 148.51 269.429 148.138 269.368 147.768C269.356 147.695 269.345 147.621 269.333 147.548C269.271 147.18 269.2 146.814 269.125 146.451C269.111 146.383 269.097 146.315 269.083 146.247C269.002 145.869 268.914 145.493 268.82 145.118C268.809 145.077 268.8 145.037 268.789 144.996C265.694 132.92 255.686 123.449 242.885 121.426C232.958 119.857 224.37 113.696 219.682 104.826H220.538C222.097 104.826 223.362 103.562 223.362 102.003V101.723C223.362 100.164 222.098 98.8995 220.538 98.8995H219.347H218.128L217.763 92.8946C218.847 92.5002 219.625 91.471 219.625 90.2513C219.625 88.911 218.689 87.7939 217.436 87.5059L216.799 77.0366L216.163 87.5074C214.913 87.7977 213.979 88.9125 213.979 90.2513C213.979 91.4695 214.754 92.4972 215.836 92.8932L215.471 98.8995H213.066C211.507 98.8995 210.242 100.163 210.242 101.723V102.003C210.242 103.562 211.507 104.826 213.066 104.826H213.916C209.228 113.696 200.64 119.856 190.713 121.426C178.783 123.311 169.28 131.666 165.535 142.569L165.534 142.567C165.527 142.587 165.521 142.608 165.514 142.628C165.405 142.948 165.302 143.268 165.203 143.592C165.163 143.724 165.122 143.856 165.084 143.988C165.005 144.257 164.93 144.528 164.858 144.8C164.809 144.986 164.762 145.173 164.717 145.36C164.659 145.596 164.603 145.834 164.55 146.072C164.501 146.296 164.456 146.52 164.412 146.744C164.369 146.96 164.327 147.174 164.289 147.39C164.245 147.641 164.206 147.894 164.168 148.147C164.139 148.345 164.107 148.542 164.081 148.741C164.045 149.017 164.016 149.295 163.987 149.573C163.967 149.755 163.946 149.936 163.93 150.117C163.902 150.432 163.883 150.748 163.865 151.065C163.856 151.214 163.843 151.362 163.837 151.511C163.816 151.98 163.805 152.45 163.805 152.924V154.361V253.769H269.794V154.363V154.361V152.921C269.793 151.611 269.705 150.319 269.551 149.046Z" fill="#CFDCFF"/>
</g>
<mask id="mask1_969_1812" style="mask-type:luminance" maskUnits="userSpaceOnUse" x="15" y="4" width="244" height="285">
<path d="M15.6118 288.732V191.188C15.6118 110.438 62.9804 37.1977 136.626 4.07812L136.943 4.22027C210.82 37.2401 258.388 110.601 258.388 191.523V288.732H15.6118Z" fill="white"/>
</mask>
<g mask="url(#mask1_969_1812)">
<path d="M63.8756 227.399C63.8429 227.138 63.8035 226.879 63.761 226.62C63.7529 226.57 63.7454 226.52 63.7372 226.471C63.6933 226.214 63.6442 225.959 63.5914 225.704C63.5817 225.659 63.5728 225.613 63.5631 225.567C63.5065 225.303 63.4455 225.041 63.3793 224.781C63.3726 224.752 63.3651 224.724 63.3577 224.697C61.2062 216.303 54.251 209.721 45.3542 208.315C38.4555 207.224 32.4863 202.942 29.2275 196.778H29.7253C30.8625 196.778 31.7845 195.856 31.7845 194.719C31.7845 193.582 30.8625 192.66 29.7253 192.66H28.8978H28.1477L27.8939 188.486C28.647 188.212 29.188 187.497 29.188 186.649C29.188 185.717 28.5369 184.941 27.6669 184.741L27.2249 177.465L26.7828 184.742C25.9143 184.944 25.2654 185.719 25.2654 186.649C25.2654 187.495 25.8049 188.21 26.5558 188.485L26.3021 192.659H24.7281C23.591 192.659 22.6689 193.581 22.6689 194.718C22.6689 195.856 23.591 196.777 24.7281 196.777H25.2222C21.9634 202.942 15.995 207.223 9.09556 208.314C0.803759 209.624 -5.80096 215.431 -8.4034 223.008L-8.40414 223.007C-8.40935 223.021 -8.41308 223.035 -8.41828 223.049C-8.49345 223.271 -8.56564 223.493 -8.6341 223.718C-8.66238 223.81 -8.68992 223.902 -8.71745 223.995C-8.77178 224.182 -8.82461 224.37 -8.87373 224.559C-8.90796 224.688 -8.93996 224.817 -8.97196 224.947C-9.01215 225.112 -9.05159 225.277 -9.08806 225.444C-9.12229 225.598 -9.1528 225.753 -9.18406 225.909C-9.21383 226.058 -9.24285 226.208 -9.26964 226.359C-9.30015 226.533 -9.32695 226.708 -9.35299 226.883C-9.37383 227.021 -9.39616 227.159 -9.41402 227.298C-9.43932 227.49 -9.45941 227.682 -9.47951 227.876C-9.4929 228.002 -9.50778 228.127 -9.51895 228.255C-9.5383 228.473 -9.55095 228.694 -9.5636 228.914C-9.56955 229.017 -9.57848 229.12 -9.58295 229.224C-9.59709 229.55 -9.60527 229.877 -9.60527 230.206V231.205C-9.60527 231.97 -9.56658 232.727 -9.49067 233.472C-9.46239 233.747 -9.42444 234.02 -9.38648 234.292C-9.37309 234.388 -9.36415 234.486 -9.35001 234.582C-8.87224 237.711 -7.73512 240.622 -6.09268 243.176H-9.60602V256.876H-1.0917H55.5422H64.0565V243.175H60.5424C62.7631 239.722 64.0565 235.616 64.0565 231.206V230.204C64.0565 229.293 63.9962 228.394 63.8883 227.509C63.8838 227.472 63.8801 227.434 63.8756 227.399Z" fill="#B0C6FF"/>
<path d="M283.606 230.204C283.606 229.292 283.546 228.393 283.438 227.508C283.434 227.472 283.431 227.435 283.425 227.399C283.392 227.138 283.353 226.879 283.311 226.62C283.303 226.57 283.295 226.52 283.287 226.471C283.243 226.214 283.194 225.959 283.141 225.704C283.131 225.659 283.123 225.613 283.113 225.567C283.056 225.303 282.995 225.041 282.929 224.781C282.922 224.752 282.915 224.724 282.907 224.697C280.756 216.303 273.801 209.721 264.903 208.315C258.005 207.224 252.035 202.942 248.777 196.778H249.275C250.412 196.778 251.334 195.856 251.334 194.719C251.334 193.582 250.412 192.66 249.275 192.66H248.448H247.697L247.444 188.486C248.197 188.212 248.738 187.497 248.738 186.649C248.738 185.717 248.087 184.941 247.217 184.741L246.775 177.465L246.333 184.742C245.464 184.944 244.815 185.719 244.815 186.649C244.815 187.495 245.354 188.21 246.106 188.485L245.852 192.659H244.278C243.141 192.659 242.218 193.581 242.218 194.718C242.218 195.856 243.14 196.777 244.278 196.777H244.772C241.513 202.942 235.545 207.223 228.646 208.314C220.354 209.624 213.75 215.431 211.147 223.008L211.146 223.007C211.141 223.021 211.137 223.035 211.133 223.049C211.057 223.271 210.986 223.493 210.917 223.718C210.889 223.81 210.861 223.902 210.834 223.995C210.779 224.182 210.727 224.37 210.678 224.559C210.643 224.688 210.611 224.817 210.579 224.947C210.539 225.112 210.5 225.277 210.463 225.444C210.429 225.598 210.398 225.753 210.367 225.909C210.337 226.058 210.308 226.208 210.282 226.359C210.251 226.533 210.224 226.708 210.198 226.883C210.177 227.021 210.156 227.159 210.137 227.298C210.112 227.49 210.092 227.682 210.072 227.876C210.058 228.002 210.043 228.127 210.032 228.255C210.013 228.473 210 228.694 209.988 228.914C209.982 229.017 209.973 229.12 209.968 229.224C209.954 229.55 209.946 229.877 209.946 230.206V231.205C209.946 231.97 209.985 232.727 210.061 233.472C210.089 233.747 210.127 234.02 210.165 234.292C210.178 234.388 210.187 234.486 210.201 234.582C210.679 237.711 211.816 240.622 213.459 243.176H209.945V256.876H218.46H275.093H283.606V243.175H280.092C282.313 239.722 283.606 235.616 283.606 231.206V230.204Z" fill="#B0C6FF"/>
</g>
<path d="M136.627 4.07818L136.944 4.22032C210.821 37.2402 258.389 110.601 258.389 191.523V288.732H15.6117V191.188C15.6117 110.438 62.9804 37.197 136.627 4.07818ZM136.622 0L135.1 0.68466C98.3102 17.2296 67.284 43.8784 45.3772 77.7504C23.4704 111.622 11.8907 150.849 11.8907 191.188V288.732V292.453H15.6117H258.388H262.109V288.732V191.522C262.109 151.097 250.484 111.802 228.492 77.8836C206.5 43.9655 175.368 17.3181 138.462 0.823077L138.145 0.681682L136.622 0Z" fill="#FFD374"/>
<path d="M273.96 251.769H0.0410156V309.906H273.96V251.769Z" fill="#FEB004"/>
<path d="M274 288H0V310H274V288Z" fill="#FF9900"/>
<path d="M200.935 69.9081C199.497 69.9081 199.496 72.1407 200.935 72.1407C202.374 72.1407 202.375 69.9081 200.935 69.9081Z" fill="white"/>
<path d="M133.558 11.6259C132.12 11.6259 132.119 13.8584 133.558 13.8584C134.997 13.8584 134.998 11.6259 133.558 11.6259Z" fill="white"/>
<path d="M80.1184 102.305C78.6799 102.305 78.6791 104.538 80.1184 104.538C81.5577 104.538 81.5577 102.305 80.1184 102.305Z" fill="white"/>
<path d="M86.8913 78.319C85.4528 78.319 85.452 80.5516 86.8913 80.5516C88.3298 80.5516 88.3306 78.319 86.8913 78.319Z" fill="white"/>
<path d="M70.1931 64.1956C70.141 64.0014 70.0443 63.8325 69.9021 63.6896C69.8225 63.6293 69.7436 63.5683 69.664 63.508C69.4928 63.412 69.309 63.3636 69.1125 63.3629H68.8305C68.6817 63.3577 68.5432 63.3874 68.413 63.4537C68.2694 63.4983 68.1458 63.5772 68.0409 63.6896C67.9278 63.7945 67.8497 63.9181 67.805 64.0617C67.7388 64.1912 67.709 64.3303 67.7142 64.4792C67.7261 64.5737 67.7388 64.6682 67.7507 64.7627C67.8028 64.957 67.8995 65.1259 68.0417 65.2688C68.1213 65.329 68.2002 65.3901 68.2798 65.4503C68.451 65.5463 68.6348 65.5947 68.8312 65.5955H69.1133C69.2621 65.6007 69.4006 65.5709 69.5308 65.5047C69.6744 65.46 69.798 65.3811 69.9029 65.2688C70.016 65.1638 70.0941 65.0403 70.1388 64.8967C70.205 64.7672 70.2348 64.628 70.2296 64.4792C70.2177 64.3847 70.205 64.2902 70.1931 64.1956Z" fill="white"/>
<path d="M185.88 78.319C184.442 78.319 184.441 80.5516 185.88 80.5516C187.319 80.5516 187.32 78.319 185.88 78.319Z" fill="white"/>
<path d="M195.253 99.4832C193.815 99.4832 193.814 101.716 195.253 101.716C196.692 101.716 196.693 99.4832 195.253 99.4832Z" fill="white"/>
<path d="M185.88 44.0206C184.442 44.0206 184.441 46.2532 185.88 46.2532C187.319 46.2532 187.32 44.0206 185.88 44.0206Z" fill="white"/>
<path d="M229.398 101.741C227.96 101.741 227.959 103.974 229.398 103.974C230.838 103.974 230.838 101.741 229.398 101.741Z" fill="white"/>
<path d="M44.2803 106.256C42.8418 106.256 42.841 108.489 44.2803 108.489C45.7188 108.489 45.7196 106.256 44.2803 106.256Z" fill="white"/>
<path d="M89.5809 50.8724C88.1424 50.8724 88.1416 53.105 89.5809 53.105C91.0194 53.105 91.0202 50.8724 89.5809 50.8724Z" fill="white"/>
<path d="M108.025 116.504C106.586 116.504 106.586 118.736 108.025 118.736C109.464 118.736 109.464 116.504 108.025 116.504Z" fill="white"/>
<path d="M273.959 259.55H228.319" stroke="#FFD374" stroke-width="2" stroke-miterlimit="10"/>
<path d="M273.959 266.646H228.319" stroke="#FFD374" stroke-width="2" stroke-miterlimit="10"/>
<path d="M273.959 273.742H228.319" stroke="#FFD374" stroke-width="2" stroke-miterlimit="10"/>
<path d="M273.959 280.837H228.319" stroke="#FFD374" stroke-width="2" stroke-miterlimit="10"/>
<path d="M273.959 287.933H228.319" stroke="#FFD374" stroke-width="2" stroke-miterlimit="10"/>
<path d="M273.959 295.029H228.319" stroke="#FFD374" stroke-width="2" stroke-miterlimit="10"/>
<path d="M273.959 302.125H228.319" stroke="#FFD374" stroke-width="2" stroke-miterlimit="10"/>
<path d="M45.3594 259.55H0.0410156" stroke="#FFD374" stroke-width="2" stroke-miterlimit="10"/>
<path d="M45.3594 266.646H0.0410156" stroke="#FFD374" stroke-width="2" stroke-miterlimit="10"/>
<path d="M45.3594 273.742H0.0410156" stroke="#FFD374" stroke-width="2" stroke-miterlimit="10"/>
<path d="M45.3594 280.837H0.0410156" stroke="#FFD374" stroke-width="2" stroke-miterlimit="10"/>
<path d="M45.3594 287.933H0.0410156" stroke="#FFD374" stroke-width="2" stroke-miterlimit="10"/>
<path d="M45.3594 295.029H0.0410156" stroke="#FFD374" stroke-width="2" stroke-miterlimit="10"/>
<path d="M45.3594 302.125H0.0410156" stroke="#FFD374" stroke-width="2" stroke-miterlimit="10"/>
<path d="M118.795 31.6908C117.356 31.6908 117.356 33.9234 118.795 33.9234C120.233 33.9234 120.233 31.6908 118.795 31.6908Z" fill="white"/>
<path d="M158.105 24.9595C156.666 24.9595 156.665 27.1921 158.105 27.1921C159.543 27.1921 159.544 24.9595 158.105 24.9595Z" fill="white"/>
<path d="M218.924 130.692C222.932 128.003 225.596 123.437 225.596 118.236C225.596 113.543 223.414 109.129 219.66 106.313L205.378 95.4556L191.071 106.313C187.342 109.129 185.135 113.543 185.135 118.236C185.135 123.437 187.798 128.003 191.806 130.692H218.924Z" fill="#3B2579"/>
<path d="M207.606 120.881C200.753 120.881 195.015 115.434 194.944 108.58V108.424C194.944 106.329 195.384 104.283 196.208 102.416L191.073 106.315C187.337 109.127 185.136 113.545 185.136 118.232C185.136 123.438 187.8 128.004 191.805 130.689H218.927C222.236 128.474 224.63 124.965 225.361 120.882L207.606 120.881Z" fill="#1F144C"/>
<path d="M217.091 129.15H178.668V139.295C182.078 139.295 184.842 142.058 184.842 145.469V252.05H210.916V145.468C210.916 142.058 213.681 139.294 217.091 139.294V129.15Z" fill="#1F144C"/>
<path d="M232.06 129.15H196.271V139.295C199.681 139.295 202.445 142.058 202.445 145.469V252.05H225.886V145.468C225.886 142.058 228.651 139.294 232.06 139.294V129.15Z" fill="#3B2579"/>
<path d="M217.582 147.713V154.103H210.75V147.713C210.75 146.334 211.569 145.139 212.755 144.6C213.185 144.406 213.66 144.298 214.166 144.298C216.051 144.298 217.582 145.828 217.582 147.713Z" fill="#FEB004"/>
<path d="M214.769 147.714V154.103H210.75V147.714C210.75 146.335 211.568 145.139 212.754 144.6C213.94 145.139 214.769 146.324 214.769 147.714Z" fill="#FFD374"/>
<path d="M202.446 155.126H228.915" stroke="#3B2579" stroke-width="4" stroke-miterlimit="10"/>
<path d="M202.446 158.268H225.887" stroke="#1F144C" stroke-width="2" stroke-miterlimit="10"/>
<path d="M217.582 171.338V177.728H210.75V171.338C210.75 169.959 211.569 168.762 212.755 168.224C213.185 168.03 213.66 167.923 214.166 167.923C216.051 167.922 217.582 169.452 217.582 171.338Z" fill="#FEB004"/>
<path d="M214.769 171.338V177.728H210.75V171.338C210.75 169.959 211.568 168.762 212.754 168.224C213.94 168.762 214.769 169.948 214.769 171.338Z" fill="#FFD374"/>
<path d="M202.446 178.751H228.915" stroke="#3B2579" stroke-width="4" stroke-miterlimit="10"/>
<path d="M202.446 181.892H225.887" stroke="#1F144C" stroke-width="2" stroke-miterlimit="10"/>
<path d="M217.582 194.961V201.351H210.75V194.961C210.75 193.582 211.569 192.386 212.755 191.848C213.185 191.654 213.66 191.546 214.166 191.546C216.051 191.546 217.582 193.076 217.582 194.961Z" fill="#FEB004"/>
<path d="M214.769 194.962V201.351H210.75V194.962C210.75 193.583 211.568 192.386 212.754 191.848C213.94 192.386 214.769 193.571 214.769 194.962Z" fill="#FFD374"/>
<path d="M202.446 202.375H228.915" stroke="#3B2579" stroke-width="4" stroke-miterlimit="10"/>
<path d="M202.446 205.516H225.887" stroke="#1F144C" stroke-width="2" stroke-miterlimit="10"/>
<path d="M217.582 218.585V252.05H210.75V218.585C210.75 217.206 211.569 216.01 212.755 215.472C213.185 215.277 213.66 215.17 214.166 215.17C216.051 215.169 217.582 216.699 217.582 218.585Z" fill="#FEB004"/>
<path d="M214.769 218.585V252.05H210.75V218.585C210.75 217.206 211.568 216.01 212.754 215.472C213.94 216.01 214.769 217.195 214.769 218.585Z" fill="#FFD374"/>
<path d="M208.911 95.7859C208.909 95.7725 208.906 95.7583 208.904 95.7449C208.758 94.8795 207.946 94.2811 207.067 94.2811H206.158L205.938 90.6896C206.585 90.4567 207.052 89.839 207.052 89.1097C207.052 88.3067 206.491 87.6414 205.744 87.4695L205.363 81.2094L204.984 87.4695C204.237 87.6422 203.675 88.3112 203.675 89.1097C203.675 89.839 204.141 90.4522 204.785 90.6896L204.569 94.2811H203.66C202.782 94.2811 201.969 94.8795 201.823 95.7449C201.821 95.7583 201.819 95.7725 201.816 95.7859C201.685 96.6811 202.472 97.4536 203.376 97.4536H207.35C208.256 97.4536 209.042 96.6804 208.911 95.7859Z" fill="#3B2579"/>
<path d="M136.109 84.7666C135.99 86.2037 135.857 87.567 135.753 88.7391C135.589 90.5855 134.044 91.9942 132.19 91.9942C132.186 91.9942 132.183 91.9979 132.183 92.0017V96.2547C132.183 96.2585 132.186 96.2622 132.19 96.2622C133.273 96.2659 134.087 97.1567 134.087 98.1361C134.087 98.3295 134.057 98.5082 133.997 98.7009C131.514 106.568 126.428 113.424 119.453 118.063C110.931 123.744 104.09 131.373 99.3909 140.132C94.6913 148.892 92.1335 158.811 92.1335 169.043V178.689H181.853V169.102C181.853 148.58 171.607 129.44 154.549 118.063C147.56 113.423 142.489 106.553 140.004 98.7009C139.618 97.499 140.537 96.2666 141.797 96.2622C141.8 96.2622 141.804 96.2592 141.804 96.2547V92.0009C141.804 91.9972 141.801 91.9935 141.797 91.9935C140.877 91.992 140.033 91.6645 139.394 91.0565C138.755 90.4917 138.323 89.6738 138.249 88.7518C138.166 87.8156 138.064 86.7566 137.966 85.6351C137.941 85.3493 137.916 85.0591 137.892 84.7659H136.109V84.7666Z" fill="#3B2579"/>
<path d="M180.478 156.218H143.6C123.991 156.218 111.199 135.371 120.35 118.024C120.405 117.906 120.468 117.78 120.539 117.662C120.649 117.464 120.751 117.26 120.878 117.062C120.413 117.409 119.94 117.74 119.451 118.063C110.931 123.746 104.09 131.376 99.3931 140.132C94.6875 148.896 92.1342 158.811 92.1342 169.041V178.688H181.85V169.105C181.85 164.723 181.385 160.412 180.478 156.218Z" fill="#1F144C"/>
<path d="M148.006 74.429C148.006 80.5076 143.077 85.4372 136.988 85.4372C130.91 85.4372 125.981 80.5076 125.981 74.429C125.981 71.4441 127.169 68.7337 129.084 66.7601C128.623 67.8206 128.368 68.9987 128.368 70.2266C128.368 74.9894 132.227 78.8481 136.989 78.8481C141.762 78.8481 145.62 74.9887 145.62 70.2266C145.62 68.9994 145.365 67.84 144.913 66.7802C146.838 68.7531 148.006 71.4538 148.006 74.429Z" fill="#1F144C"/>
<path d="M146.759 72.4942C146.759 77.8948 142.389 82.2647 136.988 82.2647C131.597 82.2647 127.218 77.8948 127.218 72.4942C127.218 70.3434 127.915 68.3698 129.083 66.7594C128.622 67.8199 128.367 68.9979 128.367 70.2259C128.367 74.9887 132.226 78.8473 136.988 78.8473C141.761 78.8473 145.619 74.988 145.619 70.2259C145.619 68.9987 145.364 67.8392 144.912 66.7795C146.071 68.3899 146.759 70.3538 146.759 72.4942Z" fill="#3B2579"/>
<path d="M200.205 172.929H73.7958V183.836C77.4617 183.836 80.434 186.807 80.434 190.474V252.049H193.566V190.474C193.566 186.807 196.539 183.836 200.205 183.836V172.929Z" fill="#1F144C"/>
<path d="M192.364 172.929H110.012V183.836C113.678 183.836 116.65 186.807 116.65 190.474V252.049H185.725V190.474C185.725 186.807 188.698 183.836 192.364 183.836V172.929Z" fill="#3B2579"/>
<path d="M132.24 180.016V184.69H127.242V180.016C127.242 179 127.85 178.133 128.716 177.738C129.031 177.596 129.378 177.518 129.741 177.518C131.12 177.518 132.24 178.637 132.24 180.016Z" fill="#FEB004"/>
<path d="M146.576 180.016V184.69H141.579V180.016C141.579 179.008 142.178 178.133 143.045 177.738C143.361 177.596 143.708 177.518 144.077 177.518C145.457 177.518 146.576 178.637 146.576 180.016Z" fill="#FEB004"/>
<path d="M160.921 180.016V184.69H155.924V180.016C155.924 179.008 156.523 178.133 157.39 177.738C157.705 177.596 158.052 177.518 158.422 177.518C159.802 177.518 160.921 178.637 160.921 180.016Z" fill="#FEB004"/>
<path d="M175.258 180.016V184.69H170.26V180.016C170.26 179 170.868 178.133 171.734 177.738C172.049 177.596 172.396 177.518 172.759 177.518C174.138 177.518 175.258 178.637 175.258 180.016Z" fill="#FEB004"/>
<path d="M130.183 180.016V184.69H127.243V180.016C127.243 178.999 127.85 178.132 128.717 177.738C129.584 178.132 130.183 179.008 130.183 180.016Z" fill="#FFD374"/>
<path d="M144.52 180.016V184.69H141.58V180.016C141.58 179.008 142.179 178.132 143.046 177.738C143.912 178.132 144.52 178.999 144.52 180.016Z" fill="#FFD374"/>
<path d="M158.864 180.016V184.69H155.924V180.016C155.924 179.008 156.523 178.132 157.39 177.738C158.257 178.132 158.864 178.999 158.864 180.016Z" fill="#FFD374"/>
<path d="M173.2 180.016V184.69H170.26V180.016C170.26 178.999 170.868 178.132 171.734 177.738C172.602 178.132 173.2 179.008 173.2 180.016Z" fill="#FFD374"/>
<path d="M166.848 218.037C166.848 218.037 166.848 244.283 166.848 252.047H135.527V218.273C135.527 215.743 136.165 213.299 137.34 211.148C138.514 208.996 140.217 207.129 142.337 205.757C144.134 204.591 145.805 203.235 147.302 201.714C147.35 201.667 147.388 201.627 147.436 201.58C148.965 200.004 150.32 198.254 151.464 196.362L152.094 197.332C154.214 200.595 156.956 203.408 160.165 205.6L160.346 205.726C164.42 208.5 166.848 213.111 166.848 218.037Z" fill="#FEB004"/>
<path d="M158.564 218.037C158.564 218.037 158.564 244.283 158.564 252.047H135.527V218.273C135.527 215.743 136.165 213.299 137.34 211.148C138.514 208.997 140.217 207.129 142.337 205.757C144.134 204.591 145.805 203.235 147.302 201.714C148.681 203.164 150.219 204.464 151.881 205.599L152.063 205.725C156.129 208.5 158.564 213.111 158.564 218.037Z" fill="#FFD374"/>
<path d="M174.403 252.05V190.899H127.972V252.05" stroke="#1F144C" stroke-width="2" stroke-miterlimit="10"/>
<path d="M135.527 252.047V218.274C135.527 215.743 136.165 213.3 137.34 211.149C138.514 208.997 140.217 207.129 142.337 205.758C144.134 204.592 145.805 203.236 147.302 201.715C147.35 201.668 147.388 201.628 147.436 201.581C148.965 200.004 150.32 198.255 151.464 196.363L152.094 197.333C154.214 200.596 156.956 203.409 160.165 205.601L160.346 205.726C164.421 208.501 166.848 213.111 166.848 218.038C166.848 218.038 166.848 244.284 166.848 252.047" stroke="#1F144C" stroke-width="2" stroke-miterlimit="10"/>
<path d="M81.4506 130.692C85.4588 128.003 88.1223 123.437 88.1223 118.236C88.1223 113.543 85.941 109.129 82.1858 106.313L67.904 95.4556L53.5969 106.313C49.8677 109.129 47.6605 113.543 47.6605 118.236C47.6605 123.437 50.3239 128.003 54.3322 130.692H81.4506Z" fill="#3B2579"/>
<path d="M70.1329 120.881C63.2796 120.881 57.5411 115.434 57.4704 108.58V108.424C57.4704 106.329 57.911 104.283 58.7348 102.416L53.5999 106.315C49.8641 109.127 47.6627 113.545 47.6627 118.232C47.6627 123.438 50.3262 128.004 54.3314 130.689H81.4536C84.763 128.474 87.1563 124.965 87.8879 120.882L70.1329 120.881Z" fill="#1F144C"/>
<path d="M79.6184 129.15H41.1957V139.295C44.6056 139.295 47.3703 142.058 47.3703 145.469V252.05H73.4446V145.468C73.4446 142.058 76.2092 139.294 79.6191 139.294V129.15H79.6184Z" fill="#1F144C"/>
<path d="M94.5878 129.15H58.7988V139.295C62.2087 139.295 64.9734 142.058 64.9734 145.469V252.05H88.414V145.468C88.414 142.058 91.1787 139.294 94.5886 139.294L94.5878 129.15Z" fill="#3B2579"/>
<path d="M80.1088 147.713V154.103H73.2771V147.713C73.2771 146.334 74.0957 145.139 75.2812 144.6C75.7121 144.406 76.1861 144.298 76.6929 144.298C78.5787 144.298 80.1088 145.828 80.1088 147.713Z" fill="#FEB004"/>
<path d="M77.2965 147.714V154.103H73.2771V147.714C73.2771 146.335 74.0957 145.139 75.2812 144.6C76.4667 145.139 77.2965 146.324 77.2965 147.714Z" fill="#FFD374"/>
<path d="M64.9727 155.126H91.4414" stroke="#3B2579" stroke-width="4" stroke-miterlimit="10"/>
<path d="M64.9727 158.268H88.4133" stroke="#1F144C" stroke-width="2" stroke-miterlimit="10"/>
<path d="M80.1088 171.338V177.728H73.2771V171.338C73.2771 169.959 74.0957 168.762 75.2812 168.224C75.7121 168.03 76.1861 167.923 76.6929 167.923C78.5787 167.922 80.1088 169.452 80.1088 171.338Z" fill="#FEB004"/>
<path d="M77.2965 171.338V177.728H73.2771V171.338C73.2771 169.959 74.0957 168.762 75.2812 168.224C76.4667 168.762 77.2965 169.948 77.2965 171.338Z" fill="#FFD374"/>
<path d="M64.9727 178.751H91.4414" stroke="#3B2579" stroke-width="4" stroke-miterlimit="10"/>
<path d="M64.9727 181.892H88.4133" stroke="#1F144C" stroke-width="2" stroke-miterlimit="10"/>
<path d="M80.1088 194.961V201.351H73.2771V194.961C73.2771 193.582 74.0957 192.386 75.2812 191.848C75.7121 191.654 76.1861 191.546 76.6929 191.546C78.5787 191.546 80.1088 193.076 80.1088 194.961Z" fill="#FEB004"/>
<path d="M77.2965 194.962V201.351H73.2771V194.962C73.2771 193.583 74.0957 192.386 75.2812 191.848C76.4667 192.386 77.2965 193.571 77.2965 194.962Z" fill="#FFD374"/>
<path d="M64.9727 202.375H91.4414" stroke="#3B2579" stroke-width="4" stroke-miterlimit="10"/>
<path d="M64.9727 205.516H88.4133" stroke="#1F144C" stroke-width="2" stroke-miterlimit="10"/>
<path d="M80.1088 218.585V252.05H73.2771V218.585C73.2771 217.206 74.0957 216.01 75.2812 215.472C75.7121 215.277 76.1861 215.17 76.6929 215.17C78.5787 215.169 80.1088 216.699 80.1088 218.585Z" fill="#FEB004"/>
<path d="M77.2965 218.585V252.05H73.2771V218.585C73.2771 217.206 74.0957 216.01 75.2812 215.472C76.4667 216.01 77.2965 217.195 77.2965 218.585Z" fill="#FFD374"/>
<path d="M71.4382 95.7859C71.4359 95.7725 71.4337 95.7583 71.4315 95.7449C71.2856 94.8795 70.473 94.2811 69.5948 94.2811H68.6854L68.4651 90.6896C69.1126 90.4567 69.5792 89.839 69.5792 89.1097C69.5792 88.3067 69.0181 87.6414 68.2709 87.4695L67.8914 81.2094L67.5118 87.4695C66.7647 87.6422 66.2035 88.3112 66.2035 89.1097C66.2035 89.839 66.6694 90.4522 67.3131 90.6896L67.0973 94.2811H66.1879C65.3098 94.2811 64.4978 94.8795 64.3512 95.7449C64.349 95.7583 64.3468 95.7725 64.3445 95.7859C64.2135 96.6811 65.0002 97.4536 65.9044 97.4536H69.8776C70.7825 97.4536 71.5684 96.6804 71.4382 95.7859Z" fill="#3B2579"/>
<path d="M96.32 280.6L95.3 278.04C96.4467 277.64 97.3733 277.2 98.08 276.72C98.8 276.24 99.3267 275.727 99.66 275.18C100.007 274.633 100.18 274.067 100.18 273.48C100.18 273.107 100.127 272.72 100.02 272.32C99.9133 271.907 99.76 271.473 99.56 271.02C99.3733 270.567 99.1467 270.093 98.88 269.6L101.5 268.34C101.967 269.233 102.327 270.087 102.58 270.9C102.847 271.713 102.98 272.473 102.98 273.18C102.98 273.833 102.893 274.46 102.72 275.06C102.56 275.66 102.307 276.22 101.96 276.74C101.627 277.273 101.193 277.773 100.66 278.24C100.127 278.707 99.5 279.133 98.78 279.52C98.06 279.92 97.24 280.28 96.32 280.6ZM100.74 266.3C100.327 266.3 99.9733 266.16 99.68 265.88C99.4 265.6 99.26 265.253 99.26 264.84C99.26 264.427 99.4 264.073 99.68 263.78C99.9733 263.487 100.327 263.34 100.74 263.34C101.14 263.34 101.48 263.487 101.76 263.78C102.053 264.073 102.2 264.427 102.2 264.84C102.2 265.253 102.053 265.6 101.76 265.88C101.48 266.16 101.14 266.3 100.74 266.3ZM110.524 276.1C109.284 276.1 108.324 275.973 107.644 275.72C106.977 275.467 106.51 275.073 106.244 274.54C105.977 273.993 105.824 273.307 105.784 272.48L105.364 261.36H108.164L108.584 271.14C108.61 271.753 108.677 272.213 108.784 272.52C108.89 272.827 109.09 273.033 109.384 273.14C109.69 273.247 110.137 273.3 110.724 273.3C111.23 273.3 111.59 273.433 111.804 273.7C112.03 273.953 112.144 274.273 112.144 274.66C112.144 275.073 112.004 275.42 111.724 275.7C111.444 275.967 111.044 276.1 110.524 276.1ZM110.551 276.1L110.751 273.3C111.084 273.3 111.337 273.233 111.511 273.1C111.684 272.967 111.857 272.733 112.031 272.4C112.204 272.067 112.444 271.613 112.751 271.04C113.084 270.4 113.431 269.867 113.791 269.44C114.151 269 114.511 268.653 114.871 268.4C115.244 268.133 115.611 267.947 115.971 267.84C116.344 267.72 116.711 267.66 117.071 267.66C117.564 267.66 118.024 267.767 118.451 267.98C118.891 268.18 119.311 268.533 119.711 269.04C120.111 269.533 120.491 270.213 120.851 271.08C121.104 271.68 121.357 272.14 121.611 272.46C121.864 272.78 122.124 273 122.391 273.12C122.671 273.24 122.951 273.3 123.231 273.3C123.737 273.3 124.097 273.433 124.311 273.7C124.524 273.953 124.631 274.273 124.631 274.66C124.631 275.073 124.491 275.42 124.211 275.7C123.931 275.967 123.537 276.1 123.031 276.1C122.377 276.1 121.784 275.993 121.251 275.78C120.717 275.567 120.297 275.247 119.991 274.82L120.571 274.38C120.451 274.66 120.271 274.953 120.031 275.26C119.804 275.567 119.504 275.827 119.131 276.04C118.771 276.253 118.337 276.36 117.831 276.36C117.497 276.36 117.104 276.293 116.651 276.16C116.211 276.04 115.751 275.833 115.271 275.54C114.804 275.233 114.371 274.82 113.971 274.3C113.717 274.767 113.437 275.133 113.131 275.4C112.824 275.653 112.464 275.833 112.051 275.94C111.637 276.047 111.137 276.1 110.551 276.1ZM115.131 271.94C115.264 272.14 115.424 272.34 115.611 272.54C115.797 272.74 116.004 272.92 116.231 273.08C116.457 273.227 116.697 273.347 116.951 273.44C117.217 273.533 117.477 273.58 117.731 273.58C117.997 273.58 118.217 273.48 118.391 273.28C118.564 273.067 118.571 272.753 118.411 272.34C118.344 272.167 118.251 271.973 118.131 271.76C118.024 271.533 117.897 271.32 117.751 271.12C117.617 270.92 117.464 270.753 117.291 270.62C117.131 270.487 116.964 270.42 116.791 270.42C116.617 270.42 116.437 270.473 116.251 270.58C116.064 270.687 115.877 270.853 115.691 271.08C115.504 271.293 115.317 271.58 115.131 271.94ZM123.031 276.1L123.231 273.3C123.818 273.3 124.278 273.26 124.611 273.18C124.958 273.1 125.205 272.953 125.351 272.74C125.498 272.513 125.571 272.193 125.571 271.78C125.571 271.407 125.518 270.96 125.411 270.44C125.318 269.92 125.191 269.38 125.031 268.82C124.871 268.26 124.711 267.747 124.551 267.28L127.311 266.52C127.471 266.973 127.631 267.5 127.791 268.1C127.951 268.7 128.085 269.32 128.191 269.96C128.311 270.587 128.371 271.193 128.371 271.78C128.371 272.513 128.278 273.133 128.091 273.64C127.905 274.133 127.645 274.547 127.311 274.88C126.991 275.2 126.605 275.453 126.151 275.64C125.711 275.813 125.225 275.933 124.691 276C124.158 276.067 123.605 276.1 123.031 276.1ZM125.911 264.86C125.498 264.86 125.145 264.72 124.851 264.44C124.571 264.16 124.431 263.813 124.431 263.4C124.431 262.987 124.571 262.633 124.851 262.34C125.145 262.047 125.498 261.9 125.911 261.9C126.311 261.9 126.651 262.047 126.931 262.34C127.225 262.633 127.371 262.987 127.371 263.4C127.371 263.813 127.225 264.16 126.931 264.44C126.651 264.72 126.311 264.86 125.911 264.86ZM142.347 280.66V279.26L147.067 277.86V279.3L142.347 280.66ZM142.859 276.42L143.379 273.62C144.673 273.62 145.799 273.587 146.759 273.52C147.719 273.44 148.513 273.327 149.139 273.18C149.779 273.02 150.253 272.813 150.559 272.56C150.879 272.307 151.039 272 151.039 271.64C151.039 271.16 150.959 270.587 150.799 269.92C150.639 269.24 150.433 268.553 150.179 267.86L152.799 267.1C152.973 267.553 153.139 268.053 153.299 268.6C153.459 269.133 153.586 269.673 153.679 270.22C153.786 270.753 153.839 271.253 153.839 271.72C153.839 272.547 153.659 273.26 153.299 273.86C152.939 274.447 152.339 274.933 151.499 275.32C150.673 275.693 149.553 275.967 148.139 276.14C146.726 276.327 144.966 276.42 142.859 276.42ZM142.839 276.42C141.399 276.42 140.179 276.307 139.179 276.08C138.193 275.867 137.386 275.56 136.759 275.16C136.146 274.747 135.699 274.267 135.419 273.72C135.139 273.173 134.999 272.573 134.999 271.92C134.999 271.493 135.033 271.067 135.099 270.64C135.179 270.2 135.273 269.773 135.379 269.36C135.499 268.947 135.606 268.573 135.699 268.24L138.199 268.82C138.146 269.06 138.086 269.32 138.019 269.6C137.953 269.88 137.899 270.153 137.859 270.42C137.819 270.673 137.799 270.907 137.799 271.12C137.799 271.613 137.973 272.053 138.319 272.44C138.679 272.813 139.266 273.107 140.079 273.32C140.893 273.52 141.986 273.62 143.359 273.62L143.759 275.78L142.839 276.42ZM146.139 267.28C145.753 267.28 145.419 267.147 145.139 266.88C144.873 266.6 144.739 266.273 144.739 265.9C144.739 265.513 144.873 265.18 145.139 264.9C145.419 264.62 145.753 264.48 146.139 264.48C146.513 264.48 146.833 264.62 147.099 264.9C147.366 265.18 147.499 265.513 147.499 265.9C147.499 266.273 147.366 266.6 147.099 266.88C146.833 267.147 146.513 267.28 146.139 267.28ZM142.679 267.26C142.293 267.26 141.959 267.127 141.679 266.86C141.413 266.58 141.279 266.253 141.279 265.88C141.279 265.493 141.413 265.16 141.679 264.88C141.959 264.6 142.293 264.46 142.679 264.46C143.053 264.46 143.373 264.6 143.639 264.88C143.906 265.16 144.039 265.493 144.039 265.88C144.039 266.253 143.906 266.58 143.639 266.86C143.373 267.127 143.053 267.26 142.679 267.26ZM161.188 276.1C159.948 276.1 158.988 275.973 158.308 275.72C157.641 275.467 157.174 275.073 156.908 274.54C156.641 273.993 156.488 273.307 156.448 272.48L156.028 261.36H158.828L159.248 271.14C159.274 271.753 159.341 272.213 159.448 272.52C159.554 272.827 159.754 273.033 160.048 273.14C160.354 273.247 160.801 273.3 161.388 273.3C161.894 273.3 162.254 273.433 162.468 273.7C162.694 273.953 162.808 274.273 162.808 274.66C162.808 275.073 162.668 275.42 162.388 275.7C162.108 275.967 161.708 276.1 161.188 276.1ZM161.215 276.1L161.415 273.32C162.522 273.32 163.408 273.313 164.075 273.3C164.755 273.287 165.282 273.26 165.655 273.22C166.042 273.167 166.328 273.107 166.515 273.04C166.702 272.96 166.862 272.873 166.995 272.78C167.155 272.66 167.288 272.5 167.395 272.3C167.515 272.087 167.608 271.807 167.675 271.46C167.742 271.113 167.775 270.68 167.775 270.16C167.775 269.507 167.715 268.96 167.595 268.52C167.488 268.067 167.328 267.727 167.115 267.5C166.915 267.273 166.668 267.16 166.375 267.16C166.162 267.16 165.962 267.233 165.775 267.38C165.588 267.513 165.435 267.7 165.315 267.94C165.195 268.18 165.135 268.453 165.135 268.76C165.135 268.933 165.182 269.087 165.275 269.22C165.368 269.353 165.515 269.453 165.715 269.52C165.915 269.587 166.168 269.62 166.475 269.62C166.768 269.62 167.075 269.587 167.395 269.52C167.728 269.44 168.035 269.333 168.315 269.2L168.395 271.58C168.182 271.727 167.935 271.86 167.655 271.98C167.375 272.1 167.075 272.193 166.755 272.26C166.448 272.313 166.135 272.34 165.815 272.34C165.108 272.34 164.495 272.247 163.975 272.06C163.468 271.86 163.075 271.54 162.795 271.1C162.515 270.66 162.375 270.06 162.375 269.3C162.375 268.713 162.475 268.133 162.675 267.56C162.875 266.973 163.162 266.447 163.535 265.98C163.908 265.5 164.348 265.12 164.855 264.84C165.362 264.547 165.922 264.4 166.535 264.4C167.442 264.4 168.188 264.667 168.775 265.2C169.375 265.72 169.815 266.427 170.095 267.32C170.388 268.2 170.535 269.18 170.535 270.26C170.535 271.207 170.395 272.033 170.115 272.74C169.835 273.433 169.502 273.98 169.115 274.38C168.795 274.713 168.428 274.993 168.015 275.22C167.602 275.447 167.095 275.627 166.495 275.76C165.908 275.88 165.182 275.967 164.315 276.02C163.462 276.073 162.428 276.1 161.215 276.1ZM168.235 262.58C167.848 262.58 167.515 262.447 167.235 262.18C166.968 261.9 166.835 261.573 166.835 261.2C166.835 260.813 166.968 260.48 167.235 260.2C167.515 259.92 167.848 259.78 168.235 259.78C168.608 259.78 168.928 259.92 169.195 260.2C169.462 260.48 169.595 260.813 169.595 261.2C169.595 261.573 169.462 261.9 169.195 262.18C168.928 262.447 168.608 262.58 168.235 262.58ZM164.775 262.56C164.388 262.56 164.055 262.427 163.775 262.16C163.508 261.88 163.375 261.553 163.375 261.18C163.375 260.793 163.508 260.46 163.775 260.18C164.055 259.9 164.388 259.76 164.775 259.76C165.148 259.76 165.468 259.9 165.735 260.18C166.002 260.46 166.135 260.793 166.135 261.18C166.135 261.553 166.002 261.88 165.735 262.16C165.468 262.427 165.148 262.56 164.775 262.56ZM172.453 280.6L171.873 277.8C172.819 277.68 173.646 277.533 174.353 277.36C175.059 277.2 175.653 276.973 176.133 276.68C176.613 276.387 176.973 275.987 177.213 275.48C177.453 274.96 177.573 274.293 177.573 273.48C177.573 273.187 177.546 272.893 177.493 272.6C177.439 272.293 177.359 272.013 177.253 271.76C177.146 271.507 177.006 271.3 176.833 271.14C176.673 270.98 176.479 270.9 176.253 270.9C176.013 270.9 175.799 270.987 175.613 271.16C175.426 271.32 175.279 271.527 175.173 271.78C175.066 272.02 175.013 272.267 175.013 272.52C175.013 272.707 175.059 272.867 175.153 273C175.246 273.12 175.386 273.213 175.573 273.28C175.759 273.333 175.993 273.36 176.273 273.36C176.593 273.36 176.919 273.327 177.253 273.26C177.599 273.18 177.913 273.073 178.193 272.94L178.273 275.12C177.953 275.373 177.586 275.6 177.173 275.8C176.759 275.987 176.259 276.08 175.673 276.08C175.193 276.08 174.746 276.027 174.333 275.92C173.919 275.8 173.553 275.62 173.233 275.38C172.926 275.14 172.686 274.833 172.513 274.46C172.339 274.073 172.253 273.613 172.253 273.08C172.253 272.427 172.359 271.793 172.573 271.18C172.786 270.567 173.079 270.02 173.453 269.54C173.839 269.047 174.279 268.66 174.773 268.38C175.279 268.087 175.813 267.94 176.373 267.94C177.039 267.94 177.619 268.107 178.113 268.44C178.619 268.773 179.039 269.213 179.373 269.76C179.706 270.293 179.959 270.873 180.133 271.5C180.306 272.127 180.393 272.727 180.393 273.3C180.393 274.807 180.073 276.087 179.433 277.14C178.793 278.193 177.879 279.007 176.693 279.58C175.506 280.167 174.093 280.507 172.453 280.6ZM182.873 276L182.453 261.36H185.253L185.673 276H182.873Z" fill="#121212"/>
<path d="M96.0376 300.03L93.2397 300.023L93.4961 298.565L96.0962 298.573C96.5015 298.573 96.8726 298.504 97.2095 298.368C97.5513 298.226 97.832 298.016 98.0518 297.738C98.2764 297.459 98.4155 297.105 98.4692 296.676C98.5229 296.314 98.4961 295.997 98.3887 295.724C98.2812 295.445 98.1055 295.228 97.8613 295.072C97.6172 294.911 97.3096 294.823 96.9385 294.808L94.7046 294.801L93.1079 304H91.3062L93.1592 293.336L96.9897 293.343C97.6489 293.358 98.2373 293.5 98.7549 293.768C99.2725 294.032 99.668 294.408 99.9414 294.896C100.22 295.384 100.33 295.973 100.271 296.661C100.208 297.428 99.9731 298.062 99.5679 298.565C99.1675 299.063 98.6572 299.432 98.0371 299.671C97.417 299.911 96.7505 300.03 96.0376 300.03ZM103.259 297.672L102.161 304H100.439L101.816 296.075H103.45L103.259 297.672ZM105.837 296.009L105.647 297.657C105.535 297.638 105.42 297.621 105.303 297.606C105.19 297.591 105.078 297.584 104.966 297.584C104.668 297.579 104.399 297.621 104.16 297.708C103.921 297.796 103.711 297.923 103.53 298.089C103.35 298.25 103.198 298.446 103.076 298.675C102.954 298.9 102.859 299.151 102.791 299.43L102.38 299.459C102.429 299.073 102.512 298.673 102.629 298.258C102.751 297.843 102.92 297.457 103.135 297.101C103.35 296.739 103.623 296.449 103.955 296.229C104.287 296.004 104.69 295.897 105.164 295.907C105.276 295.907 105.388 295.917 105.5 295.936C105.613 295.956 105.725 295.98 105.837 296.009ZM109.939 302.411L110.54 298.609C110.569 298.355 110.552 298.126 110.488 297.921C110.425 297.716 110.308 297.555 110.137 297.438C109.971 297.315 109.751 297.252 109.478 297.247C109.233 297.242 109.004 297.284 108.789 297.372C108.574 297.455 108.391 297.579 108.24 297.745C108.093 297.911 107.996 298.114 107.947 298.353L106.226 298.36C106.255 297.945 106.377 297.584 106.592 297.276C106.812 296.964 107.087 296.708 107.419 296.507C107.756 296.302 108.118 296.153 108.503 296.061C108.894 295.963 109.275 295.917 109.646 295.921C110.183 295.931 110.659 296.046 111.074 296.266C111.489 296.485 111.804 296.795 112.019 297.196C112.239 297.596 112.322 298.08 112.268 298.646L111.689 302.176C111.646 302.455 111.614 302.74 111.594 303.033C111.58 303.321 111.619 303.6 111.711 303.868L111.697 304L109.99 304.007C109.917 303.749 109.88 303.485 109.88 303.216C109.88 302.943 109.9 302.674 109.939 302.411ZM110.737 299.181L110.562 300.272L109.419 300.265C109.185 300.265 108.943 300.287 108.694 300.331C108.45 300.375 108.22 300.45 108.005 300.558C107.791 300.665 107.61 300.812 107.463 300.997C107.317 301.178 107.227 301.405 107.192 301.678C107.168 301.898 107.192 302.088 107.266 302.25C107.344 302.406 107.461 302.53 107.617 302.623C107.773 302.716 107.959 302.765 108.174 302.77C108.462 302.774 108.745 302.718 109.023 302.601C109.307 302.484 109.551 302.318 109.756 302.103C109.966 301.883 110.11 301.632 110.188 301.349L110.649 302.14C110.542 302.438 110.391 302.711 110.195 302.96C110.005 303.209 109.783 303.424 109.529 303.604C109.275 303.785 108.997 303.924 108.694 304.022C108.396 304.12 108.088 304.166 107.771 304.161C107.332 304.151 106.931 304.051 106.57 303.861C106.208 303.666 105.923 303.395 105.713 303.048C105.503 302.701 105.41 302.301 105.435 301.847C105.459 301.334 105.588 300.907 105.823 300.565C106.062 300.218 106.367 299.945 106.738 299.745C107.114 299.54 107.524 299.393 107.969 299.305C108.413 299.217 108.853 299.173 109.287 299.173L110.737 299.181ZM115.439 303.048L118.706 296.075H120.61L115.967 305.216C115.835 305.489 115.684 305.748 115.513 305.992C115.347 306.236 115.156 306.451 114.941 306.637C114.727 306.822 114.485 306.966 114.216 307.069C113.953 307.176 113.655 307.23 113.323 307.23C113.171 307.225 113.022 307.208 112.876 307.179C112.725 307.154 112.576 307.125 112.429 307.091L112.554 305.736C112.607 305.741 112.661 305.746 112.715 305.75C112.769 305.76 112.822 305.765 112.876 305.765C113.154 305.775 113.398 305.738 113.608 305.655C113.818 305.577 114.001 305.455 114.158 305.289C114.319 305.123 114.46 304.92 114.583 304.681L115.439 303.048ZM115.454 296.075L116.26 302.096L116.245 303.897L115.044 304.205L113.652 296.075H115.454ZM123.635 304.146C123.093 304.137 122.612 304.032 122.192 303.832C121.777 303.626 121.433 303.351 121.16 303.004C120.886 302.652 120.688 302.25 120.566 301.795C120.444 301.336 120.403 300.848 120.442 300.331L120.471 300.03C120.525 299.498 120.654 298.985 120.859 298.492C121.064 297.994 121.338 297.552 121.68 297.167C122.026 296.776 122.434 296.468 122.903 296.244C123.372 296.019 123.894 295.914 124.47 295.929C125.022 295.938 125.488 296.053 125.869 296.273C126.25 296.493 126.553 296.786 126.777 297.152C127.002 297.513 127.151 297.923 127.224 298.382C127.302 298.841 127.314 299.317 127.261 299.811L127.158 300.565H121.211L121.416 299.298L125.613 299.305L125.642 299.151C125.686 298.844 125.669 298.553 125.591 298.28C125.518 298.006 125.381 297.782 125.181 297.606C124.98 297.43 124.712 297.337 124.375 297.328C124.009 297.318 123.694 297.394 123.43 297.555C123.171 297.716 122.957 297.933 122.786 298.207C122.615 298.48 122.48 298.778 122.383 299.1C122.29 299.417 122.224 299.728 122.185 300.03L122.156 300.323C122.126 300.611 122.134 300.897 122.178 301.18C122.222 301.463 122.307 301.722 122.434 301.957C122.561 302.186 122.737 302.374 122.961 302.521C123.186 302.662 123.464 302.738 123.796 302.748C124.211 302.757 124.587 302.672 124.924 302.491C125.266 302.306 125.576 302.066 125.854 301.773L126.704 302.674C126.479 303.011 126.201 303.29 125.869 303.509C125.542 303.729 125.186 303.893 124.8 304C124.419 304.103 124.031 304.151 123.635 304.146ZM130.696 297.672L129.597 304H127.876L129.253 296.075H130.886L130.696 297.672ZM133.274 296.009L133.083 297.657C132.971 297.638 132.856 297.621 132.739 297.606C132.627 297.591 132.515 297.584 132.402 297.584C132.104 297.579 131.836 297.621 131.597 297.708C131.357 297.796 131.147 297.923 130.967 298.089C130.786 298.25 130.635 298.446 130.513 298.675C130.391 298.9 130.295 299.151 130.227 299.43L129.817 299.459C129.866 299.073 129.949 298.673 130.066 298.258C130.188 297.843 130.356 297.457 130.571 297.101C130.786 296.739 131.06 296.449 131.392 296.229C131.724 296.004 132.126 295.897 132.6 295.907C132.712 295.907 132.825 295.917 132.937 295.936C133.049 295.956 133.162 295.98 133.274 296.009ZM146.091 298.36L146.018 298.939C145.92 299.613 145.74 300.265 145.476 300.895C145.217 301.52 144.875 302.081 144.451 302.579C144.031 303.072 143.528 303.46 142.942 303.744C142.356 304.027 141.689 304.161 140.942 304.146C140.229 304.132 139.629 303.973 139.141 303.67C138.652 303.368 138.269 302.967 137.991 302.469C137.717 301.971 137.534 301.419 137.441 300.814C137.349 300.204 137.341 299.586 137.419 298.961L137.5 298.382C137.598 297.713 137.778 297.066 138.042 296.441C138.306 295.816 138.65 295.257 139.075 294.764C139.5 294.266 140.005 293.875 140.591 293.592C141.177 293.309 141.841 293.175 142.583 293.189C143.301 293.204 143.901 293.363 144.385 293.666C144.873 293.963 145.254 294.361 145.527 294.859C145.806 295.357 145.989 295.909 146.077 296.515C146.165 297.12 146.169 297.735 146.091 298.36ZM144.216 298.961L144.297 298.353C144.341 297.987 144.36 297.596 144.355 297.181C144.351 296.761 144.292 296.366 144.18 295.995C144.067 295.619 143.877 295.311 143.608 295.072C143.345 294.833 142.969 294.703 142.48 294.684C141.978 294.664 141.538 294.764 141.162 294.984C140.791 295.199 140.479 295.489 140.225 295.855C139.971 296.222 139.768 296.625 139.617 297.064C139.47 297.503 139.368 297.936 139.309 298.36L139.229 298.968C139.18 299.33 139.158 299.72 139.163 300.14C139.172 300.56 139.233 300.958 139.346 301.334C139.458 301.71 139.648 302.022 139.917 302.271C140.186 302.516 140.559 302.645 141.038 302.66C141.55 302.679 141.992 302.579 142.363 302.359C142.734 302.14 143.047 301.847 143.301 301.48C143.555 301.114 143.755 300.711 143.901 300.272C144.053 299.833 144.158 299.396 144.216 298.961ZM150.325 292.75L150.164 293.775C150.11 294.137 150.007 294.481 149.856 294.808C149.705 295.13 149.517 295.433 149.292 295.716C149.067 295.995 148.818 296.246 148.545 296.471L147.651 295.892C147.891 295.57 148.101 295.24 148.281 294.903C148.462 294.562 148.589 294.193 148.662 293.797L148.845 292.75H150.325ZM152.727 302.748C153.015 302.752 153.279 302.699 153.518 302.586C153.757 302.474 153.955 302.313 154.111 302.103C154.272 301.893 154.385 301.651 154.448 301.378L156.082 301.371C156.018 301.937 155.818 302.43 155.481 302.85C155.149 303.27 154.734 303.595 154.236 303.824C153.743 304.049 153.22 304.156 152.668 304.146C152.107 304.137 151.626 304.022 151.226 303.802C150.83 303.583 150.51 303.287 150.266 302.916C150.022 302.545 149.851 302.125 149.753 301.656C149.661 301.183 149.639 300.692 149.688 300.184L149.717 299.92C149.775 299.378 149.905 298.866 150.105 298.382C150.31 297.899 150.581 297.472 150.918 297.101C151.26 296.725 151.663 296.432 152.126 296.222C152.59 296.012 153.113 295.914 153.694 295.929C154.28 295.938 154.785 296.073 155.21 296.332C155.635 296.59 155.959 296.944 156.184 297.394C156.409 297.838 156.519 298.346 156.514 298.917L154.895 298.91C154.895 298.636 154.849 298.382 154.756 298.148C154.668 297.909 154.526 297.716 154.331 297.569C154.141 297.418 153.892 297.337 153.584 297.328C153.223 297.318 152.913 297.389 152.654 297.54C152.4 297.691 152.188 297.896 152.017 298.155C151.851 298.414 151.719 298.7 151.621 299.012C151.528 299.32 151.465 299.625 151.431 299.928L151.401 300.184C151.377 300.443 151.367 300.721 151.372 301.019C151.382 301.312 151.428 301.588 151.511 301.847C151.594 302.105 151.731 302.318 151.921 302.484C152.117 302.65 152.385 302.738 152.727 302.748ZM160.725 292.75L158.77 304H157.048L158.997 292.75H160.725ZM160.996 300.169L161.018 300.001C161.077 299.454 161.211 298.934 161.421 298.441C161.631 297.948 161.909 297.511 162.256 297.13C162.607 296.744 163.02 296.444 163.494 296.229C163.972 296.014 164.504 295.914 165.09 295.929C165.657 295.938 166.143 296.056 166.548 296.28C166.958 296.505 167.29 296.805 167.544 297.181C167.803 297.552 167.983 297.977 168.086 298.456C168.188 298.929 168.215 299.425 168.167 299.942L168.152 300.111C168.088 300.658 167.949 301.175 167.734 301.664C167.524 302.152 167.244 302.586 166.892 302.967C166.545 303.343 166.133 303.639 165.654 303.854C165.181 304.063 164.653 304.161 164.072 304.146C163.511 304.137 163.025 304.022 162.615 303.802C162.209 303.578 161.877 303.28 161.619 302.909C161.365 302.538 161.187 302.118 161.084 301.649C160.981 301.175 160.952 300.682 160.996 300.169ZM162.732 300.001L162.717 300.169C162.693 300.438 162.69 300.721 162.71 301.019C162.729 301.317 162.788 301.595 162.886 301.854C162.983 302.113 163.135 302.325 163.34 302.491C163.545 302.657 163.818 302.745 164.16 302.755C164.521 302.765 164.836 302.691 165.105 302.535C165.374 302.379 165.598 302.169 165.779 301.905C165.959 301.642 166.104 301.354 166.211 301.041C166.318 300.724 166.389 300.414 166.423 300.111L166.438 299.942C166.467 299.679 166.472 299.398 166.453 299.1C166.433 298.797 166.375 298.514 166.277 298.25C166.179 297.982 166.028 297.765 165.823 297.599C165.618 297.428 165.344 297.337 165.002 297.328C164.636 297.318 164.319 297.394 164.05 297.555C163.782 297.711 163.557 297.923 163.376 298.192C163.196 298.46 163.052 298.753 162.944 299.071C162.842 299.388 162.771 299.698 162.732 300.001ZM172.297 302.748C172.585 302.752 172.849 302.699 173.088 302.586C173.328 302.474 173.525 302.313 173.682 302.103C173.843 301.893 173.955 301.651 174.019 301.378L175.652 301.371C175.588 301.937 175.388 302.43 175.051 302.85C174.719 303.27 174.304 303.595 173.806 303.824C173.313 304.049 172.791 304.156 172.239 304.146C171.677 304.137 171.196 304.022 170.796 303.802C170.4 303.583 170.081 303.287 169.836 302.916C169.592 302.545 169.421 302.125 169.324 301.656C169.231 301.183 169.209 300.692 169.258 300.184L169.287 299.92C169.346 299.378 169.475 298.866 169.675 298.382C169.88 297.899 170.151 297.472 170.488 297.101C170.83 296.725 171.233 296.432 171.697 296.222C172.161 296.012 172.683 295.914 173.264 295.929C173.85 295.938 174.355 296.073 174.78 296.332C175.205 296.59 175.53 296.944 175.754 297.394C175.979 297.838 176.089 298.346 176.084 298.917L174.465 298.91C174.465 298.636 174.419 298.382 174.326 298.148C174.238 297.909 174.097 297.716 173.901 297.569C173.711 297.418 173.462 297.337 173.154 297.328C172.793 297.318 172.483 297.389 172.224 297.54C171.97 297.691 171.758 297.896 171.587 298.155C171.421 298.414 171.289 298.7 171.191 299.012C171.099 299.32 171.035 299.625 171.001 299.928L170.972 300.184C170.947 300.443 170.938 300.721 170.942 301.019C170.952 301.312 170.999 301.588 171.082 301.847C171.165 302.105 171.301 302.318 171.492 302.484C171.687 302.65 171.956 302.738 172.297 302.748ZM180.193 292.75L178.237 304H176.509L178.464 292.75H180.193ZM184.456 296.075L180.479 299.869L178.23 301.869L178.025 300.257L179.666 298.543L182.244 296.075H184.456ZM181.357 304L179.468 300.206L180.698 299.034L183.254 304H181.357Z" fill="#121212"/>
</svg>
