<svg width="87" height="98" viewBox="0 0 87 98" fill="none" xmlns="http://www.w3.org/2000/svg">
<path d="M26.3287 22.0225C31.3138 19.3538 39.0684 16.2898 43.4996 11.1304C47.9308 16.2898 55.6854 19.3538 60.6706 22.0225C69.533 26.7668 78.3954 29.475 78.3954 48.9661V98.9999C78.3954 101.761 76.1568 104 73.3954 104H13.6039C10.8424 104 8.60385 101.761 8.60385 98.9999V48.9661C8.60385 29.475 17.4663 26.7668 26.3287 22.0225Z" fill="url(#paint0_linear_263_1128)"/>
<path d="M2.41266 103.419V47.3538C2.41266 24.2081 12.8474 20.9921 23.2822 15.3582C29.1518 12.1892 38.2822 8.55064 43.4996 2.42383C48.717 8.55064 57.8474 12.1892 63.717 15.3582C74.1518 20.9921 84.5866 24.2081 84.5866 47.3538V103.419" stroke="url(#paint1_linear_263_1128)" stroke-width="3"/>
<defs>
<linearGradient id="paint0_linear_263_1128" x1="43.4996" y1="11.1304" x2="80.8882" y2="102.631" gradientUnits="userSpaceOnUse">
<stop stop-color="#FEB004" stop-opacity="0.2"/>
<stop offset="1" stop-color="#121212" stop-opacity="0.1"/>
</linearGradient>
<linearGradient id="paint1_linear_263_1128" x1="43.4996" y1="2.42383" x2="43.4996" y2="103.419" gradientUnits="userSpaceOnUse">
<stop stop-color="#F9AD32"/>
<stop offset="1" stop-color="#F9AD32" stop-opacity="0"/>
</linearGradient>
</defs>
</svg>
